<svg width="375" height="812" viewBox="0 0 375 812" fill="none" xmlns="http://www.w3.org/2000/svg">
<g clip-path="url(#clip0)">
<rect width="375" height="812" fill="#D46F1B"/>
<path d="M38.4516 117.161H26.5183V113.102H10.9333V123.573H32.1193C34.1752 124.06 35.7994 125.034 36.9892 126.495C37.746 127.416 38.2074 128.416 38.3692 129.497C38.4232 129.823 38.4502 130.146 38.4502 130.471V150.847C38.4502 152.85 37.6111 154.54 35.9343 155.92C34.2561 157.3 32.2272 157.99 29.8463 157.99H7.60532C5.22292 157.99 3.19405 157.3 1.51728 155.92C-0.160907 154.543 -1 152.852 -1 150.848V139.565H10.9333V146.059H26.5183V135.587H7.60532C4.57408 135.587 2.1931 134.532 0.462379 132.421C-0.241834 131.556 -0.701845 130.608 -0.917652 129.58C-0.971604 129.202 -0.99858 128.823 -0.99858 128.444V108.313C-0.99858 106.582 -0.322762 105.053 1.03029 103.727C2.38193 102.401 4.08709 101.576 6.14436 101.251C6.63135 101.197 7.11834 101.17 7.60532 101.17H29.8477C30.3886 101.17 30.9026 101.198 31.3896 101.251C33.3915 101.576 35.0697 102.401 36.4227 103.727C37.7743 105.053 38.4516 106.582 38.4516 108.313V117.161Z" fill="#E0751C"/>
<path d="M24.1943 96.1892H14.2217V113.12H24.1943V96.1892Z" fill="#E0751C"/>
<path d="M24.1943 147.213H14.2217V162.52H24.1943V147.213Z" fill="#E0751C"/>
<path d="M86.75 59.2337H74.8167V55.1746H59.2317V65.6455H80.4177C82.4736 66.1325 84.0978 67.1064 85.2876 68.5674C86.0443 69.4888 86.5058 70.4884 86.6676 71.5702C86.7216 71.8954 86.7485 72.2191 86.7485 72.5442V92.9196C86.7485 94.9229 85.9095 96.6124 84.2327 97.9925C82.5545 99.3725 80.5256 100.063 78.1447 100.063H55.9037C53.5213 100.063 51.4924 99.3725 49.8157 97.9925C48.1375 96.6124 47.2998 94.9215 47.2998 92.9196V81.6365H59.2331V88.1306H74.8167V77.6583H55.9037C52.8725 77.6583 50.4915 76.6034 48.7608 74.4922C48.0566 73.6275 47.5965 72.6791 47.3807 71.6512C47.3268 71.2735 47.2998 70.8944 47.2998 70.5153V50.3856C47.2998 48.6549 47.9756 47.1258 49.3287 45.7997C50.6803 44.4736 52.3855 43.6487 54.4427 43.3236C54.9297 43.2697 55.4167 43.2427 55.9037 43.2427H78.1461C78.687 43.2427 79.201 43.2711 79.688 43.3236C81.6899 43.6487 83.368 44.4736 84.7211 45.7997C86.0727 47.1258 86.75 48.6549 86.75 50.3856V59.2337V59.2337Z" fill="#E0751C"/>
<path d="M72.4355 38.262H62.4629V55.1929H72.4355V38.262Z" fill="#E0751C"/>
<path d="M72.4355 89.2861H62.4629V104.593H72.4355V89.2861Z" fill="#E0751C"/>
<path d="M82.272 126.713V137.499H72.2284V147.54H61.4451V137.499H51.7764V126.713H61.4451V117.044H72.2284V126.713H82.272Z" fill="#E0751C"/>
<path d="M34.4253 62.397V73.1831H24.3817V83.2239H13.5984V73.1831H3.92969V62.397H13.5984V52.7283H24.3817V62.397H34.4253Z" fill="#E0751C"/>
<path d="M136.843 117.161H124.909V113.102H109.324V123.573H130.511C132.566 124.06 134.191 125.034 135.38 126.495C136.137 127.416 136.599 128.416 136.76 129.497C136.814 129.823 136.841 130.146 136.841 130.471V150.847C136.841 152.85 136.002 154.54 134.325 155.92C132.647 157.3 130.618 157.99 128.237 157.99H105.996C103.614 157.99 101.585 157.3 99.9084 155.92C98.2302 154.54 97.3926 152.849 97.3926 150.847V139.564H109.326V146.058H124.911V135.585H105.996C102.965 135.585 100.584 134.531 98.8535 132.419C98.1493 131.555 97.6893 130.606 97.4735 129.578C97.4196 129.201 97.3926 128.822 97.3926 128.443V108.311C97.3926 106.581 98.0684 105.052 99.4214 103.725C100.773 102.399 102.478 101.575 104.536 101.249C105.023 101.195 105.509 101.168 105.996 101.168H128.239C128.78 101.168 129.294 101.197 129.781 101.249C131.783 101.575 133.461 102.399 134.814 103.725C136.166 105.052 136.843 106.581 136.843 108.311V117.161V117.161Z" fill="#E0751C"/>
<path d="M122.585 96.1892H112.613V113.12H122.585V96.1892Z" fill="#E0751C"/>
<path d="M122.585 147.213H112.613V162.52H122.585V147.213Z" fill="#E0751C"/>
<path d="M185.141 59.2337H173.208V55.1746H157.623V65.6455H178.809C180.865 66.1325 182.489 67.1064 183.679 68.5674C184.435 69.4888 184.897 70.4884 185.059 71.5702C185.113 71.8954 185.14 72.2191 185.14 72.5442V92.9196C185.14 94.9229 184.301 96.6124 182.624 97.9925C180.946 99.3725 178.917 100.063 176.536 100.063H154.293C151.911 100.063 149.882 99.3725 148.205 97.9925C146.527 96.6124 145.689 94.9215 145.689 92.9196V81.6365H157.623V88.1306H173.208V77.6583H154.293C151.262 77.6583 148.881 76.6034 147.15 74.4922C146.446 73.6275 145.986 72.6791 145.77 71.6512C145.716 71.2735 145.689 70.8944 145.689 70.5153V50.3856C145.689 48.6549 146.365 47.1258 147.718 45.7997C149.07 44.4736 150.775 43.6487 152.832 43.3236C153.319 43.2697 153.806 43.2427 154.293 43.2427H176.536C177.077 43.2427 177.591 43.2711 178.078 43.3236C180.08 43.6487 181.758 44.4736 183.111 45.7997C184.462 47.1258 185.14 48.6549 185.14 50.3856V59.2337H185.141Z" fill="#E0751C"/>
<path d="M170.827 38.262H160.854V55.1929H170.827V38.262Z" fill="#E0751C"/>
<path d="M170.827 89.2861H160.854V104.593H170.827V89.2861Z" fill="#E0751C"/>
<path d="M180.663 126.713V137.499H170.62V147.54H159.836V137.499H150.167V126.713H159.836V117.044H170.62V126.713H180.663Z" fill="#E0751C"/>
<path d="M132.816 62.397V73.1831H122.773V83.2239H111.99V73.1831H102.321V62.397H111.99V52.7283H122.773V62.397H132.816Z" fill="#E0751C"/>
<path d="M38.4516 -2.10099H26.5183V-6.16016H10.9333V4.31076H32.1193C34.1752 4.79775 35.7994 5.77172 36.9892 7.23268C37.746 8.15413 38.2074 9.15365 38.3692 10.2355C38.4232 10.5607 38.4502 10.8844 38.4502 11.2095V31.5848C38.4502 33.5882 37.6111 35.2777 35.9343 36.6577C34.2561 38.0378 32.2272 38.7278 29.8463 38.7278H7.60532C5.22292 38.7278 3.19405 38.0378 1.51728 36.6577C-0.160907 35.2806 -1 33.5896 -1 31.5863V20.3032H10.9333V26.7973H26.5183V16.3264H7.60532C4.57408 16.3264 2.1931 15.2715 0.462379 13.1603C-0.241834 12.2956 -0.701845 11.3472 -0.917652 10.3193C-0.971604 9.94163 -0.99858 9.56255 -0.99858 9.18347V-10.9491C-0.99858 -12.6798 -0.322762 -14.2089 1.03029 -15.535C2.38193 -16.8611 4.08709 -17.686 6.14436 -18.0111C6.63135 -18.0651 7.11834 -18.092 7.60532 -18.092H29.8477C30.3886 -18.092 30.9026 -18.0636 31.3896 -18.0111C33.3915 -17.686 35.0697 -16.8611 36.4227 -15.535C37.7743 -14.2089 38.4516 -12.6798 38.4516 -10.9491V-2.10099Z" fill="#E0751C"/>
<path d="M24.1943 27.9514H14.2217V43.2581H24.1943V27.9514Z" fill="#E0751C"/>
<path d="M82.272 7.45121V18.2373H72.2284V28.278H61.4451V18.2373H51.7764V7.45121H61.4451V-2.21753H72.2284V7.45121H82.272Z" fill="#E0751C"/>
<path d="M136.843 -2.10099H124.909V-6.16016H109.324V4.31076H130.51C132.566 4.79775 134.191 5.77172 135.38 7.23268C136.137 8.15413 136.598 9.15365 136.76 10.2355C136.814 10.5607 136.841 10.8844 136.841 11.2095V31.5848C136.841 33.5882 136.002 35.2777 134.325 36.6577C132.647 38.0378 130.618 38.7278 128.237 38.7278H105.996C103.614 38.7278 101.585 38.0378 99.9084 36.6577C98.2302 35.2806 97.3911 33.5896 97.3911 31.5863V20.3032H109.324V26.7973H124.909V16.3264H105.996C102.965 16.3264 100.584 15.2715 98.8535 13.1603C98.1493 12.2956 97.6893 11.3472 97.4735 10.3193C97.4195 9.94163 97.3925 9.56255 97.3925 9.18347V-10.9491C97.3925 -12.6798 98.0683 -14.2089 99.4214 -15.535C100.773 -16.8611 102.478 -17.686 104.535 -18.0111C105.022 -18.0651 105.509 -18.092 105.996 -18.092H128.239C128.78 -18.092 129.294 -18.0636 129.781 -18.0111C131.783 -17.686 133.461 -16.8611 134.814 -15.535C136.165 -14.2089 136.843 -12.6798 136.843 -10.9491V-2.10099V-2.10099Z" fill="#E0751C"/>
<path d="M122.585 27.9514H112.613V43.2581H122.585V27.9514Z" fill="#E0751C"/>
<path d="M180.663 7.45121V18.2373H170.62V28.278H159.836V18.2373H150.167V7.45121H159.836V-2.21753H170.62V7.45121H180.663Z" fill="#E0751C"/>
<path d="M38.4516 360.654H26.5183V356.595H10.9333V367.066H32.1193C34.1752 367.553 35.7994 368.527 36.9892 369.988C37.746 370.909 38.2074 371.909 38.3692 372.991C38.4232 373.316 38.4502 373.64 38.4502 373.965V394.34C38.4502 396.344 37.6111 398.033 35.9343 399.413C34.2561 400.793 32.2272 401.483 29.8463 401.483H7.60532C5.22292 401.483 3.19405 400.793 1.51728 399.413C-0.160907 398.036 -1 396.345 -1 394.342V383.059H10.9333V389.553H26.5183V379.08H7.60532C4.57408 379.08 2.1931 378.025 0.462379 375.914C-0.241834 375.05 -0.701845 374.101 -0.917652 373.073C-0.971604 372.696 -0.99858 372.316 -0.99858 371.937V351.806C-0.99858 350.076 -0.322762 348.546 1.03029 347.22C2.38193 345.894 4.08709 345.069 6.14436 344.744C6.63135 344.69 7.11834 344.663 7.60532 344.663H29.8477C30.3886 344.663 30.9026 344.692 31.3896 344.744C33.3915 345.069 35.0697 345.894 36.4227 347.22C37.7743 348.546 38.4516 350.076 38.4516 351.806V360.654Z" fill="#E0751C"/>
<path d="M24.1943 339.683H14.2217V356.614H24.1943V339.683Z" fill="#E0751C"/>
<path d="M24.1943 390.707H14.2217V406.014H24.1943V390.707Z" fill="#E0751C"/>
<path d="M86.75 302.727H74.8167V298.668H59.2317V309.139H80.4177C82.4736 309.626 84.0978 310.6 85.2876 312.061C86.0443 312.982 86.5058 313.982 86.6676 315.064C86.7216 315.389 86.7485 315.712 86.7485 316.038V336.413C86.7485 338.416 85.9095 340.106 84.2327 341.486C82.5545 342.866 80.5256 343.556 78.1447 343.556H55.9037C53.5213 343.556 51.4924 342.866 49.8157 341.486C48.1375 340.106 47.2998 338.415 47.2998 336.413V325.13H59.2331V331.624H74.8167V321.152H55.9037C52.8725 321.152 50.4915 320.097 48.7608 317.986C48.0566 317.121 47.5965 316.172 47.3807 315.145C47.3268 314.767 47.2998 314.388 47.2998 314.009V293.878C47.2998 292.147 47.9756 290.618 49.3287 289.292C50.6803 287.966 52.3855 287.141 54.4427 286.816C54.9297 286.762 55.4167 286.735 55.9037 286.735H78.1461C78.687 286.735 79.201 286.763 79.688 286.816C81.6899 287.141 83.368 287.966 84.7211 289.292C86.0727 290.618 86.75 292.147 86.75 293.878V302.727V302.727Z" fill="#E0751C"/>
<path d="M72.436 281.755H62.4634V298.686H72.436V281.755Z" fill="#E0751C"/>
<path d="M72.436 332.78H62.4634V348.086H72.436V332.78Z" fill="#E0751C"/>
<path d="M82.272 370.207V380.993H72.2284V391.033H61.4451V380.993H51.7764V370.207H61.4451V360.538H72.2284V370.207H82.272Z" fill="#E0751C"/>
<path d="M34.4253 305.89V316.676H24.3817V326.717H13.5984V316.676H3.92969V305.89H13.5984V296.221H24.3817V305.89H34.4253Z" fill="#E0751C"/>
<path d="M136.843 360.654H124.909V356.595H109.324V367.066H130.511C132.566 367.553 134.191 368.527 135.38 369.988C136.137 370.909 136.599 371.909 136.76 372.991C136.814 373.316 136.841 373.64 136.841 373.965V394.34C136.841 396.343 136.002 398.033 134.325 399.413C132.647 400.793 130.618 401.483 128.237 401.483H105.996C103.614 401.483 101.585 400.793 99.9084 399.413C98.2302 398.033 97.3926 396.342 97.3926 394.34V383.057H109.326V389.551H124.911V379.079H105.996C102.965 379.079 100.584 378.024 98.8535 375.913C98.1493 375.048 97.6893 374.1 97.4735 373.072C97.4196 372.694 97.3926 372.315 97.3926 371.936V351.805C97.3926 350.074 98.0684 348.545 99.4214 347.219C100.773 345.893 102.478 345.068 104.536 344.743C105.023 344.689 105.509 344.662 105.996 344.662H128.239C128.78 344.662 129.294 344.69 129.781 344.743C131.783 345.068 133.461 345.893 134.814 347.219C136.166 348.545 136.843 350.074 136.843 351.805V360.654V360.654Z" fill="#E0751C"/>
<path d="M122.585 339.683H112.613V356.614H122.585V339.683Z" fill="#E0751C"/>
<path d="M122.585 390.707H112.613V406.014H122.585V390.707Z" fill="#E0751C"/>
<path d="M185.141 302.727H173.208V298.668H157.623V309.139H178.809C180.865 309.626 182.489 310.6 183.679 312.061C184.435 312.982 184.897 313.982 185.059 315.064C185.113 315.389 185.14 315.712 185.14 316.038V336.413C185.14 338.416 184.301 340.106 182.624 341.486C180.946 342.866 178.917 343.556 176.536 343.556H154.293C151.911 343.556 149.882 342.866 148.205 341.486C146.527 340.106 145.689 338.415 145.689 336.413V325.13H157.623V331.624H173.208V321.152H154.293C151.262 321.152 148.881 320.097 147.15 317.986C146.446 317.121 145.986 316.172 145.77 315.145C145.716 314.767 145.689 314.388 145.689 314.009V293.878C145.689 292.147 146.365 290.618 147.718 289.292C149.07 287.966 150.775 287.141 152.832 286.816C153.319 286.762 153.806 286.735 154.293 286.735H176.536C177.077 286.735 177.591 286.763 178.078 286.816C180.08 287.141 181.758 287.966 183.111 289.292C184.462 290.618 185.14 292.147 185.14 293.878V302.727H185.141Z" fill="#E0751C"/>
<path d="M170.827 281.755H160.854V298.686H170.827V281.755Z" fill="#E0751C"/>
<path d="M170.827 332.78H160.854V348.086H170.827V332.78Z" fill="#E0751C"/>
<path d="M180.663 370.207V380.993H170.62V391.033H159.836V380.993H150.167V370.207H159.836V360.538H170.62V370.207H180.663Z" fill="#E0751C"/>
<path d="M132.816 305.89V316.676H122.773V326.717H111.99V316.676H102.321V305.89H111.99V296.221H122.773V305.89H132.816Z" fill="#E0751C"/>
<path d="M38.4516 241.392H26.5183V237.333H10.9333V247.804H32.1193C34.1752 248.291 35.7994 249.265 36.9892 250.726C37.746 251.647 38.2074 252.647 38.3692 253.729C38.4232 254.054 38.4502 254.378 38.4502 254.703V275.078C38.4502 277.081 37.6111 278.771 35.9343 280.151C34.2561 281.531 32.2272 282.221 29.8463 282.221H7.60532C5.22292 282.221 3.19405 281.531 1.51728 280.151C-0.160907 278.774 -1 277.083 -1 275.079V263.796H10.9333V270.29H26.5183V259.818H7.60532C4.57408 259.818 2.1931 258.763 0.462379 256.652C-0.241834 255.787 -0.701845 254.839 -0.917652 253.811C-0.971604 253.433 -0.99858 253.054 -0.99858 252.675V232.544C-0.99858 230.813 -0.322762 229.284 1.03029 227.958C2.38193 226.632 4.08709 225.807 6.14436 225.482C6.63135 225.428 7.11834 225.401 7.60532 225.401H29.8477C30.3886 225.401 30.9026 225.429 31.3896 225.482C33.3915 225.807 35.0697 226.632 36.4227 227.958C37.7743 229.284 38.4516 230.813 38.4516 232.544V241.392Z" fill="#E0751C"/>
<path d="M24.1943 220.42H14.2217V237.351H24.1943V220.42Z" fill="#E0751C"/>
<path d="M24.1943 271.445H14.2217V286.752H24.1943V271.445Z" fill="#E0751C"/>
<path d="M86.75 183.465H74.8167V179.406H59.2317V189.877H80.4177C82.4736 190.364 84.0978 191.338 85.2876 192.799C86.0443 193.72 86.5058 194.72 86.6676 195.801C86.7216 196.127 86.7485 196.45 86.7485 196.775V217.151C86.7485 219.154 85.9095 220.844 84.2327 222.224C82.5545 223.604 80.5256 224.294 78.1447 224.294H55.9037C53.5213 224.294 51.4924 223.604 49.8157 222.224C48.1375 220.844 47.2998 219.153 47.2998 217.151V205.868H59.2331V212.362H74.8167V201.889H55.9037C52.8725 201.889 50.4915 200.835 48.7608 198.723C48.0566 197.859 47.5965 196.91 47.3807 195.882C47.3268 195.505 47.2998 195.126 47.2998 194.747V174.615C47.2998 172.885 47.9756 171.356 49.3287 170.029C50.6803 168.703 52.3855 167.878 54.4427 167.553C54.9297 167.499 55.4167 167.472 55.9037 167.472H78.1461C78.687 167.472 79.201 167.501 79.688 167.553C81.6899 167.878 83.368 168.703 84.7211 170.029C86.0727 171.356 86.75 172.885 86.75 174.615V183.465V183.465Z" fill="#E0751C"/>
<path d="M72.4355 162.493H62.4629V179.424H72.4355V162.493Z" fill="#E0751C"/>
<path d="M72.4355 213.518H62.4629V228.824H72.4355V213.518Z" fill="#E0751C"/>
<path d="M82.272 250.944V261.731H72.2284V271.771H61.4451V261.731H51.7764V250.944H61.4451V241.276H72.2284V250.944H82.272Z" fill="#E0751C"/>
<path d="M34.4253 186.628V197.414H24.3817V207.455H13.5984V197.414H3.92969V186.628H13.5984V176.959H24.3817V186.628H34.4253Z" fill="#E0751C"/>
<path d="M136.843 241.392H124.909V237.333H109.324V247.804H130.511C132.566 248.291 134.191 249.265 135.38 250.726C136.137 251.647 136.599 252.647 136.76 253.729C136.814 254.054 136.841 254.377 136.841 254.703V275.078C136.841 277.081 136.002 278.771 134.325 280.151C132.647 281.531 130.618 282.221 128.237 282.221H105.996C103.614 282.221 101.585 281.531 99.9084 280.151C98.2302 278.771 97.3926 277.08 97.3926 275.078V263.795H109.326V270.289H124.911V259.817H105.996C102.965 259.817 100.584 258.762 98.8535 256.651C98.1493 255.786 97.6893 254.837 97.4735 253.81C97.4196 253.432 97.3926 253.053 97.3926 252.674V232.543C97.3926 230.812 98.0684 229.283 99.4214 227.957C100.773 226.631 102.478 225.806 104.536 225.481C105.023 225.427 105.509 225.4 105.996 225.4H128.239C128.78 225.4 129.294 225.428 129.781 225.481C131.783 225.806 133.461 226.631 134.814 227.957C136.166 229.283 136.843 230.812 136.843 232.543V241.392V241.392Z" fill="#E0751C"/>
<path d="M122.585 220.42H112.613V237.351H122.585V220.42Z" fill="#E0751C"/>
<path d="M122.585 271.445H112.613V286.752H122.585V271.445Z" fill="#E0751C"/>
<path d="M185.141 183.465H173.208V179.406H157.623V189.877H178.809C180.865 190.364 182.489 191.338 183.679 192.799C184.435 193.72 184.897 194.72 185.059 195.801C185.113 196.127 185.14 196.45 185.14 196.775V217.151C185.14 219.154 184.301 220.844 182.624 222.224C180.946 223.604 178.917 224.294 176.536 224.294H154.293C151.911 224.294 149.882 223.604 148.205 222.224C146.527 220.844 145.689 219.153 145.689 217.151V205.868H157.623V212.362H173.208V201.889H154.293C151.262 201.889 148.881 200.835 147.15 198.723C146.446 197.859 145.986 196.91 145.77 195.882C145.716 195.505 145.689 195.126 145.689 194.747V174.615C145.689 172.885 146.365 171.356 147.718 170.029C149.07 168.703 150.775 167.878 152.832 167.553C153.319 167.499 153.806 167.472 154.293 167.472H176.536C177.077 167.472 177.591 167.501 178.078 167.553C180.08 167.878 181.758 168.703 183.111 170.029C184.462 171.356 185.14 172.885 185.14 174.615V183.465H185.141Z" fill="#E0751C"/>
<path d="M170.827 162.493H160.854V179.424H170.827V162.493Z" fill="#E0751C"/>
<path d="M170.827 213.518H160.854V228.824H170.827V213.518Z" fill="#E0751C"/>
<path d="M180.663 250.944V261.731H170.62V271.771H159.836V261.731H150.167V250.944H159.836V241.276H170.62V250.944H180.663Z" fill="#E0751C"/>
<path d="M132.816 186.628V197.414H122.773V207.455H111.99V197.414H102.321V186.628H111.99V176.959H122.773V186.628H132.816Z" fill="#E0751C"/>
<path d="M38.4516 604.147H26.5183V600.088H10.9333V610.559H32.1193C34.1752 611.046 35.7994 612.02 36.9892 613.481C37.746 614.402 38.2074 615.402 38.3692 616.484C38.4232 616.809 38.4502 617.133 38.4502 617.458V637.833C38.4502 639.836 37.6111 641.526 35.9343 642.906C34.2561 644.286 32.2272 644.976 29.8463 644.976H7.60532C5.22292 644.976 3.19405 644.286 1.51728 642.906C-0.160907 641.529 -1 639.838 -1 637.835V626.552H10.9333V633.046H26.5183V622.573H7.60532C4.57408 622.573 2.1931 621.518 0.462379 619.407C-0.241834 618.543 -0.701845 617.594 -0.917652 616.566C-0.971604 616.189 -0.99858 615.809 -0.99858 615.43V595.299C-0.99858 593.568 -0.322762 592.039 1.03029 590.713C2.38193 589.387 4.08709 588.562 6.14436 588.237C6.63135 588.183 7.11834 588.156 7.60532 588.156H29.8477C30.3886 588.156 30.9026 588.185 31.3896 588.237C33.3915 588.562 35.0697 589.387 36.4227 590.713C37.7743 592.039 38.4516 593.568 38.4516 595.299V604.147Z" fill="#E0751C"/>
<path d="M24.1943 583.176H14.2217V600.106H24.1943V583.176Z" fill="#E0751C"/>
<path d="M24.1943 634.2H14.2217V649.506H24.1943V634.2Z" fill="#E0751C"/>
<path d="M86.75 546.22H74.8167V542.161H59.2317V552.632H80.4177C82.4736 553.119 84.0978 554.093 85.2876 555.554C86.0443 556.475 86.5058 557.475 86.6676 558.557C86.7216 558.882 86.7485 559.205 86.7485 559.531V579.906C86.7485 581.909 85.9095 583.599 84.2327 584.979C82.5545 586.359 80.5256 587.049 78.1447 587.049H55.9037C53.5213 587.049 51.4924 586.359 49.8157 584.979C48.1375 583.599 47.2998 581.908 47.2998 579.906V568.623H59.2331V575.117H74.8167V564.645H55.9037C52.8725 564.645 50.4915 563.59 48.7608 561.478C48.0566 560.614 47.5965 559.665 47.3807 558.638C47.3268 558.26 47.2998 557.881 47.2998 557.502V537.372C47.2998 535.641 47.9756 534.112 49.3287 532.786C50.6803 531.46 52.3855 530.635 54.4427 530.31C54.9297 530.256 55.4167 530.229 55.9037 530.229H78.1461C78.687 530.229 79.201 530.257 79.688 530.31C81.6899 530.635 83.368 531.46 84.7211 532.786C86.0727 534.112 86.75 535.641 86.75 537.372V546.22V546.22Z" fill="#E0751C"/>
<path d="M72.436 525.248H62.4634V542.179H72.436V525.248Z" fill="#E0751C"/>
<path d="M72.436 576.272H62.4634V591.579H72.436V576.272Z" fill="#E0751C"/>
<path d="M82.272 613.7V624.486H72.2284V634.527H61.4451V624.486H51.7764V613.7H61.4451V604.031H72.2284V613.7H82.272Z" fill="#E0751C"/>
<path d="M34.4253 549.383V560.169H24.3817V570.21H13.5984V560.169H3.92969V549.383H13.5984V539.715H24.3817V549.383H34.4253Z" fill="#E0751C"/>
<path d="M136.843 604.147H124.909V600.088H109.324V610.559H130.511C132.566 611.046 134.191 612.02 135.38 613.481C136.137 614.402 136.599 615.402 136.76 616.484C136.814 616.809 136.841 617.133 136.841 617.458V637.833C136.841 639.836 136.002 641.526 134.325 642.906C132.647 644.286 130.618 644.976 128.237 644.976H105.996C103.614 644.976 101.585 644.286 99.9084 642.906C98.2302 641.526 97.3926 639.835 97.3926 637.833V626.55H109.326V633.044H124.911V622.572H105.996C102.965 622.572 100.584 621.517 98.8535 619.406C98.1493 618.541 97.6893 617.593 97.4735 616.565C97.4196 616.187 97.3926 615.808 97.3926 615.429V595.298C97.3926 593.567 98.0684 592.038 99.4214 590.712C100.773 589.386 102.478 588.561 104.536 588.236C105.023 588.182 105.509 588.155 105.996 588.155H128.239C128.78 588.155 129.294 588.183 129.781 588.236C131.783 588.561 133.461 589.386 134.814 590.712C136.166 592.038 136.843 593.567 136.843 595.298V604.147V604.147Z" fill="#E0751C"/>
<path d="M122.585 583.176H112.613V600.106H122.585V583.176Z" fill="#E0751C"/>
<path d="M122.585 634.2H112.613V649.506H122.585V634.2Z" fill="#E0751C"/>
<path d="M185.141 546.22H173.208V542.161H157.623V552.632H178.809C180.865 553.119 182.489 554.093 183.679 555.554C184.435 556.475 184.897 557.475 185.059 558.557C185.113 558.882 185.14 559.205 185.14 559.531V579.906C185.14 581.909 184.301 583.599 182.624 584.979C180.946 586.359 178.917 587.049 176.536 587.049H154.293C151.911 587.049 149.882 586.359 148.205 584.979C146.527 583.599 145.689 581.908 145.689 579.906V568.623H157.623V575.117H173.208V564.645H154.293C151.262 564.645 148.881 563.59 147.15 561.478C146.446 560.614 145.986 559.665 145.77 558.638C145.716 558.26 145.689 557.881 145.689 557.502V537.372C145.689 535.641 146.365 534.112 147.718 532.786C149.07 531.46 150.775 530.635 152.832 530.31C153.319 530.256 153.806 530.229 154.293 530.229H176.536C177.077 530.229 177.591 530.257 178.078 530.31C180.08 530.635 181.758 531.46 183.111 532.786C184.462 534.112 185.14 535.641 185.14 537.372V546.22H185.141Z" fill="#E0751C"/>
<path d="M170.827 525.248H160.854V542.179H170.827V525.248Z" fill="#E0751C"/>
<path d="M170.827 576.272H160.854V591.579H170.827V576.272Z" fill="#E0751C"/>
<path d="M180.663 613.7V624.486H170.62V634.527H159.836V624.486H150.167V613.7H159.836V604.031H170.62V613.7H180.663Z" fill="#E0751C"/>
<path d="M132.816 549.383V560.169H122.773V570.21H111.99V560.169H102.321V549.383H111.99V539.715H122.773V549.383H132.816Z" fill="#E0751C"/>
<path d="M38.4516 484.886H26.5183V480.826H10.9333V491.297H32.1193C34.1752 491.784 35.7994 492.758 36.9892 494.219C37.746 495.141 38.2074 496.14 38.3692 497.222C38.4232 497.547 38.4502 497.871 38.4502 498.196V518.571C38.4502 520.575 37.6111 522.264 35.9343 523.644C34.2561 525.024 32.2272 525.714 29.8463 525.714H7.60532C5.22292 525.714 3.19405 525.024 1.51728 523.644C-0.160907 522.267 -1 520.576 -1 518.573V507.29H10.9333V513.784H26.5183V503.313H7.60532C4.57408 503.313 2.1931 502.258 0.462379 500.147C-0.241834 499.282 -0.701845 498.334 -0.917652 497.306C-0.971604 496.928 -0.99858 496.549 -0.99858 496.17V476.037C-0.99858 474.307 -0.322762 472.778 1.03029 471.452C2.38193 470.125 4.08709 469.301 6.14436 468.975C6.63135 468.922 7.11834 468.895 7.60532 468.895H29.8477C30.3886 468.895 30.9026 468.923 31.3896 468.975C33.3915 469.301 35.0697 470.125 36.4227 471.452C37.7743 472.778 38.4516 474.307 38.4516 476.037V484.886Z" fill="#E0751C"/>
<path d="M24.1943 463.914H14.2217V480.845H24.1943V463.914Z" fill="#E0751C"/>
<path d="M24.1943 514.938H14.2217V530.245H24.1943V514.938Z" fill="#E0751C"/>
<path d="M86.75 426.958H74.8167V422.899H59.2317V433.37H80.4177C82.4736 433.857 84.0978 434.831 85.2876 436.292C86.0443 437.213 86.5058 438.213 86.6676 439.295C86.7216 439.62 86.7485 439.944 86.7485 440.269V460.644C86.7485 462.647 85.9095 464.337 84.2327 465.717C82.5545 467.097 80.5256 467.787 78.1447 467.787H55.9037C53.5213 467.787 51.4924 467.097 49.8157 465.717C48.1375 464.337 47.2998 462.646 47.2998 460.644V449.361H59.2331V455.855H74.8167V445.386H55.9037C52.8725 445.386 50.4915 444.331 48.7608 442.22C48.0566 441.355 47.5965 440.407 47.3807 439.379C47.3268 439.001 47.2998 438.622 47.2998 438.243V418.11C47.2998 416.38 47.9756 414.85 49.3287 413.524C50.6803 412.198 52.3841 411.373 54.4413 411.048C54.9283 410.994 55.4153 410.967 55.9023 410.967H78.1447C78.6856 410.967 79.1995 410.996 79.6865 411.048C81.6884 411.373 83.3666 412.198 84.7197 413.524C86.0713 414.85 86.7485 416.38 86.7485 418.11V426.958H86.75Z" fill="#E0751C"/>
<path d="M72.436 405.987H62.4634V422.918H72.436V405.987Z" fill="#E0751C"/>
<path d="M72.436 457.011H62.4634V472.317H72.436V457.011Z" fill="#E0751C"/>
<path d="M82.272 494.438V505.224H72.2284V515.265H61.4451V505.224H51.7764V494.438H61.4451V484.769H72.2284V494.438H82.272Z" fill="#E0751C"/>
<path d="M34.4253 430.121V440.907H24.3817V450.948H13.5984V440.907H3.92969V430.121H13.5984V420.453H24.3817V430.121H34.4253Z" fill="#E0751C"/>
<path d="M136.843 484.886H124.909V480.826H109.324V491.297H130.51C132.566 491.784 134.191 492.758 135.38 494.219C136.137 495.141 136.598 496.14 136.76 497.222C136.814 497.547 136.841 497.871 136.841 498.196V518.571C136.841 520.575 136.002 522.264 134.325 523.644C132.647 525.024 130.618 525.714 128.237 525.714H105.996C103.614 525.714 101.585 525.024 99.9084 523.644C98.2302 522.267 97.3911 520.576 97.3911 518.573V507.29H109.324V513.784H124.909V503.313H105.996C102.965 503.313 100.584 502.258 98.8535 500.147C98.1493 499.282 97.6893 498.334 97.4735 497.306C97.4195 496.928 97.3925 496.549 97.3925 496.17V476.037C97.3925 474.307 98.0683 472.778 99.4214 471.452C100.773 470.125 102.478 469.301 104.535 468.975C105.022 468.922 105.509 468.895 105.996 468.895H128.239C128.78 468.895 129.294 468.923 129.781 468.975C131.783 469.301 133.461 470.125 134.814 471.452C136.165 472.778 136.843 474.307 136.843 476.037V484.886V484.886Z" fill="#E0751C"/>
<path d="M122.585 463.914H112.613V480.845H122.585V463.914Z" fill="#E0751C"/>
<path d="M122.585 514.938H112.613V530.245H122.585V514.938Z" fill="#E0751C"/>
<path d="M185.141 426.958H173.208V422.899H157.623V433.37H178.809C180.865 433.857 182.489 434.831 183.679 436.292C184.435 437.213 184.897 438.213 185.059 439.295C185.113 439.62 185.14 439.944 185.14 440.269V460.644C185.14 462.647 184.301 464.337 182.624 465.717C180.946 467.097 178.917 467.787 176.536 467.787H154.293C151.911 467.787 149.882 467.097 148.205 465.717C146.527 464.337 145.689 462.646 145.689 460.644V449.361H157.623V455.855H173.208V445.386H154.293C151.262 445.386 148.881 444.331 147.15 442.22C146.446 441.355 145.986 440.407 145.77 439.379C145.716 439.001 145.689 438.622 145.689 438.243V418.11C145.689 416.38 146.365 414.85 147.718 413.524C149.07 412.198 150.775 411.373 152.832 411.048C153.319 410.994 153.806 410.967 154.293 410.967H176.536C177.077 410.967 177.591 410.996 178.078 411.048C180.08 411.373 181.758 412.198 183.111 413.524C184.462 414.85 185.14 416.38 185.14 418.11V426.958H185.141Z" fill="#E0751C"/>
<path d="M170.827 405.987H160.854V422.918H170.827V405.987Z" fill="#E0751C"/>
<path d="M170.827 457.011H160.854V472.317H170.827V457.011Z" fill="#E0751C"/>
<path d="M180.663 494.438V505.224H170.62V515.265H159.836V505.224H150.167V494.438H159.836V484.769H170.62V494.438H180.663Z" fill="#E0751C"/>
<path d="M132.816 430.121V440.907H122.773V450.948H111.99V440.907H102.321V430.121H111.99V420.453H122.773V430.121H132.816Z" fill="#E0751C"/>
<path d="M86.75 789.713H74.8167V785.654H59.2317V796.125H80.4177C82.4736 796.612 84.0978 797.586 85.2876 799.047C86.0443 799.969 86.5058 800.968 86.6676 802.05C86.7216 802.375 86.7485 802.699 86.7485 803.024V823.399C86.7485 825.403 85.9095 827.092 84.2327 828.472C82.5545 829.852 80.5256 830.542 78.1447 830.542H55.9037C53.5213 830.542 51.4924 829.852 49.8157 828.472C48.1375 827.092 47.2998 825.401 47.2998 823.399V812.116H59.2331V818.61H74.8167V808.138H55.9037C52.8725 808.138 50.4915 807.083 48.7608 804.972C48.0566 804.107 47.5965 803.159 47.3807 802.131C47.3268 801.753 47.2998 801.374 47.2998 800.995V780.864C47.2998 779.133 47.9756 777.604 49.3287 776.278C50.6803 774.952 52.3855 774.127 54.4427 773.802C54.9297 773.748 55.4167 773.721 55.9037 773.721H78.1461C78.687 773.721 79.201 773.749 79.688 773.802C81.6899 774.127 83.368 774.952 84.7211 776.278C86.0727 777.604 86.75 779.133 86.75 780.864V789.713V789.713Z" fill="#E0751C"/>
<path d="M72.436 768.742H62.4634V785.673H72.436V768.742Z" fill="#E0751C"/>
<path d="M34.4253 792.877V803.663H24.3817V813.704H13.5984V803.663H3.92969V792.877H13.5984V783.208H24.3817V792.877H34.4253Z" fill="#E0751C"/>
<path d="M185.141 789.713H173.208V785.654H157.623V796.125H178.809C180.865 796.612 182.489 797.586 183.679 799.047C184.435 799.969 184.897 800.968 185.059 802.05C185.113 802.375 185.14 802.699 185.14 803.024V823.399C185.14 825.403 184.301 827.092 182.624 828.472C180.946 829.852 178.917 830.542 176.536 830.542H154.293C151.911 830.542 149.882 829.852 148.205 828.472C146.527 827.092 145.689 825.401 145.689 823.399V812.116H157.623V818.61H173.208V808.138H154.293C151.262 808.138 148.881 807.083 147.15 804.972C146.446 804.107 145.986 803.159 145.77 802.131C145.716 801.753 145.689 801.374 145.689 800.995V780.864C145.689 779.133 146.365 777.604 147.718 776.278C149.07 774.952 150.775 774.127 152.832 773.802C153.319 773.748 153.806 773.721 154.293 773.721H176.536C177.077 773.721 177.591 773.749 178.078 773.802C180.08 774.127 181.758 774.952 183.111 776.278C184.462 777.604 185.14 779.133 185.14 780.864V789.713H185.141Z" fill="#E0751C"/>
<path d="M170.827 768.742H160.854V785.673H170.827V768.742Z" fill="#E0751C"/>
<path d="M132.816 792.877V803.663H122.773V813.704H111.99V803.663H102.321V792.877H111.99V783.208H122.773V792.877H132.816Z" fill="#E0751C"/>
<path d="M38.4516 728.379H26.5183V724.32H10.9333V734.791H32.1193C34.1752 735.277 35.7994 736.251 36.9892 737.712C37.746 738.634 38.2074 739.633 38.3692 740.715C38.4232 741.04 38.4502 741.364 38.4502 741.689V762.065C38.4502 764.068 37.6111 765.757 35.9343 767.137C34.2561 768.517 32.2272 769.208 29.8463 769.208H7.60532C5.22292 769.208 3.19405 768.517 1.51728 767.137C-0.160907 765.76 -1 764.069 -1 762.066V750.783H10.9333V757.277H26.5183V746.805H7.60532C4.57408 746.805 2.1931 745.75 0.462379 743.639C-0.241834 742.774 -0.701845 741.826 -0.917652 740.798C-0.971604 740.42 -0.99858 740.041 -0.99858 739.662V719.531C-0.99858 717.8 -0.322762 716.271 1.03029 714.945C2.38193 713.619 4.08709 712.794 6.14436 712.469C6.63135 712.415 7.11834 712.388 7.60532 712.388H29.8477C30.3886 712.388 30.9026 712.416 31.3896 712.469C33.3915 712.794 35.0697 713.619 36.4227 714.945C37.7743 716.271 38.4516 717.8 38.4516 719.531V728.379Z" fill="#E0751C"/>
<path d="M24.1943 707.407H14.2217V724.338H24.1943V707.407Z" fill="#E0751C"/>
<path d="M24.1943 758.431H14.2217V773.738H24.1943V758.431Z" fill="#E0751C"/>
<path d="M86.75 670.452H74.8167V666.393H59.2317V676.863H80.4177C82.4736 677.35 84.0978 678.324 85.2876 679.785C86.0443 680.707 86.5058 681.706 86.6676 682.788C86.7216 683.113 86.7485 683.437 86.7485 683.762V704.138C86.7485 706.141 85.9095 707.83 84.2327 709.21C82.5545 710.59 80.5256 711.28 78.1447 711.28H55.9037C53.5213 711.28 51.4924 710.59 49.8157 709.21C48.1375 707.83 47.2998 706.139 47.2998 704.138V692.855H59.2331V699.349H74.8167V688.876H55.9037C52.8725 688.876 50.4915 687.821 48.7608 685.71C48.0566 684.846 47.5965 683.897 47.3807 682.869C47.3268 682.491 47.2998 682.112 47.2998 681.733V661.602C47.2998 659.871 47.9756 658.342 49.3287 657.016C50.6803 655.69 52.3855 654.865 54.4427 654.54C54.9297 654.486 55.4167 654.459 55.9037 654.459H78.1461C78.687 654.459 79.201 654.488 79.688 654.54C81.6899 654.865 83.368 655.69 84.7211 657.016C86.0727 658.342 86.75 659.871 86.75 661.602V670.452V670.452Z" fill="#E0751C"/>
<path d="M72.436 649.48H62.4634V666.411H72.436V649.48Z" fill="#E0751C"/>
<path d="M72.436 700.504H62.4634V715.811H72.436V700.504Z" fill="#E0751C"/>
<path d="M82.272 737.931V748.717H72.2284V758.758H61.4451V748.717H51.7764V737.931H61.4451V728.262H72.2284V737.931H82.272Z" fill="#E0751C"/>
<path d="M34.4253 673.615V684.401H24.3817V694.442H13.5984V684.401H3.92969V673.615H13.5984V663.946H24.3817V673.615H34.4253Z" fill="#E0751C"/>
<path d="M136.843 728.379H124.909V724.32H109.324V734.79H130.511C132.566 735.277 134.191 736.251 135.38 737.712C136.137 738.634 136.599 739.633 136.76 740.715C136.814 741.04 136.841 741.364 136.841 741.689V762.065C136.841 764.068 136.002 765.757 134.325 767.137C132.647 768.517 130.618 769.207 128.237 769.207H105.996C103.614 769.207 101.585 768.517 99.9084 767.137C98.2302 765.757 97.3926 764.066 97.3926 762.065V750.781H109.326V757.276H124.911V746.803H105.996C102.965 746.803 100.584 745.748 98.8535 743.637C98.1493 742.772 97.6893 741.824 97.4735 740.796C97.4196 740.418 97.3926 740.039 97.3926 739.66V719.529C97.3926 717.798 98.0684 716.269 99.4214 714.943C100.773 713.617 102.478 712.792 104.536 712.467C105.023 712.413 105.509 712.386 105.996 712.386H128.239C128.78 712.386 129.294 712.415 129.781 712.467C131.783 712.792 133.461 713.617 134.814 714.943C136.166 716.269 136.843 717.798 136.843 719.529V728.379V728.379Z" fill="#E0751C"/>
<path d="M122.585 707.407H112.613V724.338H122.585V707.407Z" fill="#E0751C"/>
<path d="M122.585 758.431H112.613V773.738H122.585V758.431Z" fill="#E0751C"/>
<path d="M185.141 670.452H173.208V666.393H157.623V676.863H178.809C180.865 677.35 182.489 678.324 183.679 679.785C184.435 680.707 184.897 681.706 185.059 682.788C185.113 683.113 185.14 683.437 185.14 683.762V704.138C185.14 706.141 184.301 707.83 182.624 709.21C180.946 710.59 178.917 711.28 176.536 711.28H154.293C151.911 711.28 149.882 710.59 148.205 709.21C146.527 707.83 145.689 706.139 145.689 704.138V692.855H157.623V699.349H173.208V688.876H154.293C151.262 688.876 148.881 687.821 147.15 685.71C146.446 684.846 145.986 683.897 145.77 682.869C145.716 682.491 145.689 682.112 145.689 681.733V661.602C145.689 659.871 146.365 658.342 147.718 657.016C149.07 655.69 150.775 654.865 152.832 654.54C153.319 654.486 153.806 654.459 154.293 654.459H176.536C177.077 654.459 177.591 654.488 178.078 654.54C180.08 654.865 181.758 655.69 183.111 657.016C184.462 658.342 185.14 659.871 185.14 661.602V670.452H185.141Z" fill="#E0751C"/>
<path d="M170.827 649.48H160.854V666.411H170.827V649.48Z" fill="#E0751C"/>
<path d="M170.827 700.504H160.854V715.811H170.827V700.504Z" fill="#E0751C"/>
<path d="M180.663 737.931V748.717H170.62V758.758H159.836V748.717H150.167V737.931H159.836V728.262H170.62V737.931H180.663Z" fill="#E0751C"/>
<path d="M132.816 673.615V684.401H122.773V694.442H111.99V684.401H102.321V673.615H111.99V663.946H122.773V673.615H132.816Z" fill="#E0751C"/>
<path d="M229.129 117.161H217.196V113.102H201.611V123.573H222.797C224.852 124.06 226.477 125.034 227.666 126.495C228.423 127.416 228.885 128.416 229.046 129.497C229.1 129.823 229.127 130.146 229.127 130.471V150.847C229.127 152.85 228.288 154.54 226.612 155.92C224.933 157.3 222.904 157.99 220.524 157.99H198.283C195.9 157.99 193.871 157.3 192.195 155.92C190.516 154.543 189.677 152.852 189.677 150.848V139.565H201.611V146.059H217.196V135.587H198.283C195.251 135.587 192.87 134.532 191.14 132.421C190.435 131.556 189.975 130.608 189.76 129.58C189.706 129.202 189.679 128.823 189.679 128.444V108.313C189.679 106.582 190.354 105.053 191.708 103.727C193.059 102.401 194.764 101.576 196.822 101.251C197.309 101.197 197.796 101.17 198.283 101.17H220.525C221.066 101.17 221.58 101.198 222.067 101.251C224.069 101.576 225.747 102.401 227.1 103.727C228.452 105.053 229.129 106.582 229.129 108.313V117.161Z" fill="#E0751C"/>
<path d="M214.872 96.1892H204.899V113.12H214.872V96.1892Z" fill="#E0751C"/>
<path d="M214.872 147.213H204.899V162.52H214.872V147.213Z" fill="#E0751C"/>
<path d="M277.427 59.2337H265.494V55.1746H249.909V65.6455H271.095C273.151 66.1325 274.775 67.1064 275.965 68.5674C276.722 69.4888 277.183 70.4884 277.345 71.5702C277.399 71.8954 277.426 72.2191 277.426 72.5442V92.9196C277.426 94.9229 276.587 96.6124 274.91 97.9925C273.232 99.3725 271.203 100.063 268.822 100.063H246.581C244.199 100.063 242.17 99.3725 240.493 97.9925C238.815 96.6124 237.977 94.9215 237.977 92.9196V81.6365H249.91V88.1306H265.494V77.6583H246.581C243.55 77.6583 241.169 76.6034 239.438 74.4922C238.734 73.6275 238.274 72.6791 238.058 71.6512C238.004 71.2735 237.977 70.8944 237.977 70.5153V50.3856C237.977 48.6549 238.653 47.1258 240.006 45.7997C241.358 44.4736 243.063 43.6487 245.12 43.3236C245.607 43.2697 246.094 43.2427 246.581 43.2427H268.823C269.364 43.2427 269.878 43.2711 270.365 43.3236C272.367 43.6487 274.045 44.4736 275.398 45.7997C276.75 47.1258 277.427 48.6549 277.427 50.3856V59.2337V59.2337Z" fill="#E0751C"/>
<path d="M263.113 38.262H253.14V55.1929H263.113V38.262Z" fill="#E0751C"/>
<path d="M263.113 89.2861H253.14V104.593H263.113V89.2861Z" fill="#E0751C"/>
<path d="M272.949 126.713V137.499H262.906V147.54H252.122V137.499H242.454V126.713H252.122V117.044H262.906V126.713H272.949Z" fill="#E0751C"/>
<path d="M225.103 62.397V73.1831H215.059V83.2239H204.276V73.1831H194.607V62.397H204.276V52.7283H215.059V62.397H225.103Z" fill="#E0751C"/>
<path d="M327.52 117.161H315.587V113.102H300.002V123.573H321.188C323.244 124.06 324.868 125.034 326.058 126.495C326.814 127.416 327.276 128.416 327.438 129.497C327.492 129.823 327.519 130.146 327.519 130.471V150.847C327.519 152.85 326.679 154.54 325.003 155.92C323.325 157.3 321.296 157.99 318.915 157.99H296.674C294.291 157.99 292.262 157.3 290.586 155.92C288.907 154.54 288.07 152.849 288.07 150.847V139.564H300.003V146.058H315.588V135.585H296.674C293.642 135.585 291.261 134.531 289.531 132.419C288.827 131.555 288.367 130.606 288.151 129.578C288.097 129.201 288.07 128.822 288.07 128.443V108.311C288.07 106.581 288.746 105.052 290.099 103.725C291.45 102.399 293.155 101.575 295.213 101.249C295.7 101.195 296.187 101.168 296.674 101.168H318.916C319.457 101.168 319.971 101.197 320.458 101.249C322.46 101.575 324.138 102.399 325.491 103.725C326.843 105.052 327.52 106.581 327.52 108.311V117.161V117.161Z" fill="#E0751C"/>
<path d="M313.263 96.1892H303.29V113.12H313.263V96.1892Z" fill="#E0751C"/>
<path d="M313.263 147.213H303.29V162.52H313.263V147.213Z" fill="#E0751C"/>
<path d="M375.818 59.2337H363.885V55.1746H348.3V65.6455H369.486C371.542 66.1325 373.166 67.1064 374.356 68.5674C375.113 69.4888 375.574 70.4884 375.736 71.5702C375.79 71.8954 375.817 72.2191 375.817 72.5442V92.9196C375.817 94.9229 374.978 96.6124 373.301 97.9925C371.623 99.3725 369.594 100.063 367.213 100.063H344.971C342.588 100.063 340.559 99.3725 338.883 97.9925C337.204 96.6124 336.367 94.9215 336.367 92.9196V81.6365H348.3V88.1306H363.885V77.6583H344.971C341.939 77.6583 339.558 76.6034 337.828 74.4922C337.123 73.6275 336.663 72.6791 336.448 71.6512C336.394 71.2735 336.367 70.8944 336.367 70.5153V50.3856C336.367 48.6549 337.043 47.1258 338.396 45.7997C339.747 44.4736 341.452 43.6487 343.51 43.3236C343.997 43.2697 344.484 43.2427 344.971 43.2427H367.213C367.754 43.2427 368.268 43.2711 368.755 43.3236C370.757 43.6487 372.435 44.4736 373.788 45.7997C375.14 47.1258 375.817 48.6549 375.817 50.3856V59.2337H375.818Z" fill="#E0751C"/>
<path d="M361.504 38.262H351.532V55.1929H361.504V38.262Z" fill="#E0751C"/>
<path d="M361.504 89.2861H351.532V104.593H361.504V89.2861Z" fill="#E0751C"/>
<path d="M371.34 126.713V137.499H361.297V147.54H350.513V137.499H340.845V126.713H350.513V117.044H361.297V126.713H371.34Z" fill="#E0751C"/>
<path d="M323.494 62.397V73.1831H313.45V83.2239H302.667V73.1831H292.998V62.397H302.667V52.7283H313.45V62.397H323.494Z" fill="#E0751C"/>
<path d="M229.129 -2.10099H217.196V-6.16016H201.611V4.31076H222.797C224.852 4.79775 226.477 5.77172 227.666 7.23268C228.423 8.15413 228.885 9.15365 229.046 10.2355C229.1 10.5607 229.127 10.8844 229.127 11.2095V31.5848C229.127 33.5882 228.288 35.2777 226.612 36.6577C224.933 38.0378 222.904 38.7278 220.524 38.7278H198.283C195.9 38.7278 193.871 38.0378 192.195 36.6577C190.516 35.2806 189.677 33.5896 189.677 31.5863V20.3032H201.611V26.7973H217.196V16.3264H198.283C195.251 16.3264 192.87 15.2715 191.14 13.1603C190.435 12.2956 189.975 11.3472 189.76 10.3193C189.706 9.94163 189.679 9.56255 189.679 9.18347V-10.9491C189.679 -12.6798 190.354 -14.2089 191.708 -15.535C193.059 -16.8611 194.764 -17.686 196.822 -18.0111C197.309 -18.0651 197.796 -18.092 198.283 -18.092H220.525C221.066 -18.092 221.58 -18.0636 222.067 -18.0111C224.069 -17.686 225.747 -16.8611 227.1 -15.535C228.452 -14.2089 229.129 -12.6798 229.129 -10.9491V-2.10099Z" fill="#E0751C"/>
<path d="M214.872 27.9514H204.899V43.2581H214.872V27.9514Z" fill="#E0751C"/>
<path d="M272.949 7.45121V18.2373H262.906V28.278H252.122V18.2373H242.454V7.45121H252.122V-2.21753H262.906V7.45121H272.949Z" fill="#E0751C"/>
<path d="M327.52 -2.10099H315.587V-6.16016H300.002V4.31076H321.188C323.244 4.79775 324.868 5.77172 326.058 7.23268C326.814 8.15413 327.276 9.15365 327.438 10.2355C327.492 10.5607 327.519 10.8844 327.519 11.2095V31.5848C327.519 33.5882 326.679 35.2777 325.003 36.6577C323.324 38.0378 321.296 38.7278 318.915 38.7278H296.674C294.291 38.7278 292.262 38.0378 290.586 36.6577C288.907 35.2806 288.068 33.5896 288.068 31.5863V20.3032H300.002V26.7973H315.587V16.3264H296.674C293.642 16.3264 291.261 15.2715 289.531 13.1603C288.827 12.2956 288.367 11.3472 288.151 10.3193C288.097 9.94163 288.07 9.56255 288.07 9.18347V-10.9491C288.07 -12.6798 288.746 -14.2089 290.099 -15.535C291.45 -16.8611 293.155 -17.686 295.213 -18.0111C295.7 -18.0651 296.187 -18.092 296.674 -18.092H318.916C319.457 -18.092 319.971 -18.0636 320.458 -18.0111C322.46 -17.686 324.138 -16.8611 325.491 -15.535C326.843 -14.2089 327.52 -12.6798 327.52 -10.9491V-2.10099V-2.10099Z" fill="#E0751C"/>
<path d="M313.263 27.9514H303.29V43.2581H313.263V27.9514Z" fill="#E0751C"/>
<path d="M371.34 7.45121V18.2373H361.297V28.278H350.513V18.2373H340.845V7.45121H350.513V-2.21753H361.297V7.45121H371.34Z" fill="#E0751C"/>
<path d="M229.129 360.654H217.196V356.595H201.611V367.066H222.797C224.852 367.553 226.477 368.527 227.666 369.988C228.423 370.909 228.885 371.909 229.046 372.991C229.1 373.316 229.127 373.64 229.127 373.965V394.34C229.127 396.344 228.288 398.033 226.612 399.413C224.933 400.793 222.904 401.483 220.524 401.483H198.283C195.9 401.483 193.871 400.793 192.195 399.413C190.516 398.036 189.677 396.345 189.677 394.342V383.059H201.611V389.553H217.196V379.08H198.283C195.251 379.08 192.87 378.025 191.14 375.914C190.435 375.05 189.975 374.101 189.76 373.073C189.706 372.696 189.679 372.316 189.679 371.937V351.806C189.679 350.076 190.354 348.546 191.708 347.22C193.059 345.894 194.764 345.069 196.822 344.744C197.309 344.69 197.796 344.663 198.283 344.663H220.525C221.066 344.663 221.58 344.692 222.067 344.744C224.069 345.069 225.747 345.894 227.1 347.22C228.452 348.546 229.129 350.076 229.129 351.806V360.654Z" fill="#E0751C"/>
<path d="M214.872 339.683H204.899V356.614H214.872V339.683Z" fill="#E0751C"/>
<path d="M214.872 390.707H204.899V406.014H214.872V390.707Z" fill="#E0751C"/>
<path d="M277.427 302.727H265.494V298.668H249.909V309.139H271.095C273.151 309.626 274.775 310.6 275.965 312.061C276.722 312.982 277.183 313.982 277.345 315.064C277.399 315.389 277.426 315.712 277.426 316.038V336.413C277.426 338.416 276.587 340.106 274.91 341.486C273.232 342.866 271.203 343.556 268.822 343.556H246.581C244.199 343.556 242.17 342.866 240.493 341.486C238.815 340.106 237.977 338.415 237.977 336.413V325.13H249.91V331.624H265.494V321.152H246.581C243.55 321.152 241.169 320.097 239.438 317.986C238.734 317.121 238.274 316.172 238.058 315.145C238.004 314.767 237.977 314.388 237.977 314.009V293.878C237.977 292.147 238.653 290.618 240.006 289.292C241.358 287.966 243.063 287.141 245.12 286.816C245.607 286.762 246.094 286.735 246.581 286.735H268.823C269.364 286.735 269.878 286.763 270.365 286.816C272.367 287.141 274.045 287.966 275.398 289.292C276.75 290.618 277.427 292.147 277.427 293.878V302.727V302.727Z" fill="#E0751C"/>
<path d="M263.113 281.755H253.14V298.686H263.113V281.755Z" fill="#E0751C"/>
<path d="M263.113 332.78H253.14V348.086H263.113V332.78Z" fill="#E0751C"/>
<path d="M272.949 370.207V380.993H262.906V391.033H252.122V380.993H242.454V370.207H252.122V360.538H262.906V370.207H272.949Z" fill="#E0751C"/>
<path d="M225.103 305.89V316.676H215.059V326.717H204.276V316.676H194.607V305.89H204.276V296.221H215.059V305.89H225.103Z" fill="#E0751C"/>
<path d="M327.52 360.654H315.587V356.595H300.002V367.066H321.188C323.244 367.553 324.868 368.527 326.058 369.988C326.814 370.909 327.276 371.909 327.438 372.991C327.492 373.316 327.519 373.64 327.519 373.965V394.34C327.519 396.343 326.679 398.033 325.003 399.413C323.325 400.793 321.296 401.483 318.915 401.483H296.674C294.291 401.483 292.262 400.793 290.586 399.413C288.907 398.033 288.07 396.342 288.07 394.34V383.057H300.003V389.551H315.588V379.079H296.674C293.642 379.079 291.261 378.024 289.531 375.913C288.827 375.048 288.367 374.1 288.151 373.072C288.097 372.694 288.07 372.315 288.07 371.936V351.805C288.07 350.074 288.746 348.545 290.099 347.219C291.45 345.893 293.155 345.068 295.213 344.743C295.7 344.689 296.187 344.662 296.674 344.662H318.916C319.457 344.662 319.971 344.69 320.458 344.743C322.46 345.068 324.138 345.893 325.491 347.219C326.843 348.545 327.52 350.074 327.52 351.805V360.654V360.654Z" fill="#E0751C"/>
<path d="M313.263 339.683H303.29V356.614H313.263V339.683Z" fill="#E0751C"/>
<path d="M313.263 390.707H303.29V406.014H313.263V390.707Z" fill="#E0751C"/>
<path d="M375.818 302.727H363.885V298.668H348.3V309.139H369.486C371.542 309.626 373.166 310.6 374.356 312.061C375.113 312.982 375.574 313.982 375.736 315.064C375.79 315.389 375.817 315.712 375.817 316.038V336.413C375.817 338.416 374.978 340.106 373.301 341.486C371.623 342.866 369.594 343.556 367.213 343.556H344.971C342.588 343.556 340.559 342.866 338.883 341.486C337.204 340.106 336.367 338.415 336.367 336.413V325.13H348.3V331.624H363.885V321.152H344.971C341.939 321.152 339.558 320.097 337.828 317.986C337.123 317.121 336.663 316.172 336.448 315.145C336.394 314.767 336.367 314.388 336.367 314.009V293.878C336.367 292.147 337.043 290.618 338.396 289.292C339.747 287.966 341.452 287.141 343.51 286.816C343.997 286.762 344.484 286.735 344.971 286.735H367.213C367.754 286.735 368.268 286.763 368.755 286.816C370.757 287.141 372.435 287.966 373.788 289.292C375.14 290.618 375.817 292.147 375.817 293.878V302.727H375.818Z" fill="#E0751C"/>
<path d="M361.504 281.755H351.532V298.686H361.504V281.755Z" fill="#E0751C"/>
<path d="M361.504 332.78H351.532V348.086H361.504V332.78Z" fill="#E0751C"/>
<path d="M371.34 370.207V380.993H361.297V391.033H350.513V380.993H340.845V370.207H350.513V360.538H361.297V370.207H371.34Z" fill="#E0751C"/>
<path d="M323.494 305.89V316.676H313.45V326.717H302.667V316.676H292.998V305.89H302.667V296.221H313.45V305.89H323.494Z" fill="#E0751C"/>
<path d="M229.129 241.392H217.196V237.333H201.611V247.804H222.797C224.852 248.291 226.477 249.265 227.666 250.726C228.423 251.647 228.885 252.647 229.046 253.729C229.1 254.054 229.127 254.378 229.127 254.703V275.078C229.127 277.081 228.288 278.771 226.612 280.151C224.933 281.531 222.904 282.221 220.524 282.221H198.283C195.9 282.221 193.871 281.531 192.195 280.151C190.516 278.774 189.677 277.083 189.677 275.079V263.796H201.611V270.29H217.196V259.818H198.283C195.251 259.818 192.87 258.763 191.14 256.652C190.435 255.787 189.975 254.839 189.76 253.811C189.706 253.433 189.679 253.054 189.679 252.675V232.544C189.679 230.813 190.354 229.284 191.708 227.958C193.059 226.632 194.764 225.807 196.822 225.482C197.309 225.428 197.796 225.401 198.283 225.401H220.525C221.066 225.401 221.58 225.429 222.067 225.482C224.069 225.807 225.747 226.632 227.1 227.958C228.452 229.284 229.129 230.813 229.129 232.544V241.392Z" fill="#E0751C"/>
<path d="M214.872 220.42H204.899V237.351H214.872V220.42Z" fill="#E0751C"/>
<path d="M214.872 271.445H204.899V286.752H214.872V271.445Z" fill="#E0751C"/>
<path d="M277.427 183.465H265.494V179.406H249.909V189.877H271.095C273.151 190.364 274.775 191.338 275.965 192.799C276.722 193.72 277.183 194.72 277.345 195.801C277.399 196.127 277.426 196.45 277.426 196.775V217.151C277.426 219.154 276.587 220.844 274.91 222.224C273.232 223.604 271.203 224.294 268.822 224.294H246.581C244.199 224.294 242.17 223.604 240.493 222.224C238.815 220.844 237.977 219.153 237.977 217.151V205.868H249.91V212.362H265.494V201.889H246.581C243.55 201.889 241.169 200.835 239.438 198.723C238.734 197.859 238.274 196.91 238.058 195.882C238.004 195.505 237.977 195.126 237.977 194.747V174.615C237.977 172.885 238.653 171.356 240.006 170.029C241.358 168.703 243.063 167.878 245.12 167.553C245.607 167.499 246.094 167.472 246.581 167.472H268.823C269.364 167.472 269.878 167.501 270.365 167.553C272.367 167.878 274.045 168.703 275.398 170.029C276.75 171.356 277.427 172.885 277.427 174.615V183.465V183.465Z" fill="#E0751C"/>
<path d="M263.113 162.493H253.14V179.424H263.113V162.493Z" fill="#E0751C"/>
<path d="M263.113 213.518H253.14V228.824H263.113V213.518Z" fill="#E0751C"/>
<path d="M272.949 250.944V261.731H262.906V271.771H252.122V261.731H242.454V250.944H252.122V241.276H262.906V250.944H272.949Z" fill="#E0751C"/>
<path d="M225.103 186.628V197.414H215.059V207.455H204.276V197.414H194.607V186.628H204.276V176.959H215.059V186.628H225.103Z" fill="#E0751C"/>
<path d="M327.52 241.392H315.587V237.333H300.002V247.804H321.188C323.244 248.291 324.868 249.265 326.058 250.726C326.814 251.647 327.276 252.647 327.438 253.729C327.492 254.054 327.519 254.377 327.519 254.703V275.078C327.519 277.081 326.679 278.771 325.003 280.151C323.325 281.531 321.296 282.221 318.915 282.221H296.674C294.291 282.221 292.262 281.531 290.586 280.151C288.907 278.771 288.07 277.08 288.07 275.078V263.795H300.003V270.289H315.588V259.817H296.674C293.642 259.817 291.261 258.762 289.531 256.651C288.827 255.786 288.367 254.837 288.151 253.81C288.097 253.432 288.07 253.053 288.07 252.674V232.543C288.07 230.812 288.746 229.283 290.099 227.957C291.45 226.631 293.155 225.806 295.213 225.481C295.7 225.427 296.187 225.4 296.674 225.4H318.916C319.457 225.4 319.971 225.428 320.458 225.481C322.46 225.806 324.138 226.631 325.491 227.957C326.843 229.283 327.52 230.812 327.52 232.543V241.392V241.392Z" fill="#E0751C"/>
<path d="M313.263 220.42H303.29V237.351H313.263V220.42Z" fill="#E0751C"/>
<path d="M313.263 271.445H303.29V286.752H313.263V271.445Z" fill="#E0751C"/>
<path d="M375.818 183.465H363.885V179.406H348.3V189.877H369.486C371.542 190.364 373.166 191.338 374.356 192.799C375.113 193.72 375.574 194.72 375.736 195.801C375.79 196.127 375.817 196.45 375.817 196.775V217.151C375.817 219.154 374.978 220.844 373.301 222.224C371.623 223.604 369.594 224.294 367.213 224.294H344.971C342.588 224.294 340.559 223.604 338.883 222.224C337.204 220.844 336.367 219.153 336.367 217.151V205.868H348.3V212.362H363.885V201.889H344.971C341.939 201.889 339.558 200.835 337.828 198.723C337.123 197.859 336.663 196.91 336.448 195.882C336.394 195.505 336.367 195.126 336.367 194.747V174.615C336.367 172.885 337.043 171.356 338.396 170.029C339.747 168.703 341.452 167.878 343.51 167.553C343.997 167.499 344.484 167.472 344.971 167.472H367.213C367.754 167.472 368.268 167.501 368.755 167.553C370.757 167.878 372.435 168.703 373.788 170.029C375.14 171.356 375.817 172.885 375.817 174.615V183.465H375.818Z" fill="#E0751C"/>
<path d="M361.504 162.493H351.532V179.424H361.504V162.493Z" fill="#E0751C"/>
<path d="M361.504 213.518H351.532V228.824H361.504V213.518Z" fill="#E0751C"/>
<path d="M371.34 250.944V261.731H361.297V271.771H350.513V261.731H340.845V250.944H350.513V241.276H361.297V250.944H371.34Z" fill="#E0751C"/>
<path d="M323.494 186.628V197.414H313.45V207.455H302.667V197.414H292.998V186.628H302.667V176.959H313.45V186.628H323.494Z" fill="#E0751C"/>
<path d="M229.129 604.147H217.196V600.088H201.611V610.559H222.797C224.852 611.046 226.477 612.02 227.666 613.481C228.423 614.402 228.885 615.402 229.046 616.484C229.1 616.809 229.127 617.133 229.127 617.458V637.833C229.127 639.836 228.288 641.526 226.612 642.906C224.933 644.286 222.904 644.976 220.524 644.976H198.283C195.9 644.976 193.871 644.286 192.195 642.906C190.516 641.529 189.677 639.838 189.677 637.835V626.552H201.611V633.046H217.196V622.573H198.283C195.251 622.573 192.87 621.518 191.14 619.407C190.435 618.543 189.975 617.594 189.76 616.566C189.706 616.189 189.679 615.809 189.679 615.43V595.299C189.679 593.568 190.354 592.039 191.708 590.713C193.059 589.387 194.764 588.562 196.822 588.237C197.309 588.183 197.796 588.156 198.283 588.156H220.525C221.066 588.156 221.58 588.185 222.067 588.237C224.069 588.562 225.747 589.387 227.1 590.713C228.452 592.039 229.129 593.568 229.129 595.299V604.147Z" fill="#E0751C"/>
<path d="M214.872 583.176H204.899V600.106H214.872V583.176Z" fill="#E0751C"/>
<path d="M214.872 634.2H204.899V649.506H214.872V634.2Z" fill="#E0751C"/>
<path d="M277.427 546.22H265.494V542.161H249.909V552.632H271.095C273.151 553.119 274.775 554.093 275.965 555.554C276.722 556.475 277.183 557.475 277.345 558.557C277.399 558.882 277.426 559.205 277.426 559.531V579.906C277.426 581.909 276.587 583.599 274.91 584.979C273.232 586.359 271.203 587.049 268.822 587.049H246.581C244.199 587.049 242.17 586.359 240.493 584.979C238.815 583.599 237.977 581.908 237.977 579.906V568.623H249.91V575.117H265.494V564.645H246.581C243.55 564.645 241.169 563.59 239.438 561.478C238.734 560.614 238.274 559.665 238.058 558.638C238.004 558.26 237.977 557.881 237.977 557.502V537.372C237.977 535.641 238.653 534.112 240.006 532.786C241.358 531.46 243.063 530.635 245.12 530.31C245.607 530.256 246.094 530.229 246.581 530.229H268.823C269.364 530.229 269.878 530.257 270.365 530.31C272.367 530.635 274.045 531.46 275.398 532.786C276.75 534.112 277.427 535.641 277.427 537.372V546.22V546.22Z" fill="#E0751C"/>
<path d="M263.113 525.248H253.14V542.179H263.113V525.248Z" fill="#E0751C"/>
<path d="M263.113 576.272H253.14V591.579H263.113V576.272Z" fill="#E0751C"/>
<path d="M272.949 613.7V624.486H262.906V634.527H252.122V624.486H242.454V613.7H252.122V604.031H262.906V613.7H272.949Z" fill="#E0751C"/>
<path d="M225.103 549.383V560.169H215.059V570.21H204.276V560.169H194.607V549.383H204.276V539.715H215.059V549.383H225.103Z" fill="#E0751C"/>
<path d="M327.52 604.147H315.587V600.088H300.002V610.559H321.188C323.244 611.046 324.868 612.02 326.058 613.481C326.814 614.402 327.276 615.402 327.438 616.484C327.492 616.809 327.519 617.133 327.519 617.458V637.833C327.519 639.836 326.679 641.526 325.003 642.906C323.325 644.286 321.296 644.976 318.915 644.976H296.674C294.291 644.976 292.262 644.286 290.586 642.906C288.907 641.526 288.07 639.835 288.07 637.833V626.55H300.003V633.044H315.588V622.572H296.674C293.642 622.572 291.261 621.517 289.531 619.406C288.827 618.541 288.367 617.593 288.151 616.565C288.097 616.187 288.07 615.808 288.07 615.429V595.298C288.07 593.567 288.746 592.038 290.099 590.712C291.45 589.386 293.155 588.561 295.213 588.236C295.7 588.182 296.187 588.155 296.674 588.155H318.916C319.457 588.155 319.971 588.183 320.458 588.236C322.46 588.561 324.138 589.386 325.491 590.712C326.843 592.038 327.52 593.567 327.52 595.298V604.147V604.147Z" fill="#E0751C"/>
<path d="M313.263 583.176H303.29V600.106H313.263V583.176Z" fill="#E0751C"/>
<path d="M313.263 634.2H303.29V649.506H313.263V634.2Z" fill="#E0751C"/>
<path d="M375.818 546.22H363.885V542.161H348.3V552.632H369.486C371.542 553.119 373.166 554.093 374.356 555.554C375.113 556.475 375.574 557.475 375.736 558.557C375.79 558.882 375.817 559.205 375.817 559.531V579.906C375.817 581.909 374.978 583.599 373.301 584.979C371.623 586.359 369.594 587.049 367.213 587.049H344.971C342.588 587.049 340.559 586.359 338.883 584.979C337.204 583.599 336.367 581.908 336.367 579.906V568.623H348.3V575.117H363.885V564.645H344.971C341.939 564.645 339.558 563.59 337.828 561.478C337.123 560.614 336.663 559.665 336.448 558.638C336.394 558.26 336.367 557.881 336.367 557.502V537.372C336.367 535.641 337.043 534.112 338.396 532.786C339.747 531.46 341.452 530.635 343.51 530.31C343.997 530.256 344.484 530.229 344.971 530.229H367.213C367.754 530.229 368.268 530.257 368.755 530.31C370.757 530.635 372.435 531.46 373.788 532.786C375.14 534.112 375.817 535.641 375.817 537.372V546.22H375.818Z" fill="#E0751C"/>
<path d="M361.504 525.248H351.532V542.179H361.504V525.248Z" fill="#E0751C"/>
<path d="M361.504 576.272H351.532V591.579H361.504V576.272Z" fill="#E0751C"/>
<path d="M371.34 613.7V624.486H361.297V634.527H350.513V624.486H340.845V613.7H350.513V604.031H361.297V613.7H371.34Z" fill="#E0751C"/>
<path d="M323.494 549.383V560.169H313.45V570.21H302.667V560.169H292.998V549.383H302.667V539.715H313.45V549.383H323.494Z" fill="#E0751C"/>
<path d="M229.129 484.886H217.196V480.826H201.611V491.297H222.797C224.852 491.784 226.477 492.758 227.666 494.219C228.423 495.141 228.885 496.14 229.046 497.222C229.1 497.547 229.127 497.871 229.127 498.196V518.571C229.127 520.575 228.288 522.264 226.612 523.644C224.933 525.024 222.904 525.714 220.524 525.714H198.283C195.9 525.714 193.871 525.024 192.195 523.644C190.516 522.267 189.677 520.576 189.677 518.573V507.29H201.611V513.784H217.196V503.313H198.283C195.251 503.313 192.87 502.258 191.14 500.147C190.435 499.282 189.975 498.334 189.76 497.306C189.706 496.928 189.679 496.549 189.679 496.17V476.037C189.679 474.307 190.354 472.778 191.708 471.452C193.059 470.125 194.764 469.301 196.822 468.975C197.309 468.922 197.796 468.895 198.283 468.895H220.525C221.066 468.895 221.58 468.923 222.067 468.975C224.069 469.301 225.747 470.125 227.1 471.452C228.452 472.778 229.129 474.307 229.129 476.037V484.886Z" fill="#E0751C"/>
<path d="M214.872 463.914H204.899V480.845H214.872V463.914Z" fill="#E0751C"/>
<path d="M214.872 514.938H204.899V530.245H214.872V514.938Z" fill="#E0751C"/>
<path d="M277.427 426.958H265.494V422.899H249.909V433.37H271.095C273.151 433.857 274.775 434.831 275.965 436.292C276.722 437.213 277.183 438.213 277.345 439.295C277.399 439.62 277.426 439.944 277.426 440.269V460.644C277.426 462.647 276.587 464.337 274.91 465.717C273.232 467.097 271.203 467.787 268.822 467.787H246.581C244.199 467.787 242.17 467.097 240.493 465.717C238.815 464.337 237.977 462.646 237.977 460.644V449.361H249.91V455.855H265.494V445.386H246.581C243.55 445.386 241.169 444.331 239.438 442.22C238.734 441.355 238.274 440.407 238.058 439.379C238.004 439.001 237.977 438.622 237.977 438.243V418.11C237.977 416.38 238.653 414.85 240.006 413.524C241.358 412.198 243.061 411.373 245.119 411.048C245.606 410.994 246.093 410.967 246.58 410.967H268.822C269.363 410.967 269.877 410.996 270.364 411.048C272.366 411.373 274.044 412.198 275.397 413.524C276.749 414.85 277.426 416.38 277.426 418.11V426.958H277.427Z" fill="#E0751C"/>
<path d="M263.113 405.987H253.14V422.918H263.113V405.987Z" fill="#E0751C"/>
<path d="M263.113 457.011H253.14V472.317H263.113V457.011Z" fill="#E0751C"/>
<path d="M272.949 494.438V505.224H262.906V515.265H252.122V505.224H242.454V494.438H252.122V484.769H262.906V494.438H272.949Z" fill="#E0751C"/>
<path d="M225.103 430.121V440.907H215.059V450.948H204.276V440.907H194.607V430.121H204.276V420.453H215.059V430.121H225.103Z" fill="#E0751C"/>
<path d="M327.52 484.886H315.587V480.826H300.002V491.297H321.188C323.244 491.784 324.868 492.758 326.058 494.219C326.814 495.141 327.276 496.14 327.438 497.222C327.492 497.547 327.519 497.871 327.519 498.196V518.571C327.519 520.575 326.679 522.264 325.003 523.644C323.324 525.024 321.296 525.714 318.915 525.714H296.674C294.291 525.714 292.262 525.024 290.586 523.644C288.907 522.267 288.068 520.576 288.068 518.573V507.29H300.002V513.784H315.587V503.313H296.674C293.642 503.313 291.261 502.258 289.531 500.147C288.827 499.282 288.367 498.334 288.151 497.306C288.097 496.928 288.07 496.549 288.07 496.17V476.037C288.07 474.307 288.746 472.778 290.099 471.452C291.45 470.125 293.155 469.301 295.213 468.975C295.7 468.922 296.187 468.895 296.674 468.895H318.916C319.457 468.895 319.971 468.923 320.458 468.975C322.46 469.301 324.138 470.125 325.491 471.452C326.843 472.778 327.52 474.307 327.52 476.037V484.886V484.886Z" fill="#E0751C"/>
<path d="M313.263 463.914H303.29V480.845H313.263V463.914Z" fill="#E0751C"/>
<path d="M313.263 514.938H303.29V530.245H313.263V514.938Z" fill="#E0751C"/>
<path d="M375.818 426.958H363.885V422.899H348.3V433.37H369.486C371.542 433.857 373.166 434.831 374.356 436.292C375.113 437.213 375.574 438.213 375.736 439.295C375.79 439.62 375.817 439.944 375.817 440.269V460.644C375.817 462.647 374.978 464.337 373.301 465.717C371.623 467.097 369.594 467.787 367.213 467.787H344.971C342.588 467.787 340.559 467.097 338.883 465.717C337.204 464.337 336.367 462.646 336.367 460.644V449.361H348.3V455.855H363.885V445.386H344.971C341.939 445.386 339.558 444.331 337.828 442.22C337.123 441.355 336.663 440.407 336.448 439.379C336.394 439.001 336.367 438.622 336.367 438.243V418.11C336.367 416.38 337.043 414.85 338.396 413.524C339.747 412.198 341.452 411.373 343.51 411.048C343.997 410.994 344.484 410.967 344.971 410.967H367.213C367.754 410.967 368.268 410.996 368.755 411.048C370.757 411.373 372.435 412.198 373.788 413.524C375.14 414.85 375.817 416.38 375.817 418.11V426.958H375.818Z" fill="#E0751C"/>
<path d="M361.504 405.987H351.532V422.918H361.504V405.987Z" fill="#E0751C"/>
<path d="M361.504 457.011H351.532V472.317H361.504V457.011Z" fill="#E0751C"/>
<path d="M371.34 494.438V505.224H361.297V515.265H350.513V505.224H340.845V494.438H350.513V484.769H361.297V494.438H371.34Z" fill="#E0751C"/>
<path d="M323.494 430.121V440.907H313.45V450.948H302.667V440.907H292.998V430.121H302.667V420.453H313.45V430.121H323.494Z" fill="#E0751C"/>
<path d="M277.427 789.713H265.494V785.654H249.909V796.125H271.095C273.151 796.612 274.775 797.586 275.965 799.047C276.722 799.969 277.183 800.968 277.345 802.05C277.399 802.375 277.426 802.699 277.426 803.024V823.399C277.426 825.403 276.587 827.092 274.91 828.472C273.232 829.852 271.203 830.542 268.822 830.542H246.581C244.199 830.542 242.17 829.852 240.493 828.472C238.815 827.092 237.977 825.401 237.977 823.399V812.116H249.91V818.61H265.494V808.138H246.581C243.55 808.138 241.169 807.083 239.438 804.972C238.734 804.107 238.274 803.159 238.058 802.131C238.004 801.753 237.977 801.374 237.977 800.995V780.864C237.977 779.133 238.653 777.604 240.006 776.278C241.358 774.952 243.063 774.127 245.12 773.802C245.607 773.748 246.094 773.721 246.581 773.721H268.823C269.364 773.721 269.878 773.749 270.365 773.802C272.367 774.127 274.045 774.952 275.398 776.278C276.75 777.604 277.427 779.133 277.427 780.864V789.713V789.713Z" fill="#E0751C"/>
<path d="M263.113 768.742H253.14V785.673H263.113V768.742Z" fill="#E0751C"/>
<path d="M225.103 792.877V803.663H215.059V813.704H204.276V803.663H194.607V792.877H204.276V783.208H215.059V792.877H225.103Z" fill="#E0751C"/>
<path d="M375.818 789.713H363.885V785.654H348.3V796.125H369.486C371.542 796.612 373.166 797.586 374.356 799.047C375.113 799.969 375.574 800.968 375.736 802.05C375.79 802.375 375.817 802.699 375.817 803.024V823.399C375.817 825.403 374.978 827.092 373.301 828.472C371.623 829.852 369.594 830.542 367.213 830.542H344.971C342.588 830.542 340.559 829.852 338.883 828.472C337.204 827.092 336.367 825.401 336.367 823.399V812.116H348.3V818.61H363.885V808.138H344.971C341.939 808.138 339.558 807.083 337.828 804.972C337.123 804.107 336.663 803.159 336.448 802.131C336.394 801.753 336.367 801.374 336.367 800.995V780.864C336.367 779.133 337.043 777.604 338.396 776.278C339.747 774.952 341.452 774.127 343.51 773.802C343.997 773.748 344.484 773.721 344.971 773.721H367.213C367.754 773.721 368.268 773.749 368.755 773.802C370.757 774.127 372.435 774.952 373.788 776.278C375.14 777.604 375.817 779.133 375.817 780.864V789.713H375.818Z" fill="#E0751C"/>
<path d="M361.504 768.742H351.532V785.673H361.504V768.742Z" fill="#E0751C"/>
<path d="M323.494 792.877V803.663H313.45V813.704H302.667V803.663H292.998V792.877H302.667V783.208H313.45V792.877H323.494Z" fill="#E0751C"/>
<path d="M229.129 728.379H217.196V724.32H201.611V734.791H222.797C224.852 735.277 226.477 736.251 227.666 737.712C228.423 738.634 228.885 739.633 229.046 740.715C229.1 741.04 229.127 741.364 229.127 741.689V762.065C229.127 764.068 228.288 765.757 226.612 767.137C224.933 768.517 222.904 769.208 220.524 769.208H198.283C195.9 769.208 193.871 768.517 192.195 767.137C190.516 765.76 189.677 764.069 189.677 762.066V750.783H201.611V757.277H217.196V746.805H198.283C195.251 746.805 192.87 745.75 191.14 743.639C190.435 742.774 189.975 741.826 189.76 740.798C189.706 740.42 189.679 740.041 189.679 739.662V719.531C189.679 717.8 190.354 716.271 191.708 714.945C193.059 713.619 194.764 712.794 196.822 712.469C197.309 712.415 197.796 712.388 198.283 712.388H220.525C221.066 712.388 221.58 712.416 222.067 712.469C224.069 712.794 225.747 713.619 227.1 714.945C228.452 716.271 229.129 717.8 229.129 719.531V728.379Z" fill="#E0751C"/>
<path d="M214.872 707.407H204.899V724.338H214.872V707.407Z" fill="#E0751C"/>
<path d="M214.872 758.431H204.899V773.738H214.872V758.431Z" fill="#E0751C"/>
<path d="M277.427 670.452H265.494V666.393H249.909V676.863H271.095C273.151 677.35 274.775 678.324 275.965 679.785C276.722 680.707 277.183 681.706 277.345 682.788C277.399 683.113 277.426 683.437 277.426 683.762V704.138C277.426 706.141 276.587 707.83 274.91 709.21C273.232 710.59 271.203 711.28 268.822 711.28H246.581C244.199 711.28 242.17 710.59 240.493 709.21C238.815 707.83 237.977 706.139 237.977 704.138V692.855H249.91V699.349H265.494V688.876H246.581C243.55 688.876 241.169 687.821 239.438 685.71C238.734 684.846 238.274 683.897 238.058 682.869C238.004 682.491 237.977 682.112 237.977 681.733V661.602C237.977 659.871 238.653 658.342 240.006 657.016C241.358 655.69 243.063 654.865 245.12 654.54C245.607 654.486 246.094 654.459 246.581 654.459H268.823C269.364 654.459 269.878 654.488 270.365 654.54C272.367 654.865 274.045 655.69 275.398 657.016C276.75 658.342 277.427 659.871 277.427 661.602V670.452V670.452Z" fill="#E0751C"/>
<path d="M263.113 649.48H253.14V666.411H263.113V649.48Z" fill="#E0751C"/>
<path d="M263.113 700.504H253.14V715.811H263.113V700.504Z" fill="#E0751C"/>
<path d="M272.949 737.931V748.717H262.906V758.758H252.122V748.717H242.454V737.931H252.122V728.262H262.906V737.931H272.949Z" fill="#E0751C"/>
<path d="M225.103 673.615V684.401H215.059V694.442H204.276V684.401H194.607V673.615H204.276V663.946H215.059V673.615H225.103Z" fill="#E0751C"/>
<path d="M327.52 728.379H315.587V724.32H300.002V734.79H321.188C323.244 735.277 324.868 736.251 326.058 737.712C326.814 738.634 327.276 739.633 327.438 740.715C327.492 741.04 327.519 741.364 327.519 741.689V762.065C327.519 764.068 326.679 765.757 325.003 767.137C323.325 768.517 321.296 769.207 318.915 769.207H296.674C294.291 769.207 292.262 768.517 290.586 767.137C288.907 765.757 288.07 764.066 288.07 762.065V750.781H300.003V757.276H315.588V746.803H296.674C293.642 746.803 291.261 745.748 289.531 743.637C288.827 742.772 288.367 741.824 288.151 740.796C288.097 740.418 288.07 740.039 288.07 739.66V719.529C288.07 717.798 288.746 716.269 290.099 714.943C291.45 713.617 293.155 712.792 295.213 712.467C295.7 712.413 296.187 712.386 296.674 712.386H318.916C319.457 712.386 319.971 712.415 320.458 712.467C322.46 712.792 324.138 713.617 325.491 714.943C326.843 716.269 327.52 717.798 327.52 719.529V728.379V728.379Z" fill="#E0751C"/>
<path d="M313.263 707.407H303.29V724.338H313.263V707.407Z" fill="#E0751C"/>
<path d="M313.263 758.431H303.29V773.738H313.263V758.431Z" fill="#E0751C"/>
<path d="M375.818 670.452H363.885V666.393H348.3V676.863H369.486C371.542 677.35 373.166 678.324 374.356 679.785C375.113 680.707 375.574 681.706 375.736 682.788C375.79 683.113 375.817 683.437 375.817 683.762V704.138C375.817 706.141 374.978 707.83 373.301 709.21C371.623 710.59 369.594 711.28 367.213 711.28H344.971C342.588 711.28 340.559 710.59 338.883 709.21C337.204 707.83 336.367 706.139 336.367 704.138V692.855H348.3V699.349H363.885V688.876H344.971C341.939 688.876 339.558 687.821 337.828 685.71C337.123 684.846 336.663 683.897 336.448 682.869C336.394 682.491 336.367 682.112 336.367 681.733V661.602C336.367 659.871 337.043 658.342 338.396 657.016C339.747 655.69 341.452 654.865 343.51 654.54C343.997 654.486 344.484 654.459 344.971 654.459H367.213C367.754 654.459 368.268 654.488 368.755 654.54C370.757 654.865 372.435 655.69 373.788 657.016C375.14 658.342 375.817 659.871 375.817 661.602V670.452H375.818Z" fill="#E0751C"/>
<path d="M361.504 649.48H351.532V666.411H361.504V649.48Z" fill="#E0751C"/>
<path d="M361.504 700.504H351.532V715.811H361.504V700.504Z" fill="#E0751C"/>
<path d="M371.34 737.931V748.717H361.297V758.758H350.513V748.717H340.845V737.931H350.513V728.262H361.297V737.931H371.34Z" fill="#E0751C"/>
<path d="M323.494 673.615V684.401H313.45V694.442H302.667V684.401H292.998V673.615H302.667V663.946H313.45V673.615H323.494Z" fill="#E0751C"/>
</g>
<defs>
<clipPath id="clip0">
<rect width="375" height="812" fill="white"/>
</clipPath>
</defs>
</svg>
