<svg width="375" height="812" viewBox="0 0 375 812" fill="none" xmlns="http://www.w3.org/2000/svg">
<g clip-path="url(#clip0)">
<path d="M0 -378H375V1160H0V-378Z" fill="#AEAEAE"/>
<path d="M36.4516 87.1473H24.5183V83.0881H8.9333V93.559H30.1193C32.1752 94.046 33.7994 95.02 34.9892 96.4809C35.746 97.4024 36.2074 98.4019 36.3692 99.4838C36.4232 99.8089 36.4502 100.133 36.4502 100.458V120.833C36.4502 122.836 35.6111 124.526 33.9343 125.906C32.2561 127.286 30.2272 127.976 27.8463 127.976H5.60532C3.22292 127.976 1.19405 127.286 -0.48272 125.906C-2.16091 124.529 -3 122.838 -3 120.835V109.551H8.9333V116.046H24.5183V105.573H5.60532C2.57408 105.573 0.193098 104.518 -1.53762 102.407C-2.24183 101.542 -2.70184 100.594 -2.91765 99.5661C-2.9716 99.1885 -2.99858 98.8094 -2.99858 98.4303V78.2992C-2.99858 76.5684 -2.32276 75.0393 -0.969706 73.7132C0.38193 72.3872 2.08709 71.5623 4.14436 71.2371C4.63135 71.1832 5.11834 71.1562 5.60532 71.1562H27.8477C28.3886 71.1562 28.9026 71.1846 29.3896 71.2371C31.3915 71.5623 33.0697 72.3872 34.4227 73.7132C35.7743 75.0393 36.4516 76.5684 36.4516 78.2992V87.1473Z" fill="#A1A1A1"/>
<path d="M22.194 66.1756H12.2214V83.1065H22.194V66.1756Z" fill="#A1A1A1"/>
<path d="M22.194 117.2H12.2214V132.507H22.194V117.2Z" fill="#A1A1A1"/>
<path d="M84.75 29.22H72.8167V25.1609H57.2317V35.6318H78.4177C80.4736 36.1188 82.0978 37.0927 83.2876 38.5537C84.0443 39.4751 84.5058 40.4747 84.6676 41.5565C84.7216 41.8817 84.7485 42.2054 84.7485 42.5305V62.9059C84.7485 64.9092 83.9095 66.5987 82.2327 67.9787C80.5545 69.3588 78.5256 70.0488 76.1447 70.0488H53.9037C51.5213 70.0488 49.4924 69.3588 47.8157 67.9787C46.1375 66.5987 45.2998 64.9078 45.2998 62.9059V51.6228H57.2331V58.1169H72.8167V47.6446H53.9037C50.8725 47.6446 48.4915 46.5897 46.7608 44.4785C46.0566 43.6138 45.5965 42.6654 45.3807 41.6375C45.3268 41.2598 45.2998 40.8807 45.2998 40.5016V20.3719C45.2998 18.6412 45.9756 17.1121 47.3287 15.786C48.6803 14.4599 50.3855 13.635 52.4427 13.3099C52.9297 13.256 53.4167 13.229 53.9037 13.229H76.1461C76.687 13.229 77.201 13.2574 77.688 13.3099C79.6899 13.635 81.368 14.4599 82.7211 15.786C84.0727 17.1121 84.75 18.6412 84.75 20.3719V29.22V29.22Z" fill="#A1A1A1"/>
<path d="M70.4357 8.24835H60.4631V25.1793H70.4357V8.24835Z" fill="#A1A1A1"/>
<path d="M70.4357 59.2726H60.4631V74.5793H70.4357V59.2726Z" fill="#A1A1A1"/>
<path d="M80.272 96.6997V107.486H70.2284V117.527H59.4451V107.486H49.7764V96.6997H59.4451V87.031H70.2284V96.6997H80.272Z" fill="#A1A1A1"/>
<path d="M32.425 32.3834V43.1695H22.3815V53.2102H11.5982V43.1695H1.92944V32.3834H11.5982V22.7147H22.3815V32.3834H32.425Z" fill="#A1A1A1"/>
<path d="M134.843 87.1472H122.909V83.0881H107.324V93.559H128.511C130.566 94.046 132.191 95.0199 133.38 96.4809C134.137 97.4023 134.599 98.4019 134.76 99.4837C134.814 99.8089 134.841 100.133 134.841 100.458V120.833C134.841 122.836 134.002 124.526 132.325 125.906C130.647 127.286 128.618 127.976 126.237 127.976H103.996C101.614 127.976 99.5852 127.286 97.9084 125.906C96.2302 124.526 95.3926 122.835 95.3926 120.833V109.55H107.326V116.044H122.911V105.572H103.996C100.965 105.572 98.5843 104.517 96.8535 102.406C96.1493 101.541 95.6893 100.593 95.4735 99.5647C95.4196 99.187 95.3926 98.8079 95.3926 98.4289V78.2977C95.3926 76.567 96.0684 75.0379 97.4214 73.7118C98.7731 72.3857 100.478 71.5608 102.536 71.2357C103.023 71.1817 103.509 71.1548 103.996 71.1548H126.239C126.78 71.1548 127.294 71.1832 127.781 71.2357C129.783 71.5608 131.461 72.3857 132.814 73.7118C134.166 75.0379 134.843 76.567 134.843 78.2977V87.1472V87.1472Z" fill="#A1A1A1"/>
<path d="M120.585 66.1756H110.613V83.1065H120.585V66.1756Z" fill="#A1A1A1"/>
<path d="M120.585 117.2H110.613V132.507H120.585V117.2Z" fill="#A1A1A1"/>
<path d="M183.141 29.22H171.208V25.1609H155.623V35.6318H176.809C178.865 36.1188 180.489 37.0927 181.679 38.5537C182.435 39.4751 182.897 40.4747 183.059 41.5565C183.113 41.8817 183.14 42.2054 183.14 42.5305V62.9059C183.14 64.9092 182.301 66.5987 180.624 67.9787C178.946 69.3588 176.917 70.0488 174.536 70.0488H152.293C149.911 70.0488 147.882 69.3588 146.205 67.9787C144.527 66.5987 143.689 64.9078 143.689 62.9059V51.6228H155.623V58.1169H171.208V47.6446H152.293C149.262 47.6446 146.881 46.5897 145.15 44.4785C144.446 43.6138 143.986 42.6654 143.77 41.6375C143.716 41.2598 143.689 40.8807 143.689 40.5016V20.3719C143.689 18.6412 144.365 17.1121 145.718 15.786C147.07 14.4599 148.775 13.635 150.832 13.3099C151.319 13.256 151.806 13.229 152.293 13.229H174.536C175.077 13.229 175.591 13.2574 176.078 13.3099C178.08 13.635 179.758 14.4599 181.111 15.786C182.462 17.1121 183.14 18.6412 183.14 20.3719V29.22H183.141Z" fill="#A1A1A1"/>
<path d="M168.827 8.24835H158.854V25.1793H168.827V8.24835Z" fill="#A1A1A1"/>
<path d="M168.827 59.2726H158.854V74.5793H168.827V59.2726Z" fill="#A1A1A1"/>
<path d="M178.663 96.6997V107.486H168.62V117.527H157.836V107.486H148.167V96.6997H157.836V87.031H168.62V96.6997H178.663Z" fill="#A1A1A1"/>
<path d="M130.816 32.3834V43.1695H120.773V53.2102H109.989V43.1695H100.321V32.3834H109.989V22.7147H120.773V32.3834H130.816Z" fill="#A1A1A1"/>
<path d="M36.4516 -32.1145H24.5183V-36.1737H8.9333V-25.7028H30.1193C32.1752 -25.2158 33.7994 -24.2418 34.9892 -22.7809C35.746 -21.8594 36.2074 -20.8599 36.3692 -19.778C36.4232 -19.4529 36.4502 -19.1292 36.4502 -18.804V1.57131C36.4502 3.57463 35.6111 5.26418 33.9343 6.64421C32.2561 8.02424 30.2272 8.71426 27.8463 8.71426H5.60532C3.22292 8.71426 1.19405 8.02424 -0.48272 6.64421C-2.16091 5.26702 -3 3.57605 -3 1.57273V-9.7103H8.9333V-3.2162H24.5183V-13.6871H5.60532C2.57408 -13.6871 0.193098 -14.742 -1.53762 -16.8532C-2.24183 -17.7179 -2.70184 -18.6663 -2.91765 -19.6942C-2.9716 -20.0719 -2.99858 -20.451 -2.99858 -20.8301V-40.9626C-2.99858 -42.6933 -2.32276 -44.2225 -0.969706 -45.5485C0.38193 -46.8746 2.08709 -47.6995 4.14436 -48.0246C4.63135 -48.0786 5.11834 -48.1056 5.60532 -48.1056H27.8477C28.3886 -48.1056 28.9026 -48.0772 29.3896 -48.0246C31.3915 -47.6995 33.0697 -46.8746 34.4227 -45.5485C35.7743 -44.2225 36.4516 -42.6933 36.4516 -40.9626V-32.1145Z" fill="#A1A1A1"/>
<path d="M22.194 -2.06195H12.2214V13.2448H22.194V-2.06195Z" fill="#A1A1A1"/>
<path d="M134.843 -32.1145H122.909V-36.1737H107.324V-25.7028H128.51C130.566 -25.2158 132.191 -24.2418 133.38 -22.7809C134.137 -21.8594 134.598 -20.8599 134.76 -19.778C134.814 -19.4529 134.841 -19.1292 134.841 -18.804V1.57131C134.841 3.57463 134.002 5.26418 132.325 6.64421C130.647 8.02424 128.618 8.71426 126.237 8.71426H103.996C101.614 8.71426 99.5852 8.02424 97.9084 6.64421C96.2302 5.26702 95.3911 3.57605 95.3911 1.57273V-9.7103H107.324V-3.2162H122.909V-13.6871H103.996C100.965 -13.6871 98.5842 -14.742 96.8535 -16.8532C96.1493 -17.7179 95.6893 -18.6663 95.4735 -19.6942C95.4195 -20.0719 95.3925 -20.451 95.3925 -20.8301V-40.9626C95.3925 -42.6933 96.0683 -44.2225 97.4214 -45.5485C98.773 -46.8746 100.478 -47.6995 102.535 -48.0246C103.022 -48.0786 103.509 -48.1056 103.996 -48.1056H126.239C126.78 -48.1056 127.294 -48.0772 127.781 -48.0246C129.783 -47.6995 131.461 -46.8746 132.814 -45.5485C134.165 -44.2225 134.843 -42.6933 134.843 -40.9626V-32.1145V-32.1145Z" fill="#A1A1A1"/>
<path d="M120.585 -2.06195H110.613V13.2448H120.585V-2.06195Z" fill="#A1A1A1"/>
<path d="M36.4516 330.641H24.5183V326.581H8.9333V337.052H30.1193C32.1752 337.539 33.7994 338.513 34.9892 339.974C35.746 340.896 36.2074 341.895 36.3692 342.977C36.4232 343.302 36.4502 343.626 36.4502 343.951V364.326C36.4502 366.33 35.6111 368.019 33.9343 369.399C32.2561 370.779 30.2272 371.469 27.8463 371.469H5.60532C3.22292 371.469 1.19405 370.779 -0.48272 369.399C-2.16091 368.022 -3 366.331 -3 364.328V353.045H8.9333V359.539H24.5183V349.067H5.60532C2.57408 349.067 0.193098 348.012 -1.53762 345.901C-2.24183 345.036 -2.70184 344.087 -2.91765 343.06C-2.9716 342.682 -2.99858 342.303 -2.99858 341.924V321.793C-2.99858 320.062 -2.32276 318.533 -0.969706 317.207C0.38193 315.881 2.08709 315.056 4.14436 314.731C4.63135 314.677 5.11834 314.65 5.60532 314.65H27.8477C28.3886 314.65 28.9026 314.678 29.3896 314.731C31.3915 315.056 33.0697 315.881 34.4227 317.207C35.7743 318.533 36.4516 320.062 36.4516 321.793V330.641Z" fill="#A1A1A1"/>
<path d="M22.194 309.669H12.2214V326.6H22.194V309.669Z" fill="#A1A1A1"/>
<path d="M22.194 360.693H12.2214V376H22.194V360.693Z" fill="#A1A1A1"/>
<path d="M84.75 272.713H72.8167V268.654H57.2317V279.125H78.4177C80.4736 279.612 82.0978 280.586 83.2876 282.047C84.0443 282.968 84.5058 283.968 84.6676 285.05C84.7216 285.375 84.7485 285.699 84.7485 286.024V306.399C84.7485 308.403 83.9095 310.092 82.2327 311.472C80.5545 312.852 78.5256 313.542 76.1447 313.542H53.9037C51.5213 313.542 49.4924 312.852 47.8157 311.472C46.1375 310.092 45.2998 308.401 45.2998 306.399V295.116H57.2331V301.61H72.8167V291.138H53.9037C50.8725 291.138 48.4915 290.083 46.7608 287.972C46.0566 287.107 45.5965 286.159 45.3807 285.131C45.3268 284.753 45.2998 284.374 45.2998 283.995V263.864C45.2998 262.133 45.9756 260.604 47.3287 259.278C48.6803 257.952 50.3855 257.127 52.4427 256.802C52.9297 256.748 53.4167 256.721 53.9037 256.721H76.1461C76.687 256.721 77.201 256.749 77.688 256.802C79.6899 257.127 81.368 257.952 82.7211 259.278C84.0727 260.604 84.75 262.133 84.75 263.864V272.713V272.713Z" fill="#A1A1A1"/>
<path d="M70.4357 251.742H60.4631V268.673H70.4357V251.742Z" fill="#A1A1A1"/>
<path d="M70.4357 302.766H60.4631V318.073H70.4357V302.766Z" fill="#A1A1A1"/>
<path d="M80.272 340.193V350.979H70.2284V361.02H59.4451V350.979H49.7764V340.193H59.4451V330.524H70.2284V340.193H80.272Z" fill="#A1A1A1"/>
<path d="M32.425 275.877V286.663H22.3815V296.703H11.5982V286.663H1.92944V275.877H11.5982V266.208H22.3815V275.877H32.425Z" fill="#A1A1A1"/>
<path d="M134.843 330.641H122.909V326.582H107.324V337.052H128.511C130.566 337.539 132.191 338.513 133.38 339.974C134.137 340.896 134.599 341.895 134.76 342.977C134.814 343.302 134.841 343.626 134.841 343.951V364.327C134.841 366.33 134.002 368.019 132.325 369.399C130.647 370.779 128.618 371.469 126.237 371.469H103.996C101.614 371.469 99.5852 370.779 97.9084 369.399C96.2302 368.019 95.3926 366.328 95.3926 364.327V353.043H107.326V359.538H122.911V349.065H103.996C100.965 349.065 98.5843 348.01 96.8535 345.899C96.1493 345.034 95.6893 344.086 95.4735 343.058C95.4196 342.68 95.3926 342.301 95.3926 341.922V321.791C95.3926 320.06 96.0684 318.531 97.4214 317.205C98.7731 315.879 100.478 315.054 102.536 314.729C103.023 314.675 103.509 314.648 103.996 314.648H126.239C126.78 314.648 127.294 314.677 127.781 314.729C129.783 315.054 131.461 315.879 132.814 317.205C134.166 318.531 134.843 320.06 134.843 321.791V330.641V330.641Z" fill="#A1A1A1"/>
<path d="M120.585 309.669H110.613V326.6H120.585V309.669Z" fill="#A1A1A1"/>
<path d="M120.585 360.693H110.613V376H120.585V360.693Z" fill="#A1A1A1"/>
<path d="M183.141 272.713H171.208V268.654H155.623V279.125H176.809C178.865 279.612 180.489 280.586 181.679 282.047C182.435 282.968 182.897 283.968 183.059 285.05C183.113 285.375 183.14 285.699 183.14 286.024V306.399C183.14 308.403 182.301 310.092 180.624 311.472C178.946 312.852 176.917 313.542 174.536 313.542H152.293C149.911 313.542 147.882 312.852 146.205 311.472C144.527 310.092 143.689 308.401 143.689 306.399V295.116H155.623V301.61H171.208V291.138H152.293C149.262 291.138 146.881 290.083 145.15 287.972C144.446 287.107 143.986 286.159 143.77 285.131C143.716 284.753 143.689 284.374 143.689 283.995V263.864C143.689 262.133 144.365 260.604 145.718 259.278C147.07 257.952 148.775 257.127 150.832 256.802C151.319 256.748 151.806 256.721 152.293 256.721H174.536C175.077 256.721 175.591 256.749 176.078 256.802C178.08 257.127 179.758 257.952 181.111 259.278C182.462 260.604 183.14 262.133 183.14 263.864V272.713H183.141Z" fill="#A1A1A1"/>
<path d="M168.827 251.742H158.854V268.673H168.827V251.742Z" fill="#A1A1A1"/>
<path d="M168.827 302.766H158.854V318.073H168.827V302.766Z" fill="#A1A1A1"/>
<path d="M178.663 340.193V350.979H168.62V361.02H157.836V350.979H148.167V340.193H157.836V330.524H168.62V340.193H178.663Z" fill="#A1A1A1"/>
<path d="M130.816 275.877V286.663H120.773V296.703H109.989V286.663H100.321V275.877H109.989V266.208H120.773V275.877H130.816Z" fill="#A1A1A1"/>
<path d="M36.4516 211.378H24.5183V207.319H8.9333V217.79H30.1193C32.1752 218.277 33.7994 219.251 34.9892 220.712C35.746 221.634 36.2074 222.633 36.3692 223.715C36.4232 224.04 36.4502 224.364 36.4502 224.689V245.064C36.4502 247.068 35.6111 248.757 33.9343 250.137C32.2561 251.517 30.2272 252.207 27.8463 252.207H5.60532C3.22292 252.207 1.19405 251.517 -0.48272 250.137C-2.16091 248.76 -3 247.069 -3 245.066V233.783H8.9333V240.277H24.5183V229.804H5.60532C2.57408 229.804 0.193098 228.75 -1.53762 226.638C-2.24183 225.774 -2.70184 224.825 -2.91765 223.797C-2.9716 223.42 -2.99858 223.041 -2.99858 222.662V202.53C-2.99858 200.8 -2.32276 199.271 -0.969706 197.945C0.38193 196.618 2.08709 195.794 4.14436 195.468C4.63135 195.414 5.11834 195.387 5.60532 195.387H27.8477C28.3886 195.387 28.9026 195.416 29.3896 195.468C31.3915 195.794 33.0697 196.618 34.4227 197.945C35.7743 199.271 36.4516 200.8 36.4516 202.53V211.378Z" fill="#A1A1A1"/>
<path d="M22.194 190.407H12.2214V207.338H22.194V190.407Z" fill="#A1A1A1"/>
<path d="M22.194 241.431H12.2214V256.738H22.194V241.431Z" fill="#A1A1A1"/>
<path d="M84.75 153.451H72.8167V149.392H57.2317V159.863H78.4177C80.4736 160.35 82.0978 161.324 83.2876 162.785C84.0443 163.707 84.5058 164.706 84.6676 165.788C84.7216 166.113 84.7485 166.437 84.7485 166.762V187.137C84.7485 189.141 83.9095 190.83 82.2327 192.21C80.5545 193.59 78.5256 194.28 76.1447 194.28H53.9037C51.5213 194.28 49.4924 193.59 47.8157 192.21C46.1375 190.83 45.2998 189.139 45.2998 187.137V175.854H57.2331V182.348H72.8167V171.876H53.9037C50.8725 171.876 48.4915 170.821 46.7608 168.71C46.0566 167.845 45.5965 166.897 45.3807 165.869C45.3268 165.491 45.2998 165.112 45.2998 164.733V144.602C45.2998 142.871 45.9756 141.342 47.3287 140.016C48.6803 138.69 50.3855 137.865 52.4427 137.54C52.9297 137.486 53.4167 137.459 53.9037 137.459H76.1461C76.687 137.459 77.201 137.487 77.688 137.54C79.6899 137.865 81.368 138.69 82.7211 140.016C84.0727 141.342 84.75 142.871 84.75 144.602V153.451V153.451Z" fill="#A1A1A1"/>
<path d="M70.4357 132.48H60.4631V149.411H70.4357V132.48Z" fill="#A1A1A1"/>
<path d="M70.4357 183.504H60.4631V198.811H70.4357V183.504Z" fill="#A1A1A1"/>
<path d="M80.272 220.931V231.717H70.2284V241.758H59.4451V231.717H49.7764V220.931H59.4451V211.262H70.2284V220.931H80.272Z" fill="#A1A1A1"/>
<path d="M32.425 156.615V167.401H22.3815V177.442H11.5982V167.401H1.92944V156.615H11.5982V146.946H22.3815V156.615H32.425Z" fill="#A1A1A1"/>
<path d="M134.843 211.379H122.909V207.319H107.324V217.79H128.511C130.566 218.277 132.191 219.251 133.38 220.712C134.137 221.634 134.599 222.633 134.76 223.715C134.814 224.04 134.841 224.364 134.841 224.689V245.064C134.841 247.068 134.002 248.757 132.325 250.137C130.647 251.517 128.618 252.207 126.237 252.207H103.996C101.614 252.207 99.5852 251.517 97.9084 250.137C96.2302 248.757 95.3926 247.066 95.3926 245.064V233.781H107.326V240.275H122.911V229.803H103.996C100.965 229.803 98.5843 228.748 96.8535 226.637C96.1493 225.772 95.6893 224.824 95.4735 223.796C95.4196 223.418 95.3926 223.039 95.3926 222.66V202.529C95.3926 200.798 96.0684 199.269 97.4214 197.943C98.7731 196.617 100.478 195.792 102.536 195.467C103.023 195.413 103.509 195.386 103.996 195.386H126.239C126.78 195.386 127.294 195.414 127.781 195.467C129.783 195.792 131.461 196.617 132.814 197.943C134.166 199.269 134.843 200.798 134.843 202.529V211.379V211.379Z" fill="#A1A1A1"/>
<path d="M120.585 190.407H110.613V207.338H120.585V190.407Z" fill="#A1A1A1"/>
<path d="M120.585 241.431H110.613V256.738H120.585V241.431Z" fill="#A1A1A1"/>
<path d="M183.141 153.451H171.208V149.392H155.623V159.863H176.809C178.865 160.35 180.489 161.324 181.679 162.785C182.435 163.707 182.897 164.706 183.059 165.788C183.113 166.113 183.14 166.437 183.14 166.762V187.137C183.14 189.141 182.301 190.83 180.624 192.21C178.946 193.59 176.917 194.28 174.536 194.28H152.293C149.911 194.28 147.882 193.59 146.205 192.21C144.527 190.83 143.689 189.139 143.689 187.137V175.854H155.623V182.348H171.208V171.876H152.293C149.262 171.876 146.881 170.821 145.15 168.71C144.446 167.845 143.986 166.897 143.77 165.869C143.716 165.491 143.689 165.112 143.689 164.733V144.602C143.689 142.871 144.365 141.342 145.718 140.016C147.07 138.69 148.775 137.865 150.832 137.54C151.319 137.486 151.806 137.459 152.293 137.459H174.536C175.077 137.459 175.591 137.487 176.078 137.54C178.08 137.865 179.758 138.69 181.111 140.016C182.462 141.342 183.14 142.871 183.14 144.602V153.451H183.141Z" fill="#A1A1A1"/>
<path d="M168.827 132.48H158.854V149.411H168.827V132.48Z" fill="#A1A1A1"/>
<path d="M168.827 183.504H158.854V198.811H168.827V183.504Z" fill="#A1A1A1"/>
<path d="M178.663 220.931V231.717H168.62V241.758H157.836V231.717H148.167V220.931H157.836V211.262H168.62V220.931H178.663Z" fill="#A1A1A1"/>
<path d="M130.816 156.615V167.401H120.773V177.442H109.989V167.401H100.321V156.615H109.989V146.946H120.773V156.615H130.816Z" fill="#A1A1A1"/>
<path d="M227.129 87.1473H215.196V83.0881H199.611V93.559H220.797C222.852 94.046 224.477 95.02 225.666 96.4809C226.423 97.4024 226.885 98.4019 227.046 99.4838C227.1 99.8089 227.127 100.133 227.127 100.458V120.833C227.127 122.836 226.288 124.526 224.612 125.906C222.933 127.286 220.904 127.976 218.524 127.976H196.283C193.9 127.976 191.871 127.286 190.195 125.906C188.516 124.529 187.677 122.838 187.677 120.835V109.551H199.611V116.046H215.196V105.573H196.283C193.251 105.573 190.87 104.518 189.14 102.407C188.435 101.542 187.975 100.594 187.76 99.5661C187.706 99.1885 187.679 98.8094 187.679 98.4303V78.2992C187.679 76.5684 188.354 75.0393 189.708 73.7132C191.059 72.3872 192.764 71.5623 194.822 71.2371C195.309 71.1832 195.796 71.1562 196.283 71.1562H218.525C219.066 71.1562 219.58 71.1846 220.067 71.2371C222.069 71.5623 223.747 72.3872 225.1 73.7132C226.452 75.0393 227.129 76.5684 227.129 78.2992V87.1473Z" fill="#A1A1A1"/>
<path d="M212.871 66.1756H202.899V83.1065H212.871V66.1756Z" fill="#A1A1A1"/>
<path d="M212.871 117.2H202.899V132.507H212.871V117.2Z" fill="#A1A1A1"/>
<path d="M275.427 29.22H263.494V25.1609H247.909V35.6318H269.095C271.151 36.1188 272.775 37.0927 273.965 38.5537C274.722 39.4751 275.183 40.4747 275.345 41.5565C275.399 41.8817 275.426 42.2054 275.426 42.5305V62.9059C275.426 64.9092 274.587 66.5987 272.91 67.9787C271.232 69.3588 269.203 70.0488 266.822 70.0488H244.581C242.199 70.0488 240.17 69.3588 238.493 67.9787C236.815 66.5987 235.977 64.9078 235.977 62.9059V51.6228H247.91V58.1169H263.494V47.6446H244.581C241.55 47.6446 239.169 46.5897 237.438 44.4785C236.734 43.6138 236.274 42.6654 236.058 41.6375C236.004 41.2598 235.977 40.8807 235.977 40.5016V20.3719C235.977 18.6412 236.653 17.1121 238.006 15.786C239.358 14.4599 241.063 13.635 243.12 13.3099C243.607 13.256 244.094 13.229 244.581 13.229H266.823C267.364 13.229 267.878 13.2574 268.365 13.3099C270.367 13.635 272.045 14.4599 273.398 15.786C274.75 17.1121 275.427 18.6412 275.427 20.3719V29.22V29.22Z" fill="#A1A1A1"/>
<path d="M261.113 8.24835H251.14V25.1793H261.113V8.24835Z" fill="#A1A1A1"/>
<path d="M261.113 59.2726H251.14V74.5793H261.113V59.2726Z" fill="#A1A1A1"/>
<path d="M270.949 96.6997V107.486H260.906V117.527H250.122V107.486H240.454V96.6997H250.122V87.031H260.906V96.6997H270.949Z" fill="#A1A1A1"/>
<path d="M223.102 32.3834V43.1695H213.059V53.2102H202.275V43.1695H192.607V32.3834H202.275V22.7147H213.059V32.3834H223.102Z" fill="#A1A1A1"/>
<path d="M325.52 87.1472H313.587V83.0881H298.002V93.559H319.188C321.244 94.046 322.868 95.0199 324.058 96.4809C324.814 97.4023 325.276 98.4019 325.438 99.4837C325.492 99.8089 325.519 100.133 325.519 100.458V120.833C325.519 122.836 324.679 124.526 323.003 125.906C321.325 127.286 319.296 127.976 316.915 127.976H294.674C292.291 127.976 290.262 127.286 288.586 125.906C286.907 124.526 286.07 122.835 286.07 120.833V109.55H298.003V116.044H313.588V105.572H294.674C291.642 105.572 289.261 104.517 287.531 102.406C286.827 101.541 286.367 100.593 286.151 99.5647C286.097 99.187 286.07 98.8079 286.07 98.4289V78.2977C286.07 76.567 286.746 75.0379 288.099 73.7118C289.45 72.3857 291.155 71.5608 293.213 71.2357C293.7 71.1817 294.187 71.1548 294.674 71.1548H316.916C317.457 71.1548 317.971 71.1832 318.458 71.2357C320.46 71.5608 322.138 72.3857 323.491 73.7118C324.843 75.0379 325.52 76.567 325.52 78.2977V87.1472V87.1472Z" fill="#A1A1A1"/>
<path d="M311.262 66.1756H301.29V83.1065H311.262V66.1756Z" fill="#A1A1A1"/>
<path d="M311.262 117.2H301.29V132.507H311.262V117.2Z" fill="#A1A1A1"/>
<path d="M373.818 29.22H361.885V25.1609H346.3V35.6318H367.486C369.542 36.1188 371.166 37.0927 372.356 38.5537C373.113 39.4751 373.574 40.4747 373.736 41.5565C373.79 41.8817 373.817 42.2054 373.817 42.5305V62.9059C373.817 64.9092 372.978 66.5987 371.301 67.9787C369.623 69.3588 367.594 70.0488 365.213 70.0488H342.971C340.588 70.0488 338.559 69.3588 336.883 67.9787C335.204 66.5987 334.367 64.9078 334.367 62.9059V51.6228H346.3V58.1169H361.885V47.6446H342.971C339.939 47.6446 337.558 46.5897 335.828 44.4785C335.124 43.6138 334.664 42.6654 334.448 41.6375C334.394 41.2598 334.367 40.8807 334.367 40.5016V20.3719C334.367 18.6412 335.043 17.1121 336.396 15.786C337.747 14.4599 339.452 13.635 341.51 13.3099C341.997 13.256 342.484 13.229 342.971 13.229H365.213C365.754 13.229 366.268 13.2574 366.755 13.3099C368.757 13.635 370.435 14.4599 371.788 15.786C373.14 17.1121 373.817 18.6412 373.817 20.3719V29.22H373.818Z" fill="#A1A1A1"/>
<path d="M359.504 8.24835H349.531V25.1793H359.504V8.24835Z" fill="#A1A1A1"/>
<path d="M359.504 59.2726H349.531V74.5793H359.504V59.2726Z" fill="#A1A1A1"/>
<path d="M369.34 96.6997V107.486H359.297V117.527H348.513V107.486H338.845V96.6997H348.513V87.031H359.297V96.6997H369.34Z" fill="#A1A1A1"/>
<path d="M321.494 32.3834V43.1695H311.45V53.2102H300.667V43.1695H290.998V32.3834H300.667V22.7147H311.45V32.3834H321.494Z" fill="#A1A1A1"/>
<path d="M227.129 -32.1145H215.196V-36.1737H199.611V-25.7028H220.797C222.852 -25.2158 224.477 -24.2418 225.666 -22.7809C226.423 -21.8594 226.885 -20.8599 227.046 -19.778C227.1 -19.4529 227.127 -19.1292 227.127 -18.804V1.57131C227.127 3.57463 226.288 5.26418 224.612 6.64421C222.933 8.02424 220.904 8.71426 218.524 8.71426H196.283C193.9 8.71426 191.871 8.02424 190.195 6.64421C188.516 5.26702 187.677 3.57605 187.677 1.57273V-9.7103H199.611V-3.2162H215.196V-13.6871H196.283C193.251 -13.6871 190.87 -14.742 189.14 -16.8532C188.435 -17.7179 187.975 -18.6663 187.76 -19.6942C187.706 -20.0719 187.679 -20.451 187.679 -20.8301V-40.9626C187.679 -42.6933 188.354 -44.2225 189.708 -45.5485C191.059 -46.8746 192.764 -47.6995 194.822 -48.0246C195.309 -48.0786 195.796 -48.1056 196.283 -48.1056H218.525C219.066 -48.1056 219.58 -48.0772 220.067 -48.0246C222.069 -47.6995 223.747 -46.8746 225.1 -45.5485C226.452 -44.2225 227.129 -42.6933 227.129 -40.9626V-32.1145Z" fill="#A1A1A1"/>
<path d="M212.871 -2.06195H202.899V13.2448H212.871V-2.06195Z" fill="#A1A1A1"/>
<path d="M325.52 -32.1145H313.587V-36.1737H298.002V-25.7028H319.188C321.244 -25.2158 322.868 -24.2418 324.058 -22.7809C324.814 -21.8594 325.276 -20.8599 325.438 -19.778C325.492 -19.4529 325.519 -19.1292 325.519 -18.804V1.57131C325.519 3.57463 324.679 5.26418 323.003 6.64421C321.324 8.02424 319.296 8.71426 316.915 8.71426H294.674C292.291 8.71426 290.262 8.02424 288.586 6.64421C286.907 5.26702 286.068 3.57605 286.068 1.57273V-9.7103H298.002V-3.2162H313.587V-13.6871H294.674C291.642 -13.6871 289.261 -14.742 287.531 -16.8532C286.827 -17.7179 286.367 -18.6663 286.151 -19.6942C286.097 -20.0719 286.07 -20.451 286.07 -20.8301V-40.9626C286.07 -42.6933 286.746 -44.2225 288.099 -45.5485C289.45 -46.8746 291.155 -47.6995 293.213 -48.0246C293.7 -48.0786 294.187 -48.1056 294.674 -48.1056H316.916C317.457 -48.1056 317.971 -48.0772 318.458 -48.0246C320.46 -47.6995 322.138 -46.8746 323.491 -45.5485C324.843 -44.2225 325.52 -42.6933 325.52 -40.9626V-32.1145V-32.1145Z" fill="#A1A1A1"/>
<path d="M311.262 -2.06195H301.29V13.2448H311.262V-2.06195Z" fill="#A1A1A1"/>
<path d="M227.129 330.641H215.196V326.581H199.611V337.052H220.797C222.852 337.539 224.477 338.513 225.666 339.974C226.423 340.896 226.885 341.895 227.046 342.977C227.1 343.302 227.127 343.626 227.127 343.951V364.326C227.127 366.33 226.288 368.019 224.612 369.399C222.933 370.779 220.904 371.469 218.524 371.469H196.283C193.9 371.469 191.871 370.779 190.195 369.399C188.516 368.022 187.677 366.331 187.677 364.328V353.045H199.611V359.539H215.196V349.067H196.283C193.251 349.067 190.87 348.012 189.14 345.901C188.435 345.036 187.975 344.087 187.76 343.06C187.706 342.682 187.679 342.303 187.679 341.924V321.793C187.679 320.062 188.354 318.533 189.708 317.207C191.059 315.881 192.764 315.056 194.822 314.731C195.309 314.677 195.796 314.65 196.283 314.65H218.525C219.066 314.65 219.58 314.678 220.067 314.731C222.069 315.056 223.747 315.881 225.1 317.207C226.452 318.533 227.129 320.062 227.129 321.793V330.641Z" fill="#A1A1A1"/>
<path d="M212.871 309.669H202.899V326.6H212.871V309.669Z" fill="#A1A1A1"/>
<path d="M212.871 360.693H202.899V376H212.871V360.693Z" fill="#A1A1A1"/>
<path d="M275.427 272.713H263.494V268.654H247.909V279.125H269.095C271.151 279.612 272.775 280.586 273.965 282.047C274.722 282.968 275.183 283.968 275.345 285.05C275.399 285.375 275.426 285.699 275.426 286.024V306.399C275.426 308.403 274.587 310.092 272.91 311.472C271.232 312.852 269.203 313.542 266.822 313.542H244.581C242.199 313.542 240.17 312.852 238.493 311.472C236.815 310.092 235.977 308.401 235.977 306.399V295.116H247.91V301.61H263.494V291.138H244.581C241.55 291.138 239.169 290.083 237.438 287.972C236.734 287.107 236.274 286.159 236.058 285.131C236.004 284.753 235.977 284.374 235.977 283.995V263.864C235.977 262.133 236.653 260.604 238.006 259.278C239.358 257.952 241.063 257.127 243.12 256.802C243.607 256.748 244.094 256.721 244.581 256.721H266.823C267.364 256.721 267.878 256.749 268.365 256.802C270.367 257.127 272.045 257.952 273.398 259.278C274.75 260.604 275.427 262.133 275.427 263.864V272.713V272.713Z" fill="#A1A1A1"/>
<path d="M261.113 251.742H251.14V268.673H261.113V251.742Z" fill="#A1A1A1"/>
<path d="M261.113 302.766H251.14V318.073H261.113V302.766Z" fill="#A1A1A1"/>
<path d="M270.949 340.193V350.979H260.906V361.02H250.122V350.979H240.454V340.193H250.122V330.524H260.906V340.193H270.949Z" fill="#A1A1A1"/>
<path d="M223.102 275.877V286.663H213.059V296.703H202.275V286.663H192.607V275.877H202.275V266.208H213.059V275.877H223.102Z" fill="#A1A1A1"/>
<path d="M325.52 330.641H313.587V326.582H298.002V337.052H319.188C321.244 337.539 322.868 338.513 324.058 339.974C324.814 340.896 325.276 341.895 325.438 342.977C325.492 343.302 325.519 343.626 325.519 343.951V364.327C325.519 366.33 324.679 368.019 323.003 369.399C321.325 370.779 319.296 371.469 316.915 371.469H294.674C292.291 371.469 290.262 370.779 288.586 369.399C286.907 368.019 286.07 366.328 286.07 364.327V353.043H298.003V359.538H313.588V349.065H294.674C291.642 349.065 289.261 348.01 287.531 345.899C286.827 345.034 286.367 344.086 286.151 343.058C286.097 342.68 286.07 342.301 286.07 341.922V321.791C286.07 320.06 286.746 318.531 288.099 317.205C289.45 315.879 291.155 315.054 293.213 314.729C293.7 314.675 294.187 314.648 294.674 314.648H316.916C317.457 314.648 317.971 314.677 318.458 314.729C320.46 315.054 322.138 315.879 323.491 317.205C324.843 318.531 325.52 320.06 325.52 321.791V330.641V330.641Z" fill="#A1A1A1"/>
<path d="M311.262 309.669H301.29V326.6H311.262V309.669Z" fill="#A1A1A1"/>
<path d="M311.262 360.693H301.29V376H311.262V360.693Z" fill="#A1A1A1"/>
<path d="M373.818 272.713H361.885V268.654H346.3V279.125H367.486C369.542 279.612 371.166 280.586 372.356 282.047C373.113 282.968 373.574 283.968 373.736 285.05C373.79 285.375 373.817 285.699 373.817 286.024V306.399C373.817 308.403 372.978 310.092 371.301 311.472C369.623 312.852 367.594 313.542 365.213 313.542H342.971C340.588 313.542 338.559 312.852 336.883 311.472C335.204 310.092 334.367 308.401 334.367 306.399V295.116H346.3V301.61H361.885V291.138H342.971C339.939 291.138 337.558 290.083 335.828 287.972C335.123 287.107 334.663 286.159 334.448 285.131C334.394 284.753 334.367 284.374 334.367 283.995V263.864C334.367 262.133 335.043 260.604 336.396 259.278C337.747 257.952 339.452 257.127 341.51 256.802C341.997 256.748 342.484 256.721 342.971 256.721H365.213C365.754 256.721 366.268 256.749 366.755 256.802C368.757 257.127 370.435 257.952 371.788 259.278C373.14 260.604 373.817 262.133 373.817 263.864V272.713H373.818Z" fill="#A1A1A1"/>
<path d="M359.504 251.742H349.531V268.673H359.504V251.742Z" fill="#A1A1A1"/>
<path d="M359.504 302.766H349.531V318.073H359.504V302.766Z" fill="#A1A1A1"/>
<path d="M369.34 340.193V350.979H359.297V361.02H348.513V350.979H338.845V340.193H348.513V330.524H359.297V340.193H369.34Z" fill="#A1A1A1"/>
<path d="M321.494 275.877V286.663H311.45V296.703H300.667V286.663H290.998V275.877H300.667V266.208H311.45V275.877H321.494Z" fill="#A1A1A1"/>
<path d="M227.129 211.378H215.196V207.319H199.611V217.79H220.797C222.852 218.277 224.477 219.251 225.666 220.712C226.423 221.634 226.885 222.633 227.046 223.715C227.1 224.04 227.127 224.364 227.127 224.689V245.064C227.127 247.068 226.288 248.757 224.612 250.137C222.933 251.517 220.904 252.207 218.524 252.207H196.283C193.9 252.207 191.871 251.517 190.195 250.137C188.516 248.76 187.677 247.069 187.677 245.066V233.783H199.611V240.277H215.196V229.804H196.283C193.251 229.804 190.87 228.75 189.14 226.638C188.435 225.774 187.975 224.825 187.76 223.797C187.706 223.42 187.679 223.041 187.679 222.662V202.53C187.679 200.8 188.354 199.271 189.708 197.945C191.059 196.618 192.764 195.794 194.822 195.468C195.309 195.414 195.796 195.387 196.283 195.387H218.525C219.066 195.387 219.58 195.416 220.067 195.468C222.069 195.794 223.747 196.618 225.1 197.945C226.452 199.271 227.129 200.8 227.129 202.53V211.378Z" fill="#A1A1A1"/>
<path d="M212.871 190.407H202.899V207.338H212.871V190.407Z" fill="#A1A1A1"/>
<path d="M212.871 241.431H202.899V256.738H212.871V241.431Z" fill="#A1A1A1"/>
<path d="M275.427 153.451H263.494V149.392H247.909V159.863H269.095C271.151 160.35 272.775 161.324 273.965 162.785C274.722 163.707 275.183 164.706 275.345 165.788C275.399 166.113 275.426 166.437 275.426 166.762V187.137C275.426 189.141 274.587 190.83 272.91 192.21C271.232 193.59 269.203 194.28 266.822 194.28H244.581C242.199 194.28 240.17 193.59 238.493 192.21C236.815 190.83 235.977 189.139 235.977 187.137V175.854H247.91V182.348H263.494V171.876H244.581C241.55 171.876 239.169 170.821 237.438 168.71C236.734 167.845 236.274 166.897 236.058 165.869C236.004 165.491 235.977 165.112 235.977 164.733V144.602C235.977 142.871 236.653 141.342 238.006 140.016C239.358 138.69 241.063 137.865 243.12 137.54C243.607 137.486 244.094 137.459 244.581 137.459H266.823C267.364 137.459 267.878 137.487 268.365 137.54C270.367 137.865 272.045 138.69 273.398 140.016C274.75 141.342 275.427 142.871 275.427 144.602V153.451V153.451Z" fill="#A1A1A1"/>
<path d="M261.113 132.48H251.14V149.411H261.113V132.48Z" fill="#A1A1A1"/>
<path d="M261.113 183.504H251.14V198.811H261.113V183.504Z" fill="#A1A1A1"/>
<path d="M270.949 220.931V231.717H260.906V241.758H250.122V231.717H240.454V220.931H250.122V211.262H260.906V220.931H270.949Z" fill="#A1A1A1"/>
<path d="M223.102 156.615V167.401H213.059V177.442H202.275V167.401H192.607V156.615H202.275V146.946H213.059V156.615H223.102Z" fill="#A1A1A1"/>
<path d="M325.52 211.379H313.587V207.319H298.002V217.79H319.188C321.244 218.277 322.868 219.251 324.058 220.712C324.814 221.634 325.276 222.633 325.438 223.715C325.492 224.04 325.519 224.364 325.519 224.689V245.064C325.519 247.068 324.679 248.757 323.003 250.137C321.325 251.517 319.296 252.207 316.915 252.207H294.674C292.291 252.207 290.262 251.517 288.586 250.137C286.907 248.757 286.07 247.066 286.07 245.064V233.781H298.003V240.275H313.588V229.803H294.674C291.642 229.803 289.261 228.748 287.531 226.637C286.827 225.772 286.367 224.824 286.151 223.796C286.097 223.418 286.07 223.039 286.07 222.66V202.529C286.07 200.798 286.746 199.269 288.099 197.943C289.45 196.617 291.155 195.792 293.213 195.467C293.7 195.413 294.187 195.386 294.674 195.386H316.916C317.457 195.386 317.971 195.414 318.458 195.467C320.46 195.792 322.138 196.617 323.491 197.943C324.843 199.269 325.52 200.798 325.52 202.529V211.379V211.379Z" fill="#A1A1A1"/>
<path d="M311.262 190.407H301.29V207.338H311.262V190.407Z" fill="#A1A1A1"/>
<path d="M311.262 241.431H301.29V256.738H311.262V241.431Z" fill="#A1A1A1"/>
<path d="M373.818 153.451H361.885V149.392H346.3V159.863H367.486C369.542 160.35 371.166 161.324 372.356 162.785C373.113 163.707 373.574 164.706 373.736 165.788C373.79 166.113 373.817 166.437 373.817 166.762V187.137C373.817 189.141 372.978 190.83 371.301 192.21C369.623 193.59 367.594 194.28 365.213 194.28H342.971C340.588 194.28 338.559 193.59 336.883 192.21C335.204 190.83 334.367 189.139 334.367 187.137V175.854H346.3V182.348H361.885V171.876H342.971C339.939 171.876 337.558 170.821 335.828 168.71C335.124 167.845 334.664 166.897 334.448 165.869C334.394 165.491 334.367 165.112 334.367 164.733V144.602C334.367 142.871 335.043 141.342 336.396 140.016C337.747 138.69 339.452 137.865 341.51 137.54C341.997 137.486 342.484 137.459 342.971 137.459H365.213C365.754 137.459 366.268 137.487 366.755 137.54C368.757 137.865 370.435 138.69 371.788 140.016C373.14 141.342 373.817 142.871 373.817 144.602V153.451H373.818Z" fill="#A1A1A1"/>
<path d="M359.504 132.48H349.531V149.411H359.504V132.48Z" fill="#A1A1A1"/>
<path d="M359.504 183.504H349.531V198.811H359.504V183.504Z" fill="#A1A1A1"/>
<path d="M369.34 220.931V231.717H359.297V241.758H348.513V231.717H338.845V220.931H348.513V211.262H359.297V220.931H369.34Z" fill="#A1A1A1"/>
<path d="M321.494 156.615V167.401H311.45V177.442H300.667V167.401H290.998V156.615H300.667V146.946H311.45V156.615H321.494Z" fill="#A1A1A1"/>
<path d="M36.4516 569.161H24.5183V565.102H8.9333V575.573H30.1193C32.1752 576.06 33.7994 577.034 34.9892 578.495C35.746 579.416 36.2074 580.416 36.3692 581.497C36.4232 581.823 36.4502 582.146 36.4502 582.471V602.847C36.4502 604.85 35.6111 606.54 33.9343 607.92C32.2561 609.3 30.2272 609.99 27.8463 609.99H5.60532C3.22292 609.99 1.19405 609.3 -0.48272 607.92C-2.16091 606.543 -3 604.852 -3 602.848V591.565H8.9333V598.059H24.5183V587.587H5.60532C2.57408 587.587 0.193098 586.532 -1.53762 584.421C-2.24183 583.556 -2.70184 582.608 -2.91765 581.58C-2.9716 581.202 -2.99858 580.823 -2.99858 580.444V560.313C-2.99858 558.582 -2.32276 557.053 -0.969706 555.727C0.38193 554.401 2.08709 553.576 4.14436 553.251C4.63135 553.197 5.11834 553.17 5.60532 553.17H27.8477C28.3886 553.17 28.9026 553.198 29.3896 553.251C31.3915 553.576 33.0697 554.401 34.4227 555.727C35.7743 557.053 36.4516 558.582 36.4516 560.313V569.161Z" fill="#A1A1A1"/>
<path d="M22.194 548.189H12.2214V565.12H22.194V548.189Z" fill="#A1A1A1"/>
<path d="M22.194 599.214H12.2214V614.52H22.194V599.214Z" fill="#A1A1A1"/>
<path d="M84.75 511.234H72.8167V507.175H57.2317V517.645H78.4177C80.4736 518.132 82.0978 519.106 83.2876 520.567C84.0443 521.489 84.5058 522.488 84.6676 523.57C84.7216 523.895 84.7485 524.219 84.7485 524.544V544.92C84.7485 546.923 83.9095 548.612 82.2327 549.992C80.5545 551.372 78.5256 552.063 76.1447 552.063H53.9037C51.5213 552.063 49.4924 551.372 47.8157 549.992C46.1375 548.612 45.2998 546.921 45.2998 544.92V533.637H57.2331V540.131H72.8167V529.658H53.9037C50.8725 529.658 48.4915 528.603 46.7608 526.492C46.0566 525.628 45.5965 524.679 45.3807 523.651C45.3268 523.274 45.2998 522.894 45.2998 522.515V502.386C45.2998 500.655 45.9756 499.126 47.3287 497.8C48.6803 496.474 50.3855 495.649 52.4427 495.324C52.9297 495.27 53.4167 495.243 53.9037 495.243H76.1461C76.687 495.243 77.201 495.271 77.688 495.324C79.6899 495.649 81.368 496.474 82.7211 497.8C84.0727 499.126 84.75 500.655 84.75 502.386V511.234V511.234Z" fill="#A1A1A1"/>
<path d="M70.4357 490.262H60.4631V507.193H70.4357V490.262Z" fill="#A1A1A1"/>
<path d="M70.4357 541.286H60.4631V556.593H70.4357V541.286Z" fill="#A1A1A1"/>
<path d="M80.272 578.713V589.499H70.2284V599.54H59.4451V589.499H49.7764V578.713H59.4451V569.045H70.2284V578.713H80.272Z" fill="#A1A1A1"/>
<path d="M32.425 514.397V525.183H22.3815V535.224H11.5982V525.183H1.92944V514.397H11.5982V504.728H22.3815V514.397H32.425Z" fill="#A1A1A1"/>
<path d="M134.843 569.161H122.909V565.102H107.324V575.573H128.511C130.566 576.06 132.191 577.034 133.38 578.495C134.137 579.416 134.599 580.416 134.76 581.497C134.814 581.823 134.841 582.146 134.841 582.471V602.847C134.841 604.85 134.002 606.54 132.325 607.92C130.647 609.3 128.618 609.99 126.237 609.99H103.996C101.614 609.99 99.5852 609.3 97.9084 607.92C96.2302 606.54 95.3926 604.849 95.3926 602.847V591.564H107.326V598.058H122.911V587.585H103.996C100.965 587.585 98.5843 586.531 96.8535 584.419C96.1493 583.555 95.6893 582.606 95.4735 581.578C95.4196 581.201 95.3926 580.822 95.3926 580.443V560.311C95.3926 558.581 96.0684 557.052 97.4214 555.725C98.7731 554.399 100.478 553.575 102.536 553.249C103.023 553.195 103.509 553.168 103.996 553.168H126.239C126.78 553.168 127.294 553.197 127.781 553.249C129.783 553.575 131.461 554.399 132.814 555.725C134.166 557.052 134.843 558.581 134.843 560.311V569.161V569.161Z" fill="#A1A1A1"/>
<path d="M120.585 548.189H110.613V565.12H120.585V548.189Z" fill="#A1A1A1"/>
<path d="M120.585 599.214H110.613V614.52H120.585V599.214Z" fill="#A1A1A1"/>
<path d="M183.141 511.234H171.208V507.175H155.623V517.645H176.809C178.865 518.132 180.489 519.106 181.679 520.567C182.435 521.489 182.897 522.488 183.059 523.57C183.113 523.895 183.14 524.219 183.14 524.544V544.92C183.14 546.923 182.301 548.612 180.624 549.992C178.946 551.372 176.917 552.063 174.536 552.063H152.293C149.911 552.063 147.882 551.372 146.205 549.992C144.527 548.612 143.689 546.921 143.689 544.92V533.637H155.623V540.131H171.208V529.658H152.293C149.262 529.658 146.881 528.603 145.15 526.492C144.446 525.628 143.986 524.679 143.77 523.651C143.716 523.274 143.689 522.894 143.689 522.515V502.386C143.689 500.655 144.365 499.126 145.718 497.8C147.07 496.474 148.775 495.649 150.832 495.324C151.319 495.27 151.806 495.243 152.293 495.243H174.536C175.077 495.243 175.591 495.271 176.078 495.324C178.08 495.649 179.758 496.474 181.111 497.8C182.462 499.126 183.14 500.655 183.14 502.386V511.234H183.141Z" fill="#A1A1A1"/>
<path d="M168.827 490.262H158.854V507.193H168.827V490.262Z" fill="#A1A1A1"/>
<path d="M168.827 541.286H158.854V556.593H168.827V541.286Z" fill="#A1A1A1"/>
<path d="M178.663 578.713V589.499H168.62V599.54H157.836V589.499H148.167V578.713H157.836V569.045H168.62V578.713H178.663Z" fill="#A1A1A1"/>
<path d="M130.816 514.397V525.183H120.773V535.224H109.989V525.183H100.321V514.397H109.989V504.728H120.773V514.397H130.816Z" fill="#A1A1A1"/>
<path d="M36.4516 449.899H24.5183V445.84H8.9333V456.311H30.1193C32.1752 456.798 33.7994 457.772 34.9892 459.233C35.746 460.154 36.2074 461.154 36.3692 462.235C36.4232 462.561 36.4502 462.884 36.4502 463.209V483.585C36.4502 485.588 35.6111 487.278 33.9343 488.658C32.2561 490.038 30.2272 490.728 27.8463 490.728H5.60532C3.22292 490.728 1.19405 490.038 -0.48272 488.658C-2.16091 487.28 -3 485.589 -3 483.586V472.303H8.9333V478.797H24.5183V468.326H5.60532C2.57408 468.326 0.193098 467.271 -1.53762 465.16C-2.24183 464.296 -2.70184 463.347 -2.91765 462.319C-2.9716 461.942 -2.99858 461.562 -2.99858 461.183V441.051C-2.99858 439.32 -2.32276 437.791 -0.969706 436.465C0.38193 435.139 2.08709 434.314 4.14436 433.989C4.63135 433.935 5.11834 433.908 5.60532 433.908H27.8477C28.3886 433.908 28.9026 433.936 29.3896 433.989C31.3915 434.314 33.0697 435.139 34.4227 436.465C35.7743 437.791 36.4516 439.32 36.4516 441.051V449.899Z" fill="#A1A1A1"/>
<path d="M22.194 428.927H12.2214V445.858H22.194V428.927Z" fill="#A1A1A1"/>
<path d="M22.194 479.952H12.2214V495.258H22.194V479.952Z" fill="#A1A1A1"/>
<path d="M84.75 391.972H72.8167V387.913H57.2317V398.383H78.4177C80.4736 398.87 82.0978 399.844 83.2876 401.305C84.0443 402.227 84.5058 403.226 84.6676 404.308C84.7216 404.633 84.7485 404.957 84.7485 405.282V425.658C84.7485 427.661 83.9095 429.35 82.2327 430.73C80.5545 432.11 78.5256 432.8 76.1447 432.8H53.9037C51.5213 432.8 49.4924 432.11 47.8157 430.73C46.1375 429.35 45.2998 427.659 45.2998 425.658V414.374H57.2331V420.869H72.8167V410.399H53.9037C50.8725 410.399 48.4915 409.344 46.7608 407.233C46.0566 406.368 45.5965 405.42 45.3807 404.392C45.3268 404.014 45.2998 403.635 45.2998 403.256V383.124C45.2998 381.393 45.9756 379.864 47.3287 378.538C48.6803 377.212 50.3841 376.387 52.4413 376.062C52.9283 376.008 53.4153 375.981 53.9023 375.981H76.1447C76.6856 375.981 77.1995 376.009 77.6865 376.062C79.6884 376.387 81.3666 377.212 82.7197 378.538C84.0713 379.864 84.7485 381.393 84.7485 383.124V391.972H84.75Z" fill="#A1A1A1"/>
<path d="M70.4357 371H60.4631V387.931H70.4357V371Z" fill="#A1A1A1"/>
<path d="M70.4357 422.024H60.4631V437.331H70.4357V422.024Z" fill="#A1A1A1"/>
<path d="M80.272 459.451V470.237H70.2284V480.278H59.4451V470.237H49.7764V459.451H59.4451V449.783H70.2284V459.451H80.272Z" fill="#A1A1A1"/>
<path d="M32.425 395.135V405.921H22.3815V415.962H11.5982V405.921H1.92944V395.135H11.5982V385.466H22.3815V395.135H32.425Z" fill="#A1A1A1"/>
<path d="M134.843 449.899H122.909V445.84H107.324V456.311H128.51C130.566 456.798 132.191 457.772 133.38 459.233C134.137 460.154 134.598 461.154 134.76 462.235C134.814 462.561 134.841 462.884 134.841 463.209V483.585C134.841 485.588 134.002 487.278 132.325 488.658C130.647 490.038 128.618 490.728 126.237 490.728H103.996C101.614 490.728 99.5852 490.038 97.9084 488.658C96.2302 487.28 95.3911 485.589 95.3911 483.586V472.303H107.324V478.797H122.909V468.326H103.996C100.965 468.326 98.5842 467.271 96.8535 465.16C96.1493 464.296 95.6893 463.347 95.4735 462.319C95.4195 461.942 95.3925 461.562 95.3925 461.183V441.051C95.3925 439.32 96.0683 437.791 97.4214 436.465C98.773 435.139 100.478 434.314 102.535 433.989C103.022 433.935 103.509 433.908 103.996 433.908H126.239C126.78 433.908 127.294 433.936 127.781 433.989C129.783 434.314 131.461 435.139 132.814 436.465C134.165 437.791 134.843 439.32 134.843 441.051V449.899V449.899Z" fill="#A1A1A1"/>
<path d="M120.585 428.927H110.613V445.858H120.585V428.927Z" fill="#A1A1A1"/>
<path d="M120.585 479.952H110.613V495.258H120.585V479.952Z" fill="#A1A1A1"/>
<path d="M183.141 391.972H171.208V387.913H155.623V398.383H176.809C178.865 398.87 180.489 399.844 181.679 401.305C182.435 402.227 182.897 403.226 183.059 404.308C183.113 404.633 183.14 404.957 183.14 405.282V425.658C183.14 427.661 182.301 429.35 180.624 430.73C178.946 432.11 176.917 432.8 174.536 432.8H152.293C149.911 432.8 147.882 432.11 146.205 430.73C144.527 429.35 143.689 427.659 143.689 425.658V414.374H155.623V420.869H171.208V410.399H152.293C149.262 410.399 146.881 409.344 145.15 407.233C144.446 406.368 143.986 405.42 143.77 404.392C143.716 404.014 143.689 403.635 143.689 403.256V383.124C143.689 381.393 144.365 379.864 145.718 378.538C147.07 377.212 148.775 376.387 150.832 376.062C151.319 376.008 151.806 375.981 152.293 375.981H174.536C175.077 375.981 175.591 376.009 176.078 376.062C178.08 376.387 179.758 377.212 181.111 378.538C182.462 379.864 183.14 381.393 183.14 383.124V391.972H183.141Z" fill="#A1A1A1"/>
<path d="M168.827 371H158.854V387.931H168.827V371Z" fill="#A1A1A1"/>
<path d="M168.827 422.024H158.854V437.331H168.827V422.024Z" fill="#A1A1A1"/>
<path d="M178.663 459.451V470.237H168.62V480.278H157.836V470.237H148.167V459.451H157.836V449.783H168.62V459.451H178.663Z" fill="#A1A1A1"/>
<path d="M130.816 395.135V405.921H120.773V415.962H109.989V405.921H100.321V395.135H109.989V385.466H120.773V395.135H130.816Z" fill="#A1A1A1"/>
<path d="M36.4516 812.654H24.5183V808.595H8.9333V819.066H30.1193C32.1752 819.553 33.7994 820.527 34.9892 821.988C35.746 822.909 36.2074 823.909 36.3692 824.991C36.4232 825.316 36.4502 825.64 36.4502 825.965V846.34C36.4502 848.343 35.6111 850.033 33.9343 851.413C32.2561 852.793 30.2272 853.483 27.8463 853.483H5.60532C3.22292 853.483 1.19405 852.793 -0.48272 851.413C-2.16091 850.036 -3 848.345 -3 846.342V835.058H8.9333V841.553H24.5183V831.08H5.60532C2.57408 831.08 0.193098 830.025 -1.53762 827.914C-2.24183 827.049 -2.70184 826.101 -2.91765 825.073C-2.9716 824.695 -2.99858 824.316 -2.99858 823.937V803.806C-2.99858 802.075 -2.32276 800.546 -0.969706 799.22C0.38193 797.894 2.08709 797.069 4.14436 796.744C4.63135 796.69 5.11834 796.663 5.60532 796.663H27.8477C28.3886 796.663 28.9026 796.692 29.3896 796.744C31.3915 797.069 33.0697 797.894 34.4227 799.22C35.7743 800.546 36.4516 802.075 36.4516 803.806V812.654Z" fill="#A1A1A1"/>
<path d="M22.194 791.683H12.2214V808.614H22.194V791.683Z" fill="#A1A1A1"/>
<path d="M84.75 754.727H72.8167V750.668H57.2317V761.139H78.4177C80.4736 761.626 82.0978 762.6 83.2876 764.061C84.0443 764.982 84.5058 765.982 84.6676 767.064C84.7216 767.389 84.7485 767.712 84.7485 768.038V788.413C84.7485 790.416 83.9095 792.106 82.2327 793.486C80.5545 794.866 78.5256 795.556 76.1447 795.556H53.9037C51.5213 795.556 49.4924 794.866 47.8157 793.486C46.1375 792.106 45.2998 790.415 45.2998 788.413V777.13H57.2331V783.624H72.8167V773.152H53.9037C50.8725 773.152 48.4915 772.097 46.7608 769.985C46.0566 769.121 45.5965 768.172 45.3807 767.144C45.3268 766.767 45.2998 766.388 45.2998 766.009V745.877C45.2998 744.147 45.9756 742.618 47.3287 741.292C48.6803 739.966 50.3855 739.141 52.4427 738.815C52.9297 738.762 53.4167 738.735 53.9037 738.735H76.1461C76.687 738.735 77.201 738.763 77.688 738.815C79.6899 739.141 81.368 739.966 82.7211 741.292C84.0727 742.618 84.75 744.147 84.75 745.877V754.727V754.727Z" fill="#A1A1A1"/>
<path d="M70.4357 733.755H60.4631V750.686H70.4357V733.755Z" fill="#A1A1A1"/>
<path d="M70.4357 784.78H60.4631V800.086H70.4357V784.78Z" fill="#A1A1A1"/>
<path d="M32.425 757.89V768.676H22.3815V778.717H11.5982V768.676H1.92944V757.89H11.5982V748.221H22.3815V757.89H32.425Z" fill="#A1A1A1"/>
<path d="M134.843 812.654H122.909V808.595H107.324V819.066H128.511C130.566 819.553 132.191 820.527 133.38 821.988C134.137 822.909 134.599 823.909 134.76 824.991C134.814 825.316 134.841 825.64 134.841 825.965V846.34C134.841 848.343 134.002 850.033 132.325 851.413C130.647 852.793 128.618 853.483 126.237 853.483H103.996C101.614 853.483 99.5852 852.793 97.9084 851.413C96.2302 850.033 95.3926 848.342 95.3926 846.34V835.057H107.326V841.551H122.911V831.079H103.996C100.965 831.079 98.5843 830.024 96.8535 827.913C96.1493 827.048 95.6893 826.1 95.4735 825.072C95.4196 824.694 95.3926 824.315 95.3926 823.936V803.805C95.3926 802.074 96.0684 800.545 97.4214 799.219C98.7731 797.893 100.478 797.068 102.536 796.743C103.023 796.689 103.509 796.662 103.996 796.662H126.239C126.78 796.662 127.294 796.69 127.781 796.743C129.783 797.068 131.461 797.893 132.814 799.219C134.166 800.545 134.843 802.074 134.843 803.805V812.654V812.654Z" fill="#A1A1A1"/>
<path d="M120.585 791.683H110.613V808.614H120.585V791.683Z" fill="#A1A1A1"/>
<path d="M183.141 754.727H171.208V750.668H155.623V761.139H176.809C178.865 761.626 180.489 762.6 181.679 764.061C182.435 764.982 182.897 765.982 183.059 767.064C183.113 767.389 183.14 767.712 183.14 768.038V788.413C183.14 790.416 182.301 792.106 180.624 793.486C178.946 794.866 176.917 795.556 174.536 795.556H152.293C149.911 795.556 147.882 794.866 146.205 793.486C144.527 792.106 143.689 790.415 143.689 788.413V777.13H155.623V783.624H171.208V773.152H152.293C149.262 773.152 146.881 772.097 145.15 769.985C144.446 769.121 143.986 768.172 143.77 767.144C143.716 766.767 143.689 766.388 143.689 766.009V745.877C143.689 744.147 144.365 742.618 145.718 741.292C147.07 739.966 148.775 739.141 150.832 738.815C151.319 738.762 151.806 738.735 152.293 738.735H174.536C175.077 738.735 175.591 738.763 176.078 738.815C178.08 739.141 179.758 739.966 181.111 741.292C182.462 742.618 183.14 744.147 183.14 745.877V754.727H183.141Z" fill="#A1A1A1"/>
<path d="M168.827 733.755H158.854V750.686H168.827V733.755Z" fill="#A1A1A1"/>
<path d="M168.827 784.78H158.854V800.086H168.827V784.78Z" fill="#A1A1A1"/>
<path d="M130.816 757.89V768.676H120.773V778.717H109.989V768.676H100.321V757.89H109.989V748.221H120.773V757.89H130.816Z" fill="#A1A1A1"/>
<path d="M36.4516 693.392H24.5183V689.333H8.9333V699.804H30.1193C32.1752 700.291 33.7994 701.265 34.9892 702.726C35.746 703.647 36.2074 704.647 36.3692 705.729C36.4232 706.054 36.4502 706.378 36.4502 706.703V727.078C36.4502 729.081 35.6111 730.771 33.9343 732.151C32.2561 733.531 30.2272 734.221 27.8463 734.221H5.60532C3.22292 734.221 1.19405 733.531 -0.48272 732.151C-2.16091 730.774 -3 729.083 -3 727.079V715.796H8.9333V722.291H24.5183V711.818H5.60532C2.57408 711.818 0.193098 710.763 -1.53762 708.652C-2.24183 707.787 -2.70184 706.839 -2.91765 705.811C-2.9716 705.433 -2.99858 705.054 -2.99858 704.675V684.544C-2.99858 682.813 -2.32276 681.284 -0.969706 679.958C0.38193 678.632 2.08709 677.807 4.14436 677.482C4.63135 677.428 5.11834 677.401 5.60532 677.401H27.8477C28.3886 677.401 28.9026 677.43 29.3896 677.482C31.3915 677.807 33.0697 678.632 34.4227 679.958C35.7743 681.284 36.4516 682.813 36.4516 684.544V693.392Z" fill="#A1A1A1"/>
<path d="M22.194 672.421H12.2214V689.352H22.194V672.421Z" fill="#A1A1A1"/>
<path d="M22.194 723.445H12.2214V738.752H22.194V723.445Z" fill="#A1A1A1"/>
<path d="M84.75 635.465H72.8167V631.406H57.2317V641.877H78.4177C80.4736 642.364 82.0978 643.338 83.2876 644.799C84.0443 645.72 84.5058 646.72 84.6676 647.801C84.7216 648.127 84.7485 648.45 84.7485 648.775V669.151C84.7485 671.154 83.9095 672.844 82.2327 674.224C80.5545 675.604 78.5256 676.294 76.1447 676.294H53.9037C51.5213 676.294 49.4924 675.604 47.8157 674.224C46.1375 672.844 45.2998 671.153 45.2998 669.151V657.868H57.2331V664.362H72.8167V653.89H53.9037C50.8725 653.89 48.4915 652.835 46.7608 650.723C46.0566 649.859 45.5965 648.91 45.3807 647.882C45.3268 647.505 45.2998 647.126 45.2998 646.747V626.615C45.2998 624.885 45.9756 623.356 47.3287 622.03C48.6803 620.703 50.3855 619.879 52.4427 619.553C52.9297 619.499 53.4167 619.473 53.9037 619.473H76.1461C76.687 619.473 77.201 619.501 77.688 619.553C79.6899 619.879 81.368 620.703 82.7211 622.03C84.0727 623.356 84.75 624.885 84.75 626.615V635.465V635.465Z" fill="#A1A1A1"/>
<path d="M70.4357 614.493H60.4631V631.424H70.4357V614.493Z" fill="#A1A1A1"/>
<path d="M70.4357 665.518H60.4631V680.824H70.4357V665.518Z" fill="#A1A1A1"/>
<path d="M80.272 702.945V713.731H70.2284V723.771H59.4451V713.731H49.7764V702.945H59.4451V693.276H70.2284V702.945H80.272Z" fill="#A1A1A1"/>
<path d="M32.425 638.628V649.414H22.3815V659.455H11.5982V649.414H1.92944V638.628H11.5982V628.96H22.3815V638.628H32.425Z" fill="#A1A1A1"/>
<path d="M134.843 693.392H122.909V689.333H107.324V699.804H128.511C130.566 700.291 132.191 701.265 133.38 702.726C134.137 703.647 134.599 704.647 134.76 705.729C134.814 706.054 134.841 706.378 134.841 706.703V727.078C134.841 729.081 134.002 730.771 132.325 732.151C130.647 733.531 128.618 734.221 126.237 734.221H103.996C101.614 734.221 99.5852 733.531 97.9084 732.151C96.2302 730.771 95.3926 729.08 95.3926 727.078V715.795H107.326V722.289H122.911V711.817H103.996C100.965 711.817 98.5843 710.762 96.8535 708.651C96.1493 707.786 95.6893 706.838 95.4735 705.81C95.4196 705.432 95.3926 705.053 95.3926 704.674V684.543C95.3926 682.812 96.0684 681.283 97.4214 679.957C98.7731 678.631 100.478 677.806 102.536 677.481C103.023 677.427 103.509 677.4 103.996 677.4H126.239C126.78 677.4 127.294 677.428 127.781 677.481C129.783 677.806 131.461 678.631 132.814 679.957C134.166 681.283 134.843 682.812 134.843 684.543V693.392V693.392Z" fill="#A1A1A1"/>
<path d="M120.585 672.421H110.613V689.352H120.585V672.421Z" fill="#A1A1A1"/>
<path d="M120.585 723.445H110.613V738.752H120.585V723.445Z" fill="#A1A1A1"/>
<path d="M183.141 635.465H171.208V631.406H155.623V641.877H176.809C178.865 642.364 180.489 643.338 181.679 644.799C182.435 645.72 182.897 646.72 183.059 647.801C183.113 648.127 183.14 648.45 183.14 648.775V669.151C183.14 671.154 182.301 672.844 180.624 674.224C178.946 675.604 176.917 676.294 174.536 676.294H152.293C149.911 676.294 147.882 675.604 146.205 674.224C144.527 672.844 143.689 671.153 143.689 669.151V657.868H155.623V664.362H171.208V653.89H152.293C149.262 653.89 146.881 652.835 145.15 650.723C144.446 649.859 143.986 648.91 143.77 647.882C143.716 647.505 143.689 647.126 143.689 646.747V626.615C143.689 624.885 144.365 623.356 145.718 622.03C147.07 620.703 148.775 619.879 150.832 619.553C151.319 619.499 151.806 619.473 152.293 619.473H174.536C175.077 619.473 175.591 619.501 176.078 619.553C178.08 619.879 179.758 620.703 181.111 622.03C182.462 623.356 183.14 624.885 183.14 626.615V635.465H183.141Z" fill="#A1A1A1"/>
<path d="M168.827 614.493H158.854V631.424H168.827V614.493Z" fill="#A1A1A1"/>
<path d="M168.827 665.518H158.854V680.824H168.827V665.518Z" fill="#A1A1A1"/>
<path d="M178.663 702.945V713.731H168.62V723.771H157.836V713.731H148.167V702.945H157.836V693.276H168.62V702.945H178.663Z" fill="#A1A1A1"/>
<path d="M130.816 638.628V649.414H120.773V659.455H109.989V649.414H100.321V638.628H109.989V628.96H120.773V638.628H130.816Z" fill="#A1A1A1"/>
<path d="M227.129 569.161H215.196V565.102H199.611V575.573H220.797C222.852 576.06 224.477 577.034 225.666 578.495C226.423 579.416 226.885 580.416 227.046 581.497C227.1 581.823 227.127 582.146 227.127 582.471V602.847C227.127 604.85 226.288 606.54 224.612 607.92C222.933 609.3 220.904 609.99 218.524 609.99H196.283C193.9 609.99 191.871 609.3 190.195 607.92C188.516 606.543 187.677 604.852 187.677 602.848V591.565H199.611V598.059H215.196V587.587H196.283C193.251 587.587 190.87 586.532 189.14 584.421C188.435 583.556 187.975 582.608 187.76 581.58C187.706 581.202 187.679 580.823 187.679 580.444V560.313C187.679 558.582 188.354 557.053 189.708 555.727C191.059 554.401 192.764 553.576 194.822 553.251C195.309 553.197 195.796 553.17 196.283 553.17H218.525C219.066 553.17 219.58 553.198 220.067 553.251C222.069 553.576 223.747 554.401 225.1 555.727C226.452 557.053 227.129 558.582 227.129 560.313V569.161Z" fill="#A1A1A1"/>
<path d="M212.871 548.189H202.899V565.12H212.871V548.189Z" fill="#A1A1A1"/>
<path d="M212.871 599.214H202.899V614.52H212.871V599.214Z" fill="#A1A1A1"/>
<path d="M275.427 511.234H263.494V507.175H247.909V517.645H269.095C271.151 518.132 272.775 519.106 273.965 520.567C274.722 521.489 275.183 522.488 275.345 523.57C275.399 523.895 275.426 524.219 275.426 524.544V544.92C275.426 546.923 274.587 548.612 272.91 549.992C271.232 551.372 269.203 552.063 266.822 552.063H244.581C242.199 552.063 240.17 551.372 238.493 549.992C236.815 548.612 235.977 546.921 235.977 544.92V533.637H247.91V540.131H263.494V529.658H244.581C241.55 529.658 239.169 528.603 237.438 526.492C236.734 525.628 236.274 524.679 236.058 523.651C236.004 523.274 235.977 522.894 235.977 522.515V502.386C235.977 500.655 236.653 499.126 238.006 497.8C239.358 496.474 241.063 495.649 243.12 495.324C243.607 495.27 244.094 495.243 244.581 495.243H266.823C267.364 495.243 267.878 495.271 268.365 495.324C270.367 495.649 272.045 496.474 273.398 497.8C274.75 499.126 275.427 500.655 275.427 502.386V511.234V511.234Z" fill="#A1A1A1"/>
<path d="M261.113 490.262H251.14V507.193H261.113V490.262Z" fill="#A1A1A1"/>
<path d="M261.113 541.286H251.14V556.593H261.113V541.286Z" fill="#A1A1A1"/>
<path d="M270.949 578.713V589.499H260.906V599.54H250.122V589.499H240.454V578.713H250.122V569.045H260.906V578.713H270.949Z" fill="#A1A1A1"/>
<path d="M223.102 514.397V525.183H213.059V535.224H202.275V525.183H192.607V514.397H202.275V504.728H213.059V514.397H223.102Z" fill="#A1A1A1"/>
<path d="M325.52 569.161H313.587V565.102H298.002V575.573H319.188C321.244 576.06 322.868 577.034 324.058 578.495C324.814 579.416 325.276 580.416 325.438 581.497C325.492 581.823 325.519 582.146 325.519 582.471V602.847C325.519 604.85 324.679 606.54 323.003 607.92C321.325 609.3 319.296 609.99 316.915 609.99H294.674C292.291 609.99 290.262 609.3 288.586 607.92C286.907 606.54 286.07 604.849 286.07 602.847V591.564H298.003V598.058H313.588V587.585H294.674C291.642 587.585 289.261 586.531 287.531 584.419C286.827 583.555 286.367 582.606 286.151 581.578C286.097 581.201 286.07 580.822 286.07 580.443V560.311C286.07 558.581 286.746 557.052 288.099 555.725C289.45 554.399 291.155 553.575 293.213 553.249C293.7 553.195 294.187 553.168 294.674 553.168H316.916C317.457 553.168 317.971 553.197 318.458 553.249C320.46 553.575 322.138 554.399 323.491 555.725C324.843 557.052 325.52 558.581 325.52 560.311V569.161V569.161Z" fill="#A1A1A1"/>
<path d="M311.262 548.189H301.29V565.12H311.262V548.189Z" fill="#A1A1A1"/>
<path d="M311.262 599.214H301.29V614.52H311.262V599.214Z" fill="#A1A1A1"/>
<path d="M373.818 511.234H361.885V507.175H346.3V517.645H367.486C369.542 518.132 371.166 519.106 372.356 520.567C373.113 521.489 373.574 522.488 373.736 523.57C373.79 523.895 373.817 524.219 373.817 524.544V544.92C373.817 546.923 372.978 548.612 371.301 549.992C369.623 551.372 367.594 552.063 365.213 552.063H342.971C340.588 552.063 338.559 551.372 336.883 549.992C335.204 548.612 334.367 546.921 334.367 544.92V533.637H346.3V540.131H361.885V529.658H342.971C339.939 529.658 337.558 528.603 335.828 526.492C335.124 525.628 334.664 524.679 334.448 523.651C334.394 523.274 334.367 522.894 334.367 522.515V502.386C334.367 500.655 335.043 499.126 336.396 497.8C337.747 496.474 339.452 495.649 341.51 495.324C341.997 495.27 342.484 495.243 342.971 495.243H365.213C365.754 495.243 366.268 495.271 366.755 495.324C368.757 495.649 370.435 496.474 371.788 497.8C373.14 499.126 373.817 500.655 373.817 502.386V511.234H373.818Z" fill="#A1A1A1"/>
<path d="M359.504 490.262H349.531V507.193H359.504V490.262Z" fill="#A1A1A1"/>
<path d="M359.504 541.286H349.531V556.593H359.504V541.286Z" fill="#A1A1A1"/>
<path d="M369.34 578.713V589.499H359.297V599.54H348.513V589.499H338.845V578.713H348.513V569.045H359.297V578.713H369.34Z" fill="#A1A1A1"/>
<path d="M321.494 514.397V525.183H311.45V535.224H300.667V525.183H290.998V514.397H300.667V504.728H311.45V514.397H321.494Z" fill="#A1A1A1"/>
<path d="M227.129 449.899H215.196V445.84H199.611V456.311H220.797C222.852 456.798 224.477 457.772 225.666 459.233C226.423 460.154 226.885 461.154 227.046 462.235C227.1 462.561 227.127 462.884 227.127 463.209V483.585C227.127 485.588 226.288 487.278 224.612 488.658C222.933 490.038 220.904 490.728 218.524 490.728H196.283C193.9 490.728 191.871 490.038 190.195 488.658C188.516 487.28 187.677 485.589 187.677 483.586V472.303H199.611V478.797H215.196V468.326H196.283C193.251 468.326 190.87 467.271 189.14 465.16C188.435 464.296 187.975 463.347 187.76 462.319C187.706 461.942 187.679 461.562 187.679 461.183V441.051C187.679 439.32 188.354 437.791 189.708 436.465C191.059 435.139 192.764 434.314 194.822 433.989C195.309 433.935 195.796 433.908 196.283 433.908H218.525C219.066 433.908 219.58 433.936 220.067 433.989C222.069 434.314 223.747 435.139 225.1 436.465C226.452 437.791 227.129 439.32 227.129 441.051V449.899Z" fill="#A1A1A1"/>
<path d="M212.871 428.927H202.899V445.858H212.871V428.927Z" fill="#A1A1A1"/>
<path d="M212.871 479.952H202.899V495.258H212.871V479.952Z" fill="#A1A1A1"/>
<path d="M275.427 391.972H263.494V387.913H247.909V398.383H269.095C271.151 398.87 272.775 399.844 273.965 401.305C274.722 402.227 275.183 403.226 275.345 404.308C275.399 404.633 275.426 404.957 275.426 405.282V425.658C275.426 427.661 274.587 429.35 272.91 430.73C271.232 432.11 269.203 432.8 266.822 432.8H244.581C242.199 432.8 240.17 432.11 238.493 430.73C236.815 429.35 235.977 427.659 235.977 425.658V414.374H247.91V420.869H263.494V410.399H244.581C241.55 410.399 239.169 409.344 237.438 407.233C236.734 406.368 236.274 405.42 236.058 404.392C236.004 404.014 235.977 403.635 235.977 403.256V383.124C235.977 381.393 236.653 379.864 238.006 378.538C239.358 377.212 241.061 376.387 243.119 376.062C243.606 376.008 244.093 375.981 244.58 375.981H266.822C267.363 375.981 267.877 376.009 268.364 376.062C270.366 376.387 272.044 377.212 273.397 378.538C274.749 379.864 275.426 381.393 275.426 383.124V391.972H275.427Z" fill="#A1A1A1"/>
<path d="M261.113 371H251.14V387.931H261.113V371Z" fill="#A1A1A1"/>
<path d="M261.113 422.024H251.14V437.331H261.113V422.024Z" fill="#A1A1A1"/>
<path d="M270.949 459.451V470.237H260.906V480.278H250.122V470.237H240.454V459.451H250.122V449.783H260.906V459.451H270.949Z" fill="#A1A1A1"/>
<path d="M223.102 395.135V405.921H213.059V415.962H202.275V405.921H192.607V395.135H202.275V385.466H213.059V395.135H223.102Z" fill="#A1A1A1"/>
<path d="M325.52 449.899H313.587V445.84H298.002V456.311H319.188C321.243 456.798 322.868 457.772 324.057 459.233C324.814 460.154 325.276 461.154 325.437 462.235C325.491 462.561 325.518 462.884 325.518 463.209V483.585C325.518 485.588 324.679 487.278 323.003 488.658C321.324 490.038 319.295 490.728 316.915 490.728H294.674C292.291 490.728 290.262 490.038 288.586 488.658C286.907 487.28 286.068 485.589 286.068 483.586V472.303H298.002V478.797H313.587V468.326H294.674C291.642 468.326 289.261 467.271 287.531 465.16C286.826 464.296 286.366 463.347 286.151 462.319C286.097 461.942 286.07 461.562 286.07 461.183V441.051C286.07 439.32 286.745 437.791 288.099 436.465C289.45 435.139 291.155 434.314 293.213 433.989C293.7 433.935 294.187 433.908 294.674 433.908H316.916C317.457 433.908 317.971 433.936 318.458 433.989C320.46 434.314 322.138 435.139 323.491 436.465C324.843 437.791 325.52 439.32 325.52 441.051V449.899V449.899Z" fill="#A1A1A1"/>
<path d="M311.262 428.927H301.29V445.858H311.262V428.927Z" fill="#A1A1A1"/>
<path d="M311.262 479.952H301.29V495.258H311.262V479.952Z" fill="#A1A1A1"/>
<path d="M373.818 391.972H361.885V387.913H346.3V398.383H367.486C369.542 398.87 371.166 399.844 372.356 401.305C373.113 402.227 373.574 403.226 373.736 404.308C373.79 404.633 373.817 404.957 373.817 405.282V425.658C373.817 427.661 372.978 429.35 371.301 430.73C369.623 432.11 367.594 432.8 365.213 432.8H342.971C340.588 432.8 338.559 432.11 336.883 430.73C335.204 429.35 334.367 427.659 334.367 425.658V414.374H346.3V420.869H361.885V410.399H342.971C339.939 410.399 337.558 409.344 335.828 407.233C335.124 406.368 334.664 405.42 334.448 404.392C334.394 404.014 334.367 403.635 334.367 403.256V383.124C334.367 381.393 335.043 379.864 336.396 378.538C337.747 377.212 339.452 376.387 341.51 376.062C341.997 376.008 342.484 375.981 342.971 375.981H365.213C365.754 375.981 366.268 376.009 366.755 376.062C368.757 376.387 370.435 377.212 371.788 378.538C373.14 379.864 373.817 381.393 373.817 383.124V391.972H373.818Z" fill="#A1A1A1"/>
<path d="M359.504 371H349.531V387.931H359.504V371Z" fill="#A1A1A1"/>
<path d="M359.504 422.024H349.531V437.331H359.504V422.024Z" fill="#A1A1A1"/>
<path d="M369.34 459.451V470.237H359.297V480.278H348.513V470.237H338.845V459.451H348.513V449.783H359.297V459.451H369.34Z" fill="#A1A1A1"/>
<path d="M321.494 395.135V405.921H311.45V415.962H300.667V405.921H290.998V395.135H300.667V385.466H311.45V395.135H321.494Z" fill="#A1A1A1"/>
<path d="M227.129 812.654H215.196V808.595H199.611V819.066H220.797C222.852 819.553 224.477 820.527 225.666 821.988C226.423 822.909 226.885 823.909 227.046 824.991C227.1 825.316 227.127 825.64 227.127 825.965V846.34C227.127 848.343 226.288 850.033 224.612 851.413C222.933 852.793 220.904 853.483 218.524 853.483H196.283C193.9 853.483 191.871 852.793 190.195 851.413C188.516 850.036 187.677 848.345 187.677 846.342V835.058H199.611V841.553H215.196V831.08H196.283C193.251 831.08 190.87 830.025 189.14 827.914C188.435 827.049 187.975 826.101 187.76 825.073C187.706 824.695 187.679 824.316 187.679 823.937V803.806C187.679 802.075 188.354 800.546 189.708 799.22C191.059 797.894 192.764 797.069 194.822 796.744C195.309 796.69 195.796 796.663 196.283 796.663H218.525C219.066 796.663 219.58 796.692 220.067 796.744C222.069 797.069 223.747 797.894 225.1 799.22C226.452 800.546 227.129 802.075 227.129 803.806V812.654Z" fill="#A1A1A1"/>
<path d="M212.871 791.683H202.899V808.614H212.871V791.683Z" fill="#A1A1A1"/>
<path d="M275.427 754.727H263.494V750.668H247.909V761.139H269.095C271.151 761.626 272.775 762.6 273.965 764.061C274.722 764.982 275.183 765.982 275.345 767.064C275.399 767.389 275.426 767.712 275.426 768.038V788.413C275.426 790.416 274.587 792.106 272.91 793.486C271.232 794.866 269.203 795.556 266.822 795.556H244.581C242.199 795.556 240.17 794.866 238.493 793.486C236.815 792.106 235.977 790.415 235.977 788.413V777.13H247.91V783.624H263.494V773.152H244.581C241.55 773.152 239.169 772.097 237.438 769.985C236.734 769.121 236.274 768.172 236.058 767.144C236.004 766.767 235.977 766.388 235.977 766.009V745.877C235.977 744.147 236.653 742.618 238.006 741.292C239.358 739.966 241.063 739.141 243.12 738.815C243.607 738.762 244.094 738.735 244.581 738.735H266.823C267.364 738.735 267.878 738.763 268.365 738.815C270.367 739.141 272.045 739.966 273.398 741.292C274.75 742.618 275.427 744.147 275.427 745.877V754.727V754.727Z" fill="#A1A1A1"/>
<path d="M261.113 733.755H251.14V750.686H261.113V733.755Z" fill="#A1A1A1"/>
<path d="M261.113 784.78H251.14V800.086H261.113V784.78Z" fill="#A1A1A1"/>
<path d="M223.102 757.89V768.676H213.059V778.717H202.275V768.676H192.607V757.89H202.275V748.221H213.059V757.89H223.102Z" fill="#A1A1A1"/>
<path d="M325.52 812.654H313.587V808.595H298.002V819.066H319.188C321.244 819.553 322.868 820.527 324.058 821.988C324.814 822.909 325.276 823.909 325.438 824.991C325.492 825.316 325.519 825.64 325.519 825.965V846.34C325.519 848.343 324.679 850.033 323.003 851.413C321.325 852.793 319.296 853.483 316.915 853.483H294.674C292.291 853.483 290.262 852.793 288.586 851.413C286.907 850.033 286.07 848.342 286.07 846.34V835.057H298.003V841.551H313.588V831.079H294.674C291.642 831.079 289.261 830.024 287.531 827.913C286.827 827.048 286.367 826.1 286.151 825.072C286.097 824.694 286.07 824.315 286.07 823.936V803.805C286.07 802.074 286.746 800.545 288.099 799.219C289.45 797.893 291.155 797.068 293.213 796.743C293.7 796.689 294.187 796.662 294.674 796.662H316.916C317.457 796.662 317.971 796.69 318.458 796.743C320.46 797.068 322.138 797.893 323.491 799.219C324.843 800.545 325.52 802.074 325.52 803.805V812.654V812.654Z" fill="#A1A1A1"/>
<path d="M311.262 791.683H301.29V808.614H311.262V791.683Z" fill="#A1A1A1"/>
<path d="M373.818 754.727H361.885V750.668H346.3V761.139H367.486C369.542 761.626 371.166 762.6 372.356 764.061C373.113 764.982 373.574 765.982 373.736 767.064C373.79 767.389 373.817 767.712 373.817 768.038V788.413C373.817 790.416 372.978 792.106 371.301 793.486C369.623 794.866 367.594 795.556 365.213 795.556H342.971C340.588 795.556 338.559 794.866 336.883 793.486C335.204 792.106 334.367 790.415 334.367 788.413V777.13H346.3V783.624H361.885V773.152H342.971C339.939 773.152 337.558 772.097 335.828 769.985C335.123 769.121 334.663 768.172 334.448 767.144C334.394 766.767 334.367 766.388 334.367 766.009V745.877C334.367 744.147 335.043 742.618 336.396 741.292C337.747 739.966 339.452 739.141 341.51 738.815C341.997 738.762 342.484 738.735 342.971 738.735H365.213C365.754 738.735 366.268 738.763 366.755 738.815C368.757 739.141 370.435 739.966 371.788 741.292C373.14 742.618 373.817 744.147 373.817 745.877V754.727H373.818Z" fill="#A1A1A1"/>
<path d="M359.504 733.755H349.531V750.686H359.504V733.755Z" fill="#A1A1A1"/>
<path d="M359.504 784.78H349.531V800.086H359.504V784.78Z" fill="#A1A1A1"/>
<path d="M321.494 757.89V768.676H311.45V778.717H300.667V768.676H290.998V757.89H300.667V748.221H311.45V757.89H321.494Z" fill="#A1A1A1"/>
<path d="M227.129 693.392H215.196V689.333H199.611V699.804H220.797C222.852 700.291 224.477 701.265 225.666 702.726C226.423 703.647 226.885 704.647 227.046 705.729C227.1 706.054 227.127 706.378 227.127 706.703V727.078C227.127 729.081 226.288 730.771 224.612 732.151C222.933 733.531 220.904 734.221 218.524 734.221H196.283C193.9 734.221 191.871 733.531 190.195 732.151C188.516 730.774 187.677 729.083 187.677 727.079V715.796H199.611V722.291H215.196V711.818H196.283C193.251 711.818 190.87 710.763 189.14 708.652C188.435 707.787 187.975 706.839 187.76 705.811C187.706 705.433 187.679 705.054 187.679 704.675V684.544C187.679 682.813 188.354 681.284 189.708 679.958C191.059 678.632 192.764 677.807 194.822 677.482C195.309 677.428 195.796 677.401 196.283 677.401H218.525C219.066 677.401 219.58 677.43 220.067 677.482C222.069 677.807 223.747 678.632 225.1 679.958C226.452 681.284 227.129 682.813 227.129 684.544V693.392Z" fill="#A1A1A1"/>
<path d="M212.871 672.421H202.899V689.352H212.871V672.421Z" fill="#A1A1A1"/>
<path d="M212.871 723.445H202.899V738.752H212.871V723.445Z" fill="#A1A1A1"/>
<path d="M275.427 635.465H263.494V631.406H247.909V641.877H269.095C271.151 642.364 272.775 643.338 273.965 644.799C274.722 645.72 275.183 646.72 275.345 647.801C275.399 648.127 275.426 648.45 275.426 648.775V669.151C275.426 671.154 274.587 672.844 272.91 674.224C271.232 675.604 269.203 676.294 266.822 676.294H244.581C242.199 676.294 240.17 675.604 238.493 674.224C236.815 672.844 235.977 671.153 235.977 669.151V657.868H247.91V664.362H263.494V653.89H244.581C241.55 653.89 239.169 652.835 237.438 650.723C236.734 649.859 236.274 648.91 236.058 647.882C236.004 647.505 235.977 647.126 235.977 646.747V626.615C235.977 624.885 236.653 623.356 238.006 622.03C239.358 620.703 241.063 619.879 243.12 619.553C243.607 619.499 244.094 619.473 244.581 619.473H266.823C267.364 619.473 267.878 619.501 268.365 619.553C270.367 619.879 272.045 620.703 273.398 622.03C274.75 623.356 275.427 624.885 275.427 626.615V635.465V635.465Z" fill="#A1A1A1"/>
<path d="M261.113 614.493H251.14V631.424H261.113V614.493Z" fill="#A1A1A1"/>
<path d="M261.113 665.518H251.14V680.824H261.113V665.518Z" fill="#A1A1A1"/>
<path d="M270.949 702.945V713.731H260.906V723.771H250.122V713.731H240.454V702.945H250.122V693.276H260.906V702.945H270.949Z" fill="#A1A1A1"/>
<path d="M223.102 638.628V649.414H213.059V659.455H202.275V649.414H192.607V638.628H202.275V628.96H213.059V638.628H223.102Z" fill="#A1A1A1"/>
<path d="M325.52 693.392H313.587V689.333H298.002V699.804H319.188C321.244 700.291 322.868 701.265 324.058 702.726C324.814 703.647 325.276 704.647 325.438 705.729C325.492 706.054 325.519 706.378 325.519 706.703V727.078C325.519 729.081 324.679 730.771 323.003 732.151C321.325 733.531 319.296 734.221 316.915 734.221H294.674C292.291 734.221 290.262 733.531 288.586 732.151C286.907 730.771 286.07 729.08 286.07 727.078V715.795H298.003V722.289H313.588V711.817H294.674C291.642 711.817 289.261 710.762 287.531 708.651C286.827 707.786 286.367 706.838 286.151 705.81C286.097 705.432 286.07 705.053 286.07 704.674V684.543C286.07 682.812 286.746 681.283 288.099 679.957C289.45 678.631 291.155 677.806 293.213 677.481C293.7 677.427 294.187 677.4 294.674 677.4H316.916C317.457 677.4 317.971 677.428 318.458 677.481C320.46 677.806 322.138 678.631 323.491 679.957C324.843 681.283 325.52 682.812 325.52 684.543V693.392V693.392Z" fill="#A1A1A1"/>
<path d="M311.262 672.421H301.29V689.352H311.262V672.421Z" fill="#A1A1A1"/>
<path d="M311.262 723.445H301.29V738.752H311.262V723.445Z" fill="#A1A1A1"/>
<path d="M373.818 635.465H361.885V631.406H346.3V641.877H367.486C369.542 642.364 371.166 643.338 372.356 644.799C373.113 645.72 373.574 646.72 373.736 647.801C373.79 648.127 373.817 648.45 373.817 648.775V669.151C373.817 671.154 372.978 672.844 371.301 674.224C369.623 675.604 367.594 676.294 365.213 676.294H342.971C340.588 676.294 338.559 675.604 336.883 674.224C335.204 672.844 334.367 671.153 334.367 669.151V657.868H346.3V664.362H361.885V653.89H342.971C339.939 653.89 337.558 652.835 335.828 650.723C335.124 649.859 334.664 648.91 334.448 647.882C334.394 647.505 334.367 647.126 334.367 646.747V626.615C334.367 624.885 335.043 623.356 336.396 622.03C337.747 620.703 339.452 619.879 341.51 619.553C341.997 619.499 342.484 619.473 342.971 619.473H365.213C365.754 619.473 366.268 619.501 366.755 619.553C368.757 619.879 370.435 620.703 371.788 622.03C373.14 623.356 373.817 624.885 373.817 626.615V635.465H373.818Z" fill="#A1A1A1"/>
<path d="M359.504 614.493H349.531V631.424H359.504V614.493Z" fill="#A1A1A1"/>
<path d="M359.504 665.518H349.531V680.824H359.504V665.518Z" fill="#A1A1A1"/>
<path d="M369.34 702.945V713.731H359.297V723.771H348.513V713.731H338.845V702.945H348.513V693.276H359.297V702.945H369.34Z" fill="#A1A1A1"/>
<path d="M321.494 638.628V649.414H311.45V659.455H300.667V649.414H290.998V638.628H300.667V628.96H311.45V638.628H321.494Z" fill="#A1A1A1"/>
</g>
<defs>
<clipPath id="clip0">
<rect width="375" height="812" fill="white"/>
</clipPath>
</defs>
</svg>
