<svg width="63" height="81" viewBox="0 0 63 81" fill="none" xmlns="http://www.w3.org/2000/svg">
<path d="M31.5 40.5C27.1687 40.5 23.625 36.855 23.625 32.4C23.625 27.945 27.1687 24.3 31.5 24.3C35.8313 24.3 39.375 27.945 39.375 32.4C39.375 36.855 35.8313 40.5 31.5 40.5ZM31.5 0C14.9625 0 0 13.041 0 33.21C0 46.656 10.5131 62.5725 31.5 81C52.4869 62.5725 63 46.656 63 33.21C63 13.041 48.0375 0 31.5 0Z" fill="#EB6D03"/>
<circle cx="31" cy="32" r="28" fill="#3C58A0"/>
<path d="M49 22.6899V47.5175C49 48.8887 47.8884 50.0003 46.5172 50.0003H15.4828C14.1116 50.0003 13 48.8887 13 47.5175V22.6899H49Z" fill="#ECF0F1"/>
<path d="M49 18.3451V23.9313H13V18.3451C13 16.9739 14.1116 15.8623 15.4828 15.8623H46.5172C47.8884 15.8623 49 16.9739 49 18.3451Z" fill="#E64C3C"/>
<path d="M19.8276 27.0347H17.3448C17.002 27.0347 16.7241 27.3126 16.7241 27.6554V29.5174C16.7241 29.8602 17.002 30.1381 17.3448 30.1381H19.8276C20.1704 30.1381 20.4483 29.8602 20.4483 29.5174V27.6554C20.4483 27.3126 20.1704 27.0347 19.8276 27.0347Z" fill="#95A5A5"/>
<path d="M26.0344 27.0347H23.5516C23.2088 27.0347 22.9309 27.3126 22.9309 27.6554V29.5174C22.9309 29.8602 23.2088 30.1381 23.5516 30.1381H26.0344C26.3772 30.1381 26.655 29.8602 26.655 29.5174V27.6554C26.655 27.3126 26.3772 27.0347 26.0344 27.0347Z" fill="#95A5A5"/>
<path d="M32.2411 27.0347H29.7584C29.4156 27.0347 29.1377 27.3126 29.1377 27.6554V29.5174C29.1377 29.8602 29.4156 30.1381 29.7584 30.1381H32.2411C32.5839 30.1381 32.8618 29.8602 32.8618 29.5174V27.6554C32.8618 27.3126 32.5839 27.0347 32.2411 27.0347Z" fill="#95A5A5"/>
<path d="M38.4482 27.0347H35.9654C35.6226 27.0347 35.3447 27.3126 35.3447 27.6554V29.5174C35.3447 29.8602 35.6226 30.1381 35.9654 30.1381H38.4482C38.791 30.1381 39.0689 29.8602 39.0689 29.5174V27.6554C39.0689 27.3126 38.791 27.0347 38.4482 27.0347Z" fill="#95A5A5"/>
<path d="M44.6552 27.0347H42.1724C41.8297 27.0347 41.5518 27.3126 41.5518 27.6554V29.5174C41.5518 29.8602 41.8297 30.1381 42.1724 30.1381H44.6552C44.998 30.1381 45.2759 29.8602 45.2759 29.5174V27.6554C45.2759 27.3126 44.998 27.0347 44.6552 27.0347Z" fill="#95A5A5"/>
<path d="M19.8276 32.6211H17.3448C17.002 32.6211 16.7241 32.899 16.7241 33.2418V35.1039C16.7241 35.4466 17.002 35.7245 17.3448 35.7245H19.8276C20.1704 35.7245 20.4483 35.4466 20.4483 35.1039V33.2418C20.4483 32.899 20.1704 32.6211 19.8276 32.6211Z" fill="#95A5A5"/>
<path d="M26.0344 32.6211H23.5516C23.2088 32.6211 22.9309 32.899 22.9309 33.2418V35.1039C22.9309 35.4466 23.2088 35.7245 23.5516 35.7245H26.0344C26.3772 35.7245 26.655 35.4466 26.655 35.1039V33.2418C26.655 32.899 26.3772 32.6211 26.0344 32.6211Z" fill="#95A5A5"/>
<path d="M32.2411 32.6211H29.7584C29.4156 32.6211 29.1377 32.899 29.1377 33.2418V35.1039C29.1377 35.4466 29.4156 35.7245 29.7584 35.7245H32.2411C32.5839 35.7245 32.8618 35.4466 32.8618 35.1039V33.2418C32.8618 32.899 32.5839 32.6211 32.2411 32.6211Z" fill="#95A5A5"/>
<path d="M38.4482 32.6211H35.9654C35.6226 32.6211 35.3447 32.899 35.3447 33.2418V35.1039C35.3447 35.4466 35.6226 35.7245 35.9654 35.7245H38.4482C38.791 35.7245 39.0689 35.4466 39.0689 35.1039V33.2418C39.0689 32.899 38.791 32.6211 38.4482 32.6211Z" fill="#95A5A5"/>
<path d="M44.6552 32.6211H42.1724C41.8297 32.6211 41.5518 32.899 41.5518 33.2418V35.1039C41.5518 35.4466 41.8297 35.7245 42.1724 35.7245H44.6552C44.998 35.7245 45.2759 35.4466 45.2759 35.1039V33.2418C45.2759 32.899 44.998 32.6211 44.6552 32.6211Z" fill="#95A5A5"/>
<path d="M19.8276 38.207H17.3448C17.002 38.207 16.7241 38.4849 16.7241 38.8277V40.6898C16.7241 41.0326 17.002 41.3105 17.3448 41.3105H19.8276C20.1704 41.3105 20.4483 41.0326 20.4483 40.6898V38.8277C20.4483 38.4849 20.1704 38.207 19.8276 38.207Z" fill="#95A5A5"/>
<path d="M26.0344 38.207H23.5516C23.2088 38.207 22.9309 38.4849 22.9309 38.8277V40.6898C22.9309 41.0326 23.2088 41.3105 23.5516 41.3105H26.0344C26.3772 41.3105 26.655 41.0326 26.655 40.6898V38.8277C26.655 38.4849 26.3772 38.207 26.0344 38.207Z" fill="#95A5A5"/>
<path d="M32.2411 38.207H29.7584C29.4156 38.207 29.1377 38.4849 29.1377 38.8277V40.6898C29.1377 41.0326 29.4156 41.3105 29.7584 41.3105H32.2411C32.5839 41.3105 32.8618 41.0326 32.8618 40.6898V38.8277C32.8618 38.4849 32.5839 38.207 32.2411 38.207Z" fill="#95A5A5"/>
<path d="M38.4482 38.207H35.9654C35.6226 38.207 35.3447 38.4849 35.3447 38.8277V40.6898C35.3447 41.0326 35.6226 41.3105 35.9654 41.3105H38.4482C38.791 41.3105 39.0689 41.0326 39.0689 40.6898V38.8277C39.0689 38.4849 38.791 38.207 38.4482 38.207Z" fill="#95A5A5"/>
<path d="M44.6552 38.207H42.1724C41.8297 38.207 41.5518 38.4849 41.5518 38.8277V40.6898C41.5518 41.0326 41.8297 41.3105 42.1724 41.3105H44.6552C44.998 41.3105 45.2759 41.0326 45.2759 40.6898V38.8277C45.2759 38.4849 44.998 38.207 44.6552 38.207Z" fill="#95A5A5"/>
<path d="M19.8276 43.7935H17.3448C17.002 43.7935 16.7241 44.0713 16.7241 44.4141V46.2762C16.7241 46.619 17.002 46.8969 17.3448 46.8969H19.8276C20.1704 46.8969 20.4483 46.619 20.4483 46.2762V44.4141C20.4483 44.0713 20.1704 43.7935 19.8276 43.7935Z" fill="#95A5A5"/>
<path d="M26.0344 43.7935H23.5516C23.2088 43.7935 22.9309 44.0713 22.9309 44.4141V46.2762C22.9309 46.619 23.2088 46.8969 23.5516 46.8969H26.0344C26.3772 46.8969 26.655 46.619 26.655 46.2762V44.4141C26.655 44.0713 26.3772 43.7935 26.0344 43.7935Z" fill="#95A5A5"/>
<path d="M32.2411 43.7935H29.7584C29.4156 43.7935 29.1377 44.0713 29.1377 44.4141V46.2762C29.1377 46.619 29.4156 46.8969 29.7584 46.8969H32.2411C32.5839 46.8969 32.8618 46.619 32.8618 46.2762V44.4141C32.8618 44.0713 32.5839 43.7935 32.2411 43.7935Z" fill="#95A5A5"/>
<path d="M38.4482 43.7935H35.9654C35.6226 43.7935 35.3447 44.0713 35.3447 44.4141V46.2762C35.3447 46.619 35.6226 46.8969 35.9654 46.8969H38.4482C38.791 46.8969 39.0689 46.619 39.0689 46.2762V44.4141C39.0689 44.0713 38.791 43.7935 38.4482 43.7935Z" fill="#95A5A5"/>
<path d="M44.6552 43.7935H42.1724C41.8297 43.7935 41.5518 44.0713 41.5518 44.4141V46.2762C41.5518 46.619 41.8297 46.8969 42.1724 46.8969H44.6552C44.998 46.8969 45.2759 46.619 45.2759 46.2762V44.4141C45.2759 44.0713 44.998 43.7935 44.6552 43.7935Z" fill="#95A5A5"/>
<path d="M42.1725 15.8623C43.2773 16.2944 44.0125 17.3501 44.0345 18.5362C43.9309 20.1741 42.5723 21.4495 40.9311 21.4495C39.2899 21.4495 37.9313 20.1741 37.8276 18.5362C37.8497 17.3501 38.5849 16.2944 39.6897 15.8623H42.1725Z" fill="#C03A2B"/>
<path d="M22.3104 15.8623C23.4152 16.2944 24.1504 17.3501 24.1725 18.5362C24.1175 20.1964 22.7294 21.499 21.069 21.4485C19.4087 21.499 18.0206 20.1964 17.9656 18.5362C17.9876 17.3501 18.7228 16.2944 19.8276 15.8623H22.3104Z" fill="#C03A2B"/>
<path d="M42.1725 15.2414C42.1725 14.5558 41.6167 14 40.9311 14C40.2455 14 39.6897 14.5558 39.6897 15.2414V17.7241C39.6897 18.4097 40.2455 18.9655 40.9311 18.9655C41.6167 18.9655 42.1725 18.4097 42.1725 17.7241V15.2414Z" fill="#95A5A5"/>
<path d="M22.3104 15.2414C22.3104 14.5558 21.7546 14 21.069 14C20.3834 14 19.8276 14.5558 19.8276 15.2414V17.7241C19.8276 18.4097 20.3834 18.9655 21.069 18.9655C21.7546 18.9655 22.3104 18.4097 22.3104 17.7241V15.2414Z" fill="#95A5A5"/>
</svg>
