<svg width="74" height="74" viewBox="0 0 74 74" fill="none" xmlns="http://www.w3.org/2000/svg">
<circle cx="37" cy="37" r="37" fill="#38638B"/>
<path d="M57.25 25.8623V56.8968C57.25 58.6108 55.9763 60.0002 54.4052 60.0002H18.8448C17.2737 60.0002 16 58.6108 16 56.8968V25.8623H57.25Z" fill="#ECF0F1"/>
<path d="M57.25 20.4311V27.4138H16V20.4311C16 18.7171 17.2737 17.3276 18.8448 17.3276H54.4052C55.9763 17.3276 57.25 18.7171 57.25 20.4311Z" fill="#E64C3C"/>
<path d="M23.8234 31.293H20.9785C20.5858 31.293 20.2673 31.6403 20.2673 32.0688V34.3964C20.2673 34.8249 20.5858 35.1723 20.9785 35.1723H23.8234C24.2162 35.1723 24.5346 34.8249 24.5346 34.3964V32.0688C24.5346 31.6403 24.2162 31.293 23.8234 31.293Z" fill="#95A5A5"/>
<path d="M30.9354 31.293H28.0906C27.6978 31.293 27.3794 31.6403 27.3794 32.0688V34.3964C27.3794 34.8249 27.6978 35.1723 28.0906 35.1723H30.9354C31.3282 35.1723 31.6466 34.8249 31.6466 34.3964V32.0688C31.6466 31.6403 31.3282 31.293 30.9354 31.293Z" fill="#95A5A5"/>
<path d="M38.0472 31.293H35.2024C34.8096 31.293 34.4912 31.6403 34.4912 32.0688V34.3964C34.4912 34.8249 34.8096 35.1723 35.2024 35.1723H38.0472C38.44 35.1723 38.7584 34.8249 38.7584 34.3964V32.0688C38.7584 31.6403 38.44 31.293 38.0472 31.293Z" fill="#95A5A5"/>
<path d="M45.1596 31.293H42.3147C41.9219 31.293 41.6035 31.6403 41.6035 32.0688V34.3964C41.6035 34.8249 41.9219 35.1723 42.3147 35.1723H45.1596C45.5523 35.1723 45.8708 34.8249 45.8708 34.3964V32.0688C45.8708 31.6403 45.5523 31.293 45.1596 31.293Z" fill="#95A5A5"/>
<path d="M52.2716 31.293H49.4268C49.034 31.293 48.7156 31.6403 48.7156 32.0688V34.3964C48.7156 34.8249 49.034 35.1723 49.4268 35.1723H52.2716C52.6644 35.1723 52.9828 34.8249 52.9828 34.3964V32.0688C52.9828 31.6403 52.6644 31.293 52.2716 31.293Z" fill="#95A5A5"/>
<path d="M23.8234 38.2759H20.9785C20.5858 38.2759 20.2673 38.6232 20.2673 39.0517V41.3793C20.2673 41.8078 20.5858 42.1552 20.9785 42.1552H23.8234C24.2162 42.1552 24.5346 41.8078 24.5346 41.3793V39.0517C24.5346 38.6232 24.2162 38.2759 23.8234 38.2759Z" fill="#95A5A5"/>
<path d="M30.9354 38.2759H28.0906C27.6978 38.2759 27.3794 38.6232 27.3794 39.0517V41.3793C27.3794 41.8078 27.6978 42.1552 28.0906 42.1552H30.9354C31.3282 42.1552 31.6466 41.8078 31.6466 41.3793V39.0517C31.6466 38.6232 31.3282 38.2759 30.9354 38.2759Z" fill="#95A5A5"/>
<path d="M38.0475 38.2759H35.2027C34.8099 38.2759 34.4915 38.6232 34.4915 39.0517V41.3793C34.4915 41.8078 34.8099 42.1552 35.2027 42.1552H38.0475C38.4403 42.1552 38.7587 41.8078 38.7587 41.3793V39.0517C38.7587 38.6232 38.4403 38.2759 38.0475 38.2759Z" fill="#95A5A5"/>
<path d="M45.1598 38.2759H42.315C41.9222 38.2759 41.6038 38.6232 41.6038 39.0517V41.3793C41.6038 41.8078 41.9222 42.1552 42.315 42.1552H45.1598C45.5526 42.1552 45.871 41.8078 45.871 41.3793V39.0517C45.871 38.6232 45.5526 38.2759 45.1598 38.2759Z" fill="#95A5A5"/>
<path d="M52.2716 38.2759H49.4268C49.034 38.2759 48.7156 38.6232 48.7156 39.0517V41.3793C48.7156 41.8078 49.034 42.1552 49.4268 42.1552H52.2716C52.6644 42.1552 52.9828 41.8078 52.9828 41.3793V39.0517C52.9828 38.6232 52.6644 38.2759 52.2716 38.2759Z" fill="#95A5A5"/>
<path d="M23.8234 45.2583H20.9785C20.5858 45.2583 20.2673 45.6057 20.2673 46.0342V48.3618C20.2673 48.7902 20.5858 49.1376 20.9785 49.1376H23.8234C24.2162 49.1376 24.5346 48.7902 24.5346 48.3618V46.0342C24.5346 45.6057 24.2162 45.2583 23.8234 45.2583Z" fill="#95A5A5"/>
<path d="M30.9354 45.2583H28.0906C27.6978 45.2583 27.3794 45.6057 27.3794 46.0342V48.3618C27.3794 48.7902 27.6978 49.1376 28.0906 49.1376H30.9354C31.3282 49.1376 31.6466 48.7902 31.6466 48.3618V46.0342C31.6466 45.6057 31.3282 45.2583 30.9354 45.2583Z" fill="#95A5A5"/>
<path d="M38.0475 45.2583H35.2027C34.8099 45.2583 34.4915 45.6057 34.4915 46.0342V48.3618C34.4915 48.7902 34.8099 49.1376 35.2027 49.1376H38.0475C38.4403 49.1376 38.7587 48.7902 38.7587 48.3618V46.0342C38.7587 45.6057 38.4403 45.2583 38.0475 45.2583Z" fill="#95A5A5"/>
<path d="M45.1598 45.2583H42.315C41.9222 45.2583 41.6038 45.6057 41.6038 46.0342V48.3618C41.6038 48.7902 41.9222 49.1376 42.315 49.1376H45.1598C45.5526 49.1376 45.871 48.7902 45.871 48.3618V46.0342C45.871 45.6057 45.5526 45.2583 45.1598 45.2583Z" fill="#95A5A5"/>
<path d="M52.2716 45.2583H49.4268C49.034 45.2583 48.7156 45.6057 48.7156 46.0342V48.3618C48.7156 48.7902 49.034 49.1376 49.4268 49.1376H52.2716C52.6644 49.1376 52.9828 48.7902 52.9828 48.3618V46.0342C52.9828 45.6057 52.6644 45.2583 52.2716 45.2583Z" fill="#95A5A5"/>
<path d="M23.8234 52.2412H20.9785C20.5858 52.2412 20.2673 52.5886 20.2673 53.0171V55.3447C20.2673 55.7732 20.5858 56.1205 20.9785 56.1205H23.8234C24.2162 56.1205 24.5346 55.7732 24.5346 55.3447V53.0171C24.5346 52.5886 24.2162 52.2412 23.8234 52.2412Z" fill="#95A5A5"/>
<path d="M30.9354 52.2412H28.0906C27.6978 52.2412 27.3794 52.5886 27.3794 53.0171V55.3447C27.3794 55.7732 27.6978 56.1205 28.0906 56.1205H30.9354C31.3282 56.1205 31.6466 55.7732 31.6466 55.3447V53.0171C31.6466 52.5886 31.3282 52.2412 30.9354 52.2412Z" fill="#95A5A5"/>
<path d="M38.0475 52.2412H35.2027C34.8099 52.2412 34.4915 52.5886 34.4915 53.0171V55.3447C34.4915 55.7732 34.8099 56.1205 35.2027 56.1205H38.0475C38.4403 56.1205 38.7587 55.7732 38.7587 55.3447V53.0171C38.7587 52.5886 38.4403 52.2412 38.0475 52.2412Z" fill="#95A5A5"/>
<path d="M45.1598 52.2412H42.315C41.9222 52.2412 41.6038 52.5886 41.6038 53.0171V55.3447C41.6038 55.7732 41.9222 56.1205 42.315 56.1205H45.1598C45.5526 56.1205 45.871 55.7732 45.871 55.3447V53.0171C45.871 52.5886 45.5526 52.2412 45.1598 52.2412Z" fill="#95A5A5"/>
<path d="M52.2716 52.2412H49.4268C49.034 52.2412 48.7156 52.5886 48.7156 53.0171V55.3447C48.7156 55.7732 49.034 56.1205 49.4268 56.1205H52.2716C52.6644 56.1205 52.9828 55.7732 52.9828 55.3447V53.0171C52.9828 52.5886 52.6644 52.2412 52.2716 52.2412Z" fill="#95A5A5"/>
<path d="M49.4267 17.3276C50.6926 17.8678 51.535 19.1874 51.5603 20.6701C51.4416 22.7174 49.8848 24.3116 48.0043 24.3116C46.1238 24.3116 44.567 22.7174 44.4482 20.6701C44.4735 19.1874 45.3159 17.8678 46.5819 17.3276H49.4267Z" fill="#C03A2B"/>
<path d="M26.6681 17.3276C27.9341 17.8678 28.7765 19.1874 28.8018 20.6701C28.7387 22.7453 27.1482 24.3735 25.2457 24.3104C23.3433 24.3735 21.7527 22.7453 21.6897 20.6701C21.715 19.1874 22.5574 17.8678 23.8233 17.3276H26.6681Z" fill="#C03A2B"/>
<path d="M49.4266 16.5517C49.4266 15.6947 48.7898 15 48.0042 15C47.2186 15 46.5818 15.6947 46.5818 16.5517V19.6552C46.5818 20.5122 47.2186 21.2069 48.0042 21.2069C48.7898 21.2069 49.4266 20.5122 49.4266 19.6552V16.5517Z" fill="#95A5A5"/>
<path d="M26.6681 16.5517C26.6681 15.6947 26.0312 15 25.2457 15C24.4601 15 23.8232 15.6947 23.8232 16.5517V19.6552C23.8232 20.5122 24.4601 21.2069 25.2457 21.2069C26.0312 21.2069 26.6681 20.5122 26.6681 19.6552V16.5517Z" fill="#95A5A5"/>
</svg>
