<svg width="29" height="26" viewBox="0 0 29 26" fill="none" xmlns="http://www.w3.org/2000/svg">
<path d="M3.16799 14.5358C2.41157 13.8907 1.27546 13.981 0.630398 14.7374C-0.0146625 15.4938 0.0756044 16.6299 0.832015 17.275L3.16799 14.5358ZM10.3193 23L9.1513 24.3696L10.5871 25.594L11.7424 24.1021L10.3193 23ZM28.005 3.1021C28.6137 2.31612 28.4699 1.18552 27.684 0.576845C26.898 -0.0318291 25.7674 0.111911 25.1587 0.897897L28.005 3.1021ZM0.832015 17.275L9.1513 24.3696L11.4873 21.6304L3.16799 14.5358L0.832015 17.275ZM11.7424 24.1021L28.005 3.1021L25.1587 0.897897L8.89613 21.8979L11.7424 24.1021Z" fill="#2AFAA5"/>
</svg>
