<svg width="18" height="17" viewBox="0 0 18 17" fill="none" xmlns="http://www.w3.org/2000/svg">
<path fill-rule="evenodd" clip-rule="evenodd" d="M8.6733 17C13.4634 17 17.3466 13.1944 17.3466 8.5C17.3466 3.80558 13.4634 0 8.6733 0C3.88317 0 0 3.80558 0 8.5C0 13.1944 3.88317 17 8.6733 17ZM8.01455 2.15869H10.026V3.14319H11.1774C11.2865 3.14319 11.3902 3.1488 11.4884 3.15918C11.8922 3.22345 12.2306 3.3865 12.5035 3.64862C12.7762 3.91074 12.9127 4.21299 12.9127 4.55509V6.30404H10.5062V5.50169H10.026V5.50533H8.01455V5.50169H7.36276V7.57141H11.6359C12.0505 7.66767 12.3781 7.86019 12.6181 8.14897C12.7707 8.33111 12.8638 8.52868 12.8964 8.74252C12.9073 8.80679 12.9127 8.87078 12.9127 8.93504V12.9625C12.9127 13.3585 12.7435 13.6925 12.4053 13.9652C12.0668 14.238 11.6576 14.3744 11.1774 14.3744H10.026V15.27H8.01455V14.3744H6.69125C6.21073 14.3744 5.80152 14.238 5.46333 13.9652C5.12485 13.6925 4.95589 13.3582 4.95589 12.9625V10.7323H7.36276V12.0159H10.5062V9.94647H6.69125C6.07986 9.94647 5.59963 9.73796 5.25056 9.32064C5.10852 9.14973 5.01574 8.96227 4.97222 8.75908C4.96133 8.68443 4.95589 8.6095 4.95589 8.53457V4.55509C4.95589 4.21299 5.0922 3.91074 5.3651 3.64862C5.63772 3.3865 5.98164 3.22345 6.39658 3.15918C6.4948 3.14852 6.59302 3.14319 6.69125 3.14319H8.01455V2.15869Z" fill="white"/>
</svg>
