<svg width="17" height="17" viewBox="0 0 17 17" fill="none" xmlns="http://www.w3.org/2000/svg">
<path fill-rule="evenodd" clip-rule="evenodd" d="M8.31056 16.5138C12.7094 16.5138 16.2754 12.9478 16.2754 8.54897C16.2754 4.1501 12.7094 0.584106 8.31056 0.584106C3.91169 0.584106 0.345703 4.1501 0.345703 8.54897C0.345703 12.9478 3.91169 16.5138 8.31056 16.5138ZM7.70591 2.60692H9.55303V3.52942H10.6104C10.7106 3.52942 10.8058 3.53468 10.896 3.54441C11.2668 3.60463 11.5776 3.75742 11.8282 4.00303C12.0786 4.24865 12.204 4.53187 12.204 4.85243V6.49127H9.99399V5.73943H9.55303V5.74286H7.70591V5.73943H7.10734V7.67885H11.0314C11.4122 7.76905 11.713 7.94945 11.9334 8.22005C12.0736 8.39072 12.159 8.57585 12.189 8.77623C12.199 8.83645 12.204 8.89641 12.204 8.95663V12.7305C12.204 13.1016 12.0486 13.4145 11.738 13.6701C11.4272 13.9257 11.0514 14.0536 10.6104 14.0536H9.55303V14.8927H7.70591V14.0536H6.49068C6.04941 14.0536 5.67362 13.9257 5.36305 13.6701C5.05222 13.4145 4.89707 13.1013 4.89707 12.7305V10.6407H7.10734V11.8435H9.99399V9.90438H6.49068C5.92923 9.90438 5.48823 9.70899 5.16766 9.31796C5.03723 9.15781 4.95203 8.98214 4.91206 8.79175C4.90206 8.7218 4.89707 8.65158 4.89707 8.58137V4.85243C4.89707 4.53187 5.02224 4.24865 5.27285 4.00303C5.5232 3.75742 5.83903 3.60463 6.22008 3.54441C6.31028 3.53442 6.40048 3.52942 6.49068 3.52942H7.70591V2.60692Z" fill="#2AFAA5"/>
</svg>
