<svg width="28" height="28" viewBox="0 0 28 28" fill="none" xmlns="http://www.w3.org/2000/svg">
<path fill-rule="evenodd" clip-rule="evenodd" d="M14.226 27.6062C21.7342 27.6062 27.8208 21.5196 27.8208 14.0114C27.8208 6.50322 21.7342 0.416626 14.226 0.416626C6.71782 0.416626 0.631226 6.50322 0.631226 14.0114C0.631226 21.5196 6.71782 27.6062 14.226 27.6062ZM13.194 3.86924H16.3468V5.44385H18.1518C18.3228 5.44385 18.4853 5.45283 18.6392 5.46944C19.2721 5.57223 19.8026 5.83301 20.2304 6.25224C20.6577 6.67147 20.8718 7.15488 20.8718 7.70203V10.4993H17.0996V9.21601H16.3468V9.2218H13.194V9.21601H12.1726V12.5263H18.8704C19.5203 12.6803 20.0338 12.9882 20.4099 13.45C20.6492 13.7413 20.795 14.0573 20.8462 14.3994C20.8633 14.5021 20.8718 14.6045 20.8718 14.7073V21.1488C20.8718 21.7821 20.6065 22.3162 20.0764 22.7525C19.5459 23.1888 18.9045 23.4069 18.1518 23.4069H16.3468V24.8392H13.194V23.4069H11.12C10.3669 23.4069 9.72545 23.1888 9.19535 22.7525C8.66481 22.3162 8.39999 21.7816 8.39999 21.1488V17.5817H12.1726V19.6348H17.0996V16.3249H11.12C10.1617 16.3249 9.40901 15.9914 8.86185 15.324C8.63922 15.0506 8.4938 14.7508 8.42557 14.4258C8.40851 14.3064 8.39999 14.1866 8.39999 14.0668V7.70203C8.39999 7.15488 8.61364 6.67147 9.0414 6.25224C9.4687 5.83301 10.0078 5.57223 10.6582 5.46944C10.8121 5.45238 10.9661 5.44385 11.12 5.44385H13.194V3.86924Z" fill="#EB6D03"/>
</svg>
