<svg width="17" height="30" viewBox="0 0 17 30" fill="none" xmlns="http://www.w3.org/2000/svg">
<path fill-rule="evenodd" clip-rule="evenodd" d="M10.2297 0H6.17131V2.23653H3.5014C3.30322 2.23653 3.10503 2.24865 2.90685 2.27287C2.06964 2.41887 1.37571 2.7893 0.825655 3.38478C0.275023 3.98026 0 4.66691 0 5.4441V14.4847C0 14.6549 0.0109749 14.8252 0.0329309 14.9947C0.120755 15.4563 0.307957 15.8822 0.59454 16.2705C1.29886 17.2186 2.26782 17.6923 3.5014 17.6923H11.1987V22.3936H4.85631V19.4774H0V24.5441C0 25.4431 0.340894 26.2024 1.02384 26.8221C1.70621 27.4418 2.53187 27.7517 3.5014 27.7517H6.17131V29.7862H10.2297V27.7517H12.553C13.522 27.7517 14.3476 27.4418 15.0306 26.8221C15.713 26.2024 16.0544 25.4437 16.0544 24.5441V15.3945C16.0544 15.2485 16.0435 15.1031 16.0215 14.9571C15.9556 14.4713 15.7679 14.0225 15.4599 13.6087C14.9757 12.9526 14.3147 12.5153 13.4781 12.2966H4.85631V7.59459H6.17131V7.60291H10.2297V7.59459H11.1987V9.41737H16.0544V5.4441C16.0544 4.66691 15.7788 3.98026 15.2288 3.38478C14.6781 2.7893 13.9952 2.41887 13.1805 2.27287C12.9823 2.24928 12.7732 2.23653 12.553 2.23653H10.2297V0Z" fill="white"/>
</svg>
