<svg width="17" height="28" viewBox="0 0 17 28" fill="none" xmlns="http://www.w3.org/2000/svg">
<path fill-rule="evenodd" clip-rule="evenodd" d="M10.2297 0.444336H6.17131V2.47121H3.5014C3.30322 2.47121 3.10503 2.48218 2.90685 2.50414C2.06964 2.63645 1.37571 2.97215 0.825655 3.5118C0.275023 4.05146 0 4.67374 0 5.37806V13.5711C0 13.7254 0.0109749 13.8796 0.0329309 14.0333C0.120755 14.4517 0.307957 14.8376 0.59454 15.1895C1.29886 16.0487 2.26782 16.478 3.5014 16.478H11.1987V20.7386H4.85631V18.0958H0V22.6875C0 23.5021 0.340894 24.1903 1.02384 24.7519C1.70621 25.3135 2.53187 25.5943 3.5014 25.5943H6.17131V27.438H10.2297V25.5943H12.553C13.522 25.5943 14.3476 25.3135 15.0306 24.7519C15.713 24.1903 16.0544 23.5027 16.0544 22.6875V14.3956C16.0544 14.2633 16.0435 14.1316 16.0215 13.9993C15.9556 13.559 15.7679 13.1522 15.4599 12.7772C14.9757 12.1827 14.3147 11.7863 13.4781 11.5881H4.85631V7.32694H6.17131V7.33447H10.2297V7.32694H11.1987V8.97884H16.0544V5.37806C16.0544 4.67374 15.7788 4.05146 15.2288 3.5118C14.6781 2.97215 13.9952 2.63645 13.1805 2.50414C12.9823 2.48276 12.7732 2.47121 12.553 2.47121H10.2297V0.444336Z" fill="#2AFAA5"/>
</svg>
