<svg width="46" height="46" viewBox="0 0 46 46" fill="none" xmlns="http://www.w3.org/2000/svg">
<path d="M46 23C46 35.7025 35.7025 46 23 46C10.2975 46 0 35.7025 0 23C0 10.2975 10.2975 0 23 0C35.7025 0 46 10.2975 46 23Z" fill="#EB6D03"/>
<g clip-path="url(#clip0)">
<path d="M12.8446 33.3839H31.3628V32.4914L32.2552 31.599V30.7065V29.8141V28.9217L31.3628 28.2523L30.6934 26.0212V22.4515L30.9165 21.559L30.4703 20.8897L31.3628 19.3279L30.4703 18.8817L30.9165 17.543L31.3628 16.2044L30.9165 14.8657L28.9086 14.1964V13.304H27.793V14.1964L26.2312 15.0888L26.0081 16.2044L26.6774 17.543V18.6586L26.2312 19.3279L26.6774 20.8897L26.0081 21.559L26.6774 22.8977L26.2312 26.4674L25.3388 26.0212L23.1077 24.9057L20.6535 19.3279V13.304H16.8606V19.3279L16.4144 22.0052H12.8446V23.1208L13.514 24.4595L12.1753 26.0212V32.4914L12.8446 33.3839Z" fill="white"/>
<path d="M17.9066 32.8818H13.7233C13.446 32.8815 13.1802 32.7712 12.9841 32.5751C12.7881 32.3791 12.6778 32.1132 12.6774 31.836H18.2552V31.1388H12.6774V26.9554H18.6038V26.2582H12.7028C12.7458 26.0647 12.8433 25.8876 12.9838 25.7477L13.5614 25.1701C13.7237 25.0086 13.8524 24.8166 13.9401 24.605C14.0277 24.3934 14.0725 24.1666 14.0719 23.9376V23.818H17.558V23.9376C17.5574 24.1666 17.6022 24.3934 17.6898 24.605C17.7774 24.8166 17.9062 25.0086 18.0685 25.1701L18.6461 25.7477C18.8006 25.9016 18.9028 26.1002 18.9382 26.3155L19.626 26.201C19.5669 25.8423 19.3966 25.5112 19.1391 25.2546L18.5616 24.6771C18.4641 24.5802 18.3869 24.465 18.3343 24.338C18.2817 24.2111 18.2548 24.075 18.2552 23.9376V23.8053C18.5605 23.7613 18.8378 23.6032 19.0313 23.3629C19.2247 23.1227 19.32 22.818 19.2979 22.5104C19.2758 22.2027 19.138 21.9148 18.9122 21.7046C18.6864 21.4945 18.3894 21.3777 18.0809 21.3777H13.549C13.2405 21.3777 12.9435 21.4945 12.7177 21.7046C12.4919 21.9148 12.3541 22.2027 12.332 22.5104C12.3099 22.818 12.4052 23.1227 12.5986 23.3629C12.7921 23.6032 13.0694 23.7613 13.3747 23.8053V23.9376C13.375 24.075 13.3482 24.2111 13.2956 24.338C13.243 24.465 13.1657 24.5802 13.0683 24.6771L12.4908 25.2546C12.3284 25.4161 12.1997 25.6082 12.112 25.8198C12.0244 26.0314 11.9796 26.2582 11.9802 26.4872V31.836C11.9808 32.2981 12.1646 32.7411 12.4913 33.0679C12.8181 33.3947 13.2612 33.5785 13.7233 33.579H17.9066C18.2124 33.5784 18.5128 33.4977 18.7776 33.3448C19.0425 33.1919 19.2627 32.9723 19.4162 32.7077L18.8127 32.3586C18.7206 32.5174 18.5884 32.6493 18.4294 32.7411C18.2705 32.8329 18.0902 32.8814 17.9066 32.8818ZM13.0261 22.5978C13.0262 22.4592 13.0814 22.3263 13.1794 22.2282C13.2774 22.1302 13.4103 22.0751 13.549 22.0749H18.0809C18.2196 22.0749 18.3526 22.13 18.4507 22.2281C18.5487 22.3261 18.6038 22.4591 18.6038 22.5978C18.6038 22.7365 18.5487 22.8695 18.4507 22.9676C18.3526 23.0656 18.2196 23.1207 18.0809 23.1207H13.549C13.4103 23.1206 13.2774 23.0654 13.1794 22.9674C13.0814 22.8694 13.0262 22.7365 13.0261 22.5978Z" fill="#C4C4C4"/>
<path d="M15.8145 28.0013C16.2467 27.9966 16.6759 28.073 17.0799 28.2265L17.338 27.5788C16.8519 27.3927 16.3351 27.2995 15.8145 27.3041C14.2507 27.3041 13.0256 28.0698 13.0256 29.0472C13.0256 30.0246 14.2507 30.7902 15.8145 30.7902C16.3351 30.7949 16.8519 30.7017 17.338 30.5155L17.0799 29.8678C16.6759 30.0214 16.2467 30.0977 15.8145 30.093C14.5819 30.093 13.7229 29.5418 13.7229 29.0472C13.7229 28.5525 14.5819 28.0013 15.8145 28.0013Z" fill="#C4C4C4"/>
<path d="M17.5134 18.9376H20.3909C20.5091 20.2052 20.861 21.4401 21.4288 22.5796C21.6456 23.0135 21.8292 23.4632 21.978 23.9249L22.6417 23.7113C22.482 23.2159 22.2851 22.7333 22.0524 22.2677C21.3905 20.94 21.0451 19.477 21.0434 17.9934V13.7084C21.0431 13.4312 20.9328 13.1653 20.7367 12.9693C20.5406 12.7732 20.2748 12.6629 19.9975 12.6626H17.9059C17.6286 12.6629 17.3628 12.7732 17.1667 12.9693C16.9707 13.1653 16.8604 13.4312 16.8601 13.7084V17.9934C16.8601 18.87 16.7395 19.7424 16.5017 20.5861L17.1728 20.7752C17.342 20.1743 17.456 19.5592 17.5134 18.9376ZM17.5539 18.2403C17.5559 18.1581 17.5573 18.0758 17.5573 17.9934V16.8459H20.3462V17.9934C20.3462 18.0757 20.3478 18.1581 20.3498 18.2403H17.5539ZM17.5573 16.1487V15.4515H20.3462V16.1487H17.5573ZM17.9059 13.3598H19.9975C20.09 13.3599 20.1786 13.3967 20.2439 13.462C20.3093 13.5274 20.3461 13.616 20.3462 13.7084V14.7543H17.5573V14.4056H19.6489V13.7084H17.5573C17.5574 13.616 17.5942 13.5274 17.6595 13.462C17.7249 13.3967 17.8135 13.3599 17.9059 13.3598Z" fill="#C4C4C4"/>
<path d="M32.8965 30.9646C32.8964 30.7573 32.8434 30.5535 32.7427 30.3724C32.642 30.1912 32.4968 30.0387 32.3208 29.9292C32.4455 29.7547 32.5219 29.5503 32.5423 29.3368C32.5628 29.1233 32.5265 28.9081 32.4372 28.7131C32.3479 28.5181 32.2087 28.3501 32.0336 28.2261C31.8586 28.102 31.6539 28.0264 31.4403 28.0068L31.2766 27.1884C30.9821 25.7139 30.8248 24.2153 30.8066 22.7117C31.0102 22.6393 31.1864 22.5057 31.3109 22.3291C31.4355 22.1525 31.5022 21.9416 31.502 21.7255C31.5019 21.5094 31.4347 21.2987 31.3099 21.1223C31.185 20.946 31.0086 20.8126 30.8048 20.7406V20.2721C31.0087 20.2 31.1853 20.0665 31.3101 19.8899C31.435 19.7134 31.502 19.5025 31.502 19.2862C31.502 19.0699 31.435 18.859 31.3101 18.6825C31.1853 18.5059 31.0087 18.3724 30.8048 18.3003V17.7049C31.1167 17.5536 31.3799 17.3179 31.5647 17.0247C31.7496 16.7314 31.8486 16.3923 31.8506 16.0456C31.8526 15.699 31.7576 15.3587 31.5762 15.0633C31.3948 14.7679 31.1343 14.5292 30.8242 14.3742C30.4719 14.1988 30.0888 14.0938 29.6963 14.0652C29.7536 13.9073 29.772 13.7378 29.75 13.5712C29.7279 13.4046 29.666 13.2458 29.5696 13.1082C29.4731 12.9706 29.3449 12.8582 29.1959 12.7807C29.0468 12.7031 28.8812 12.6626 28.7132 12.6626C28.5451 12.6626 28.3795 12.7031 28.2305 12.7807C28.0814 12.8582 27.9532 12.9706 27.8567 13.1082C27.7603 13.2458 27.6984 13.4046 27.6764 13.5712C27.6543 13.7378 27.6728 13.9073 27.7301 14.0652C27.3375 14.0938 26.9544 14.1988 26.6021 14.3742C26.292 14.5292 26.0315 14.7679 25.8501 15.0633C25.6688 15.3587 25.5737 15.699 25.5757 16.0456C25.5777 16.3923 25.6768 16.7314 25.8616 17.0247C26.0464 17.3179 26.3097 17.5536 26.6215 17.7049V18.3003C26.4176 18.3724 26.2411 18.5059 26.1162 18.6825C25.9913 18.859 25.9243 19.0699 25.9243 19.2862C25.9243 19.5025 25.9913 19.7134 26.1162 19.8899C26.2411 20.0665 26.4176 20.2 26.6215 20.2721V20.7406C26.4178 20.8126 26.2415 20.9459 26.1166 21.1222C25.9918 21.2985 25.9246 21.5091 25.9243 21.7251C25.924 21.9411 25.9906 22.1519 26.115 22.3286C26.2394 22.5052 26.4154 22.6389 26.6189 22.7115C26.6065 23.7652 26.5258 24.8171 26.3772 25.8605L27.0674 25.9591C27.2178 24.9032 27.3007 23.8388 27.3156 22.7723H30.1103C30.1319 24.3015 30.2934 25.8255 30.5929 27.3252L30.7282 28.0014H29.0618V28.6987H31.3277C31.4664 28.6987 31.5994 28.7537 31.6975 28.8518C31.7956 28.9499 31.8507 29.0829 31.8507 29.2216C31.8507 29.3603 31.7956 29.4933 31.6975 29.5913C31.5994 29.6894 31.4664 29.7445 31.3277 29.7445H28.7132V30.4417H31.6764C31.815 30.4417 31.948 30.4968 32.0461 30.5949C32.1442 30.6929 32.1993 30.8259 32.1993 30.9646C32.1993 31.1033 32.1442 31.2363 32.0461 31.3344C31.948 31.4324 31.815 31.4875 31.6764 31.4875H27.6673V32.1848H31.1534V32.882H26.9701V33.5792H31.502C31.5945 33.5792 31.6832 33.5425 31.7485 33.4771C31.8139 33.4117 31.8507 33.323 31.8507 33.2306V32.1721C32.1409 32.1299 32.4062 31.9846 32.5982 31.7629C32.7902 31.5413 32.8961 31.2579 32.8965 30.9646ZM30.1076 20.332V20.6806H27.3187V20.332H30.1076ZM28.7132 13.3598C28.7821 13.3598 28.8495 13.3803 28.9068 13.4186C28.9642 13.4569 29.0089 13.5113 29.0352 13.575C29.0616 13.6387 29.0685 13.7088 29.0551 13.7765C29.0416 13.8441 29.0084 13.9062 28.9597 13.955C28.9109 14.0037 28.8488 14.0369 28.7812 14.0504C28.7136 14.0638 28.6435 14.0569 28.5798 14.0305C28.5161 14.0041 28.4616 13.9595 28.4233 13.9021C28.385 13.8448 28.3646 13.7774 28.3646 13.7084C28.3647 13.616 28.4014 13.5274 28.4668 13.4621C28.5321 13.3967 28.6207 13.3599 28.7132 13.3598ZM26.2729 16.035C26.2722 15.8195 26.3318 15.6081 26.4451 15.4248C26.5584 15.2415 26.7208 15.0936 26.9139 14.9979C27.2344 14.8381 27.5875 14.7547 27.9456 14.7543H29.4807C29.8388 14.7547 30.1919 14.8381 30.5124 14.9978C30.7461 15.1146 30.9334 15.3069 31.0441 15.5435C31.1548 15.7801 31.1824 16.0472 31.1224 16.3014C31.0624 16.5556 30.9183 16.7821 30.7135 16.9442C30.5086 17.1063 30.2551 17.1945 29.9939 17.1945H27.4325C27.125 17.1942 26.8303 17.0719 26.6129 16.8545C26.3955 16.6371 26.2733 16.3424 26.2729 16.035ZM27.4325 17.8918H29.9939C30.0321 17.8918 30.0699 17.8902 30.1076 17.8879V18.2404H27.3187V17.8879C27.3564 17.8902 27.3942 17.8918 27.4325 17.8918ZM26.9701 18.9376H30.4562C30.5487 18.9376 30.6373 18.9743 30.7027 19.0397C30.7681 19.1051 30.8048 19.1937 30.8048 19.2862C30.8048 19.3787 30.7681 19.4673 30.7027 19.5327C30.6373 19.5981 30.5487 19.6348 30.4562 19.6348H26.9701C26.8777 19.6348 26.789 19.5981 26.7236 19.5327C26.6582 19.4673 26.6215 19.3787 26.6215 19.2862C26.6215 19.1937 26.6582 19.1051 26.7236 19.0397C26.789 18.9743 26.8777 18.9376 26.9701 18.9376ZM26.9701 21.3779H30.4562C30.5487 21.3779 30.6373 21.4146 30.7027 21.48C30.7681 21.5453 30.8048 21.634 30.8048 21.7265C30.8048 21.8189 30.7681 21.9076 30.7027 21.973C30.6373 22.0383 30.5487 22.0751 30.4562 22.0751H26.9701C26.8777 22.0751 26.789 22.0383 26.7236 21.973C26.6582 21.9076 26.6215 21.8189 26.6215 21.7265C26.6215 21.634 26.6582 21.5453 26.7236 21.48C26.789 21.4146 26.8777 21.3779 26.9701 21.3779Z" fill="#C4C4C4"/>
<path d="M28.0159 27.304H27.1145L25.3539 25.5434C24.7651 24.9559 23.9672 24.626 23.1354 24.626C22.3036 24.626 21.5057 24.9559 20.9168 25.5434L19.1563 27.304H18.2549C18.1624 27.304 18.0737 27.3408 18.0084 27.4061C17.943 27.4715 17.9063 27.5602 17.9062 27.6526V28.6985C17.9062 29.7125 18.3729 30.681 19.2201 31.4254C19.4593 31.6349 19.72 31.8185 19.9979 31.9731V33.2304C19.9979 33.3228 20.0346 33.4115 20.1 33.4769C20.1654 33.5423 20.2541 33.579 20.3465 33.579H25.9243C26.0167 33.579 26.1054 33.5423 26.1708 33.4769C26.2361 33.4115 26.2729 33.3228 26.2729 33.2304V31.9731C26.5508 31.8185 26.8115 31.6349 27.0507 31.4254C27.8979 30.681 28.3645 29.7125 28.3645 28.6985V27.6526C28.3645 27.5602 28.3278 27.4715 28.2624 27.4061C28.197 27.3408 28.1084 27.304 28.0159 27.304ZM21.4099 26.0365C21.8679 25.5795 22.4884 25.3228 23.1354 25.3228C23.7824 25.3228 24.4029 25.5795 24.8609 26.0365L26.1284 27.304H20.1423L21.4099 26.0365ZM25.5757 32.8818H20.6951V32.2877C21.1427 32.4478 21.6142 32.5307 22.0896 32.5332H24.1812C24.6566 32.5307 25.1281 32.4478 25.5757 32.2877V32.8818ZM27.6673 28.6985C27.6673 29.509 27.2849 30.2915 26.5905 30.9016C25.9147 31.4954 25.0365 31.8359 24.1812 31.8359H22.0896C21.2343 31.8359 20.3561 31.4954 19.6803 30.9016C18.9859 30.2915 18.6035 29.509 18.6035 28.6985V28.0012H27.6673V28.6985Z" fill="#C4C4C4"/>
</g>
<defs>
<clipPath id="clip0">
<rect width="22.311" height="22.311" fill="white" transform="translate(11.2827 11.9653)"/>
</clipPath>
</defs>
</svg>
