<svg width="54" height="54" viewBox="0 0 54 54" fill="none" xmlns="http://www.w3.org/2000/svg">
<circle cx="27" cy="27" r="27" fill="#366796"/>
<path d="M13.7932 39.913H38.1519V38.7391L39.3258 37.5652V36.3913V35.2174V34.0435L38.1519 33.163L37.2714 30.2283V25.5326L37.5649 24.3587L36.9779 23.4783L38.1519 21.4239L36.9779 20.837L37.5649 19.0761L38.1519 17.3152L37.5649 15.5543L34.9236 14.6739V13.5H33.4562V14.6739L31.4019 15.8478L31.1084 17.3152L31.9888 19.0761V20.5435L31.4019 21.4239L31.9888 23.4783L31.1084 24.3587L31.9888 26.1196L31.4019 30.8152L30.2279 30.2283L27.2932 28.7609L24.0649 21.4239V13.5H19.0758V21.4239L18.4888 24.9457H13.7932V26.413L14.6736 28.1739L12.9127 30.2283V38.7391L13.7932 39.913Z" fill="white"/>
<path d="M20.4518 39.2531H14.9491C14.5843 39.2527 14.2347 39.1076 13.9768 38.8497C13.7189 38.5918 13.5738 38.2421 13.5734 37.8774H20.9103V36.9603H13.5734V31.4576H21.3689V30.5404H13.6067C13.6633 30.2859 13.7916 30.0529 13.9764 29.8689L14.7361 29.1092C14.9496 28.8968 15.119 28.6441 15.2342 28.3658C15.3495 28.0875 15.4084 27.7891 15.4076 27.4879V27.3305H19.9932V27.4879C19.9924 27.7891 20.0513 28.0875 20.1666 28.3658C20.2819 28.6441 20.4512 28.8968 20.6648 29.1092L21.4245 29.8689C21.6277 30.0714 21.7622 30.3326 21.8088 30.6157L22.7135 30.4652C22.6358 29.9933 22.4118 29.5579 22.073 29.2203L21.3133 28.4606C21.1852 28.3332 21.0836 28.1816 21.0144 28.0146C20.9452 27.8476 20.9098 27.6686 20.9103 27.4879V27.3139C21.3119 27.2559 21.6767 27.048 21.9312 26.732C22.1856 26.416 22.311 26.0153 22.2819 25.6105C22.2528 25.2058 22.0716 24.8271 21.7745 24.5507C21.4775 24.2743 21.0868 24.1206 20.6811 24.1206H14.7198C14.314 24.1206 13.9233 24.2743 13.6263 24.5507C13.3293 24.8271 13.148 25.2058 13.1189 25.6105C13.0899 26.0153 13.2152 26.416 13.4697 26.732C13.7242 27.048 14.0889 27.2559 14.4905 27.3139V27.4879C14.491 27.6686 14.4556 27.8476 14.3865 28.0146C14.3173 28.1816 14.2157 28.3332 14.0875 28.4606L13.3278 29.2203C13.1142 29.4328 12.9449 29.6854 12.8296 29.9637C12.7144 30.242 12.6554 30.5404 12.6563 30.8417V37.8774C12.657 38.4853 12.8987 39.0681 13.3286 39.4979C13.7584 39.9277 14.3412 40.1695 14.9491 40.1702H20.4518C20.8541 40.1694 21.2491 40.0632 21.5976 39.8621C21.946 39.661 22.2356 39.3721 22.4375 39.0241L21.6437 38.5649C21.5225 38.7738 21.3487 38.9473 21.1395 39.068C20.9304 39.1888 20.6933 39.2526 20.4518 39.2531V39.2531ZM14.0319 25.7256C14.0321 25.5432 14.1047 25.3684 14.2336 25.2394C14.3626 25.1105 14.5374 25.0379 14.7198 25.0377H20.6811C20.8635 25.0377 21.0384 25.1102 21.1674 25.2392C21.2964 25.3682 21.3689 25.5431 21.3689 25.7256C21.3689 25.908 21.2964 26.0829 21.1674 26.2119C21.0384 26.3409 20.8635 26.4134 20.6811 26.4134H14.7198C14.5374 26.4132 14.3626 26.3407 14.2336 26.2117C14.1047 26.0828 14.0321 25.9079 14.0319 25.7256V25.7256Z" fill="#C4C4C4"/>
<path d="M17.6999 32.8329C18.2683 32.8266 18.8329 32.9271 19.3643 33.129L19.7039 32.2771C19.0644 32.0322 18.3846 31.9096 17.6999 31.9157C15.6428 31.9157 14.0314 32.9229 14.0314 34.2085C14.0314 35.4942 15.6428 36.5013 17.6999 36.5013C18.3846 36.5074 19.0644 36.3849 19.7039 36.14L19.3643 35.288C18.8329 35.49 18.2683 35.5905 17.6999 35.5842C16.0784 35.5842 14.9485 34.8592 14.9485 34.2085C14.9485 33.5579 16.0784 32.8329 17.6999 32.8329Z" fill="#C4C4C4"/>
<path d="M19.9345 20.9103H23.7196C23.8751 22.5778 24.338 24.2021 25.0848 25.701C25.37 26.2718 25.6115 26.8634 25.8072 27.4707L26.6802 27.1897C26.4703 26.538 26.2112 25.9032 25.9051 25.2908C25.0345 23.5443 24.5802 21.6199 24.5779 19.6684V14.0319C24.5774 13.6672 24.4324 13.3175 24.1745 13.0596C23.9166 12.8017 23.5669 12.6567 23.2022 12.6562H20.4508C20.0861 12.6567 19.7364 12.8017 19.4785 13.0596C19.2206 13.3175 19.0756 13.6672 19.0751 14.0319V19.6684C19.0751 20.8214 18.9165 21.969 18.6038 23.0787L19.4865 23.3275C19.7091 22.5371 19.859 21.728 19.9345 20.9103V20.9103ZM19.9879 19.9932C19.9905 19.885 19.9923 19.7767 19.9923 19.6684V18.159H23.6607V19.6684C23.6607 19.7767 23.6629 19.885 23.6655 19.9932H19.9879ZM19.9923 17.2418V16.3247H23.6607V17.2418H19.9923ZM20.4508 13.5734H23.2022C23.3238 13.5735 23.4403 13.6219 23.5263 13.7078C23.6122 13.7938 23.6606 13.9104 23.6607 14.0319V15.4076H19.9923V14.949H22.7436V14.0319H19.9923C19.9924 13.9104 20.0408 13.7938 20.1267 13.7078C20.2127 13.6219 20.3292 13.5735 20.4508 13.5734V13.5734Z" fill="#C4C4C4"/>
<path d="M40.1693 36.7307C40.1692 36.458 40.0995 36.1899 39.967 35.9516C39.8345 35.7133 39.6435 35.5127 39.412 35.3687C39.576 35.1391 39.6766 34.8703 39.7035 34.5894C39.7303 34.3085 39.6826 34.0255 39.5651 33.769C39.4476 33.5125 39.2645 33.2915 39.0343 33.1284C38.8041 32.9653 38.5349 32.8658 38.2539 32.84L38.0386 31.7635C37.6511 29.8239 37.4442 27.8526 37.4203 25.8748C37.6881 25.7796 37.9199 25.6038 38.0837 25.3715C38.2475 25.1392 38.3353 24.8619 38.3351 24.5776C38.3348 24.2934 38.2465 24.0162 38.0823 23.7842C37.918 23.5522 37.686 23.3768 37.4179 23.282V22.6657C37.6862 22.5709 37.9184 22.3953 38.0826 22.1631C38.2469 21.9308 38.3351 21.6534 38.3351 21.3689C38.3351 21.0845 38.2469 20.807 38.0826 20.5748C37.9184 20.3425 37.6862 20.1669 37.4179 20.0721V19.2889C37.8282 19.0898 38.1744 18.7799 38.4175 18.3941C38.6607 18.0083 38.7909 17.5622 38.7936 17.1063C38.7962 16.6503 38.6712 16.2027 38.4326 15.8141C38.194 15.4256 37.8513 15.1116 37.4435 14.9077C36.9801 14.6769 36.4761 14.5388 35.9597 14.5013C36.0351 14.2935 36.0594 14.0706 36.0304 13.8514C36.0014 13.6323 35.92 13.4234 35.7931 13.2424C35.6663 13.0613 35.4976 12.9136 35.3015 12.8115C35.1054 12.7095 34.8876 12.6562 34.6666 12.6562C34.4455 12.6562 34.2277 12.7095 34.0316 12.8115C33.8356 12.9136 33.6669 13.0613 33.5401 13.2424C33.4132 13.4234 33.3318 13.6323 33.3028 13.8514C33.2738 14.0706 33.298 14.2935 33.3734 14.5013C32.8571 14.5388 32.3531 14.6769 31.8896 14.9077C31.4818 15.1116 31.1392 15.4256 30.9006 15.8142C30.662 16.2027 30.5369 16.6503 30.5396 17.1063C30.5423 17.5622 30.6725 18.0084 30.9156 18.3941C31.1588 18.7799 31.505 19.0898 31.9152 19.2889V20.0721C31.647 20.1669 31.4148 20.3425 31.2506 20.5748C31.0863 20.807 30.9981 21.0845 30.9981 21.3689C30.9981 21.6534 31.0863 21.9308 31.2506 22.1631C31.4148 22.3953 31.647 22.5709 31.9152 22.6657V23.282C31.6473 23.3767 31.4153 23.5521 31.2511 23.784C31.0869 24.0158 30.9985 24.2929 30.9981 24.5771C30.9977 24.8612 31.0854 25.1385 31.249 25.3708C31.4126 25.6032 31.6442 25.7791 31.9118 25.8745C31.8955 27.2606 31.7893 28.6443 31.5939 30.0167L32.5018 30.1464C32.6996 28.7575 32.8086 27.3573 32.8283 25.9545H36.5043C36.5327 27.966 36.7453 29.9707 37.1392 31.9434L37.3171 32.8329H35.1251V33.75H38.1058C38.2882 33.75 38.4632 33.8225 38.5922 33.9515C38.7212 34.0805 38.7936 34.2554 38.7936 34.4379C38.7936 34.6203 38.7212 34.7953 38.5922 34.9242C38.4632 35.0532 38.2882 35.1257 38.1058 35.1257H34.6666V36.0428H38.5643C38.7468 36.0428 38.9217 36.1153 39.0507 36.2443C39.1797 36.3733 39.2522 36.5482 39.2522 36.7307C39.2522 36.9131 39.1797 37.088 39.0507 37.217C38.9217 37.346 38.7468 37.4185 38.5643 37.4185H33.2909V38.3356H37.8765V39.2527H32.3738V40.1699H38.3351C38.4567 40.1699 38.5733 40.1215 38.6593 40.0356C38.7453 39.9496 38.7936 39.8329 38.7936 39.7113V38.319C39.1754 38.2634 39.5244 38.0724 39.777 37.7808C40.0295 37.4892 40.1688 37.1164 40.1693 36.7307V36.7307ZM36.5008 22.7446V23.2032H32.8323V22.7446H36.5008ZM34.6666 13.5734C34.7573 13.5734 34.8459 13.6003 34.9214 13.6507C34.9968 13.7011 35.0555 13.7727 35.0902 13.8565C35.1249 13.9403 35.134 14.0325 35.1163 14.1214C35.0986 14.2104 35.055 14.2921 34.9908 14.3562C34.9267 14.4203 34.845 14.464 34.756 14.4817C34.6671 14.4994 34.5749 14.4903 34.4911 14.4556C34.4073 14.4209 34.3357 14.3621 34.2853 14.2867C34.2349 14.2113 34.208 14.1227 34.208 14.032C34.2082 13.9104 34.2565 13.7938 34.3425 13.7079C34.4285 13.6219 34.545 13.5735 34.6666 13.5734V13.5734ZM31.4567 17.0923C31.4557 16.8088 31.5342 16.5307 31.6832 16.2896C31.8322 16.0485 32.0458 15.854 32.2998 15.728C32.7214 15.5179 33.1859 15.4082 33.657 15.4076H35.6762C36.1472 15.4082 36.6117 15.5179 37.0333 15.728C37.3407 15.8817 37.5871 16.1346 37.7327 16.4458C37.8784 16.757 37.9146 17.1083 37.8357 17.4427C37.7568 17.7771 37.5672 18.0751 37.2978 18.2883C37.0283 18.5015 36.6948 18.6176 36.3512 18.6176H32.982C32.5776 18.6171 32.1899 18.4562 31.9039 18.1703C31.618 17.8843 31.4571 17.4966 31.4567 17.0923V17.0923ZM32.982 19.5347H36.3512C36.4015 19.5347 36.4513 19.5327 36.5008 19.5297V19.9932H32.8323V19.5297C32.8819 19.5327 32.9317 19.5347 32.982 19.5347ZM32.3738 20.9104H36.9594C37.081 20.9104 37.1976 20.9587 37.2836 21.0447C37.3696 21.1307 37.4179 21.2473 37.4179 21.3689C37.4179 21.4905 37.3696 21.6072 37.2836 21.6932C37.1976 21.7792 37.081 21.8275 36.9594 21.8275H32.3738C32.2522 21.8275 32.1355 21.7792 32.0495 21.6932C31.9635 21.6072 31.9152 21.4905 31.9152 21.3689C31.9152 21.2473 31.9635 21.1307 32.0495 21.0447C32.1355 20.9587 32.2522 20.9104 32.3738 20.9104ZM32.3738 24.1203H36.9594C37.081 24.1203 37.1976 24.1686 37.2836 24.2546C37.3696 24.3406 37.4179 24.4572 37.4179 24.5788C37.4179 24.7005 37.3696 24.8171 37.2836 24.9031C37.1976 24.9891 37.081 25.0374 36.9594 25.0374H32.3738C32.2522 25.0374 32.1355 24.9891 32.0495 24.9031C31.9635 24.8171 31.9152 24.7005 31.9152 24.5788C31.9152 24.4572 31.9635 24.3406 32.0495 24.2546C32.1355 24.1686 32.2522 24.1203 32.3738 24.1203Z" fill="#C4C4C4"/>
<path d="M33.7495 31.9158H32.5638L30.248 29.5999C29.4734 28.8271 28.4239 28.3931 27.3297 28.3931C26.2355 28.3931 25.186 28.8271 24.4114 29.5999L22.0955 31.9158H20.9099C20.7882 31.9158 20.6716 31.9641 20.5856 32.0501C20.4996 32.1361 20.4513 32.2527 20.4513 32.3743V33.75C20.4513 35.0839 21.0651 36.3578 22.1796 37.337C22.4942 37.6126 22.8371 37.8541 23.2027 38.0574V39.7113C23.2027 39.8329 23.251 39.9495 23.337 40.0355C23.423 40.1215 23.5396 40.1698 23.6612 40.1698H30.9982C31.1198 40.1698 31.2364 40.1215 31.3224 40.0355C31.4084 39.9495 31.4567 39.8329 31.4567 39.7113V38.0574C31.8223 37.8541 32.1652 37.6126 32.4798 37.337C33.5943 36.3578 34.2081 35.0839 34.2081 33.75V32.3743C34.2081 32.2527 34.1598 32.1361 34.0738 32.0501C33.9878 31.9641 33.8711 31.9158 33.7495 31.9158ZM25.06 30.2484C25.6624 29.6473 26.4787 29.3097 27.3297 29.3097C28.1807 29.3097 28.997 29.6473 29.5994 30.2484L31.2667 31.9158H23.3926L25.06 30.2484ZM30.5396 39.2527H24.1198V38.4713C24.7086 38.6818 25.3287 38.791 25.954 38.7942H28.7054C29.3306 38.791 29.9508 38.6818 30.5396 38.4713V39.2527ZM33.291 33.75C33.291 34.8162 32.7879 35.8455 31.8745 36.648C30.9855 37.4291 29.8304 37.877 28.7054 37.877H25.954C24.8289 37.877 23.6739 37.4291 22.7849 36.648C21.8715 35.8455 21.3684 34.8162 21.3684 33.75V32.8329H33.291V33.75Z" fill="#C4C4C4"/>
</svg>
