<svg width="202" height="201" viewBox="0 0 202 201" fill="none" xmlns="http://www.w3.org/2000/svg">
<circle cx="100" cy="100" r="100" fill="#3C58A0"/>
<path d="M25.9216 97.7695H171.78V135.82H25.9216V97.7695Z" fill="#B2B1B3"/>
<path d="M41.7756 113.624H155.926V119.965H41.7756V113.624Z" fill="#9894A8"/>
<path d="M38.6045 132.648H44.9462V135.819H38.6045V132.648Z" fill="#97969B"/>
<path d="M51.2881 132.648H57.6297V135.819H51.2881V132.648Z" fill="#97969B"/>
<path d="M63.9709 132.648H70.3126V135.819H63.9709V132.648Z" fill="#97969B"/>
<path d="M76.6545 132.648H82.9962V135.819H76.6545V132.648Z" fill="#97969B"/>
<path d="M89.3381 132.648H95.6798V135.819H89.3381V132.648Z" fill="#97969B"/>
<path d="M102.021 132.648H108.363V135.819H102.021V132.648Z" fill="#97969B"/>
<path d="M114.705 132.648H121.047V135.819H114.705V132.648Z" fill="#97969B"/>
<path d="M127.388 132.648H133.73V135.819H127.388V132.648Z" fill="#97969B"/>
<path d="M140.072 132.648H146.413V135.819H140.072V132.648Z" fill="#97969B"/>
<path d="M152.755 132.648H159.096V135.819H152.755V132.648Z" fill="#97969B"/>
<path d="M25.9215 97.7695C15.415 97.7695 6.89648 106.288 6.89648 116.795C6.89648 127.301 15.415 135.82 25.9215 135.82C36.428 135.82 44.9465 127.301 44.9465 116.795C44.9465 106.288 36.428 97.7695 25.9215 97.7695ZM25.9215 123.136C22.4193 123.136 19.5798 120.297 19.5798 116.795C19.5798 113.292 22.4193 110.453 25.9215 110.453C29.4236 110.453 32.2631 113.292 32.2631 116.795C32.2631 120.297 29.4236 123.136 25.9215 123.136Z" fill="#535357"/>
<path d="M25.9215 97.7695C15.415 97.7695 6.89648 106.288 6.89648 116.795C6.89648 127.301 15.415 135.82 25.9215 135.82C36.428 135.82 44.9465 127.301 44.9465 116.795C44.9465 106.288 36.428 97.7695 25.9215 97.7695ZM25.9215 132.649C17.1661 132.649 10.0673 125.55 10.0673 116.795C10.0673 108.039 17.1661 100.94 25.9215 100.94C34.6769 100.94 41.7756 108.039 41.7756 116.795C41.7756 125.55 34.6769 132.649 25.9215 132.649Z" fill="#3E3D42"/>
<path d="M32.2634 116.795C32.2634 120.297 29.4239 123.137 25.9217 123.137C22.4196 123.137 19.5801 120.297 19.5801 116.795C19.5801 113.293 22.4196 110.454 25.9217 110.454C29.4239 110.454 32.2634 113.293 32.2634 116.795Z" fill="#D4D4D5"/>
<path d="M25.9217 110.454C22.4196 110.454 19.5801 113.293 19.5801 116.795C19.5801 120.297 22.4196 123.137 25.9217 123.137" fill="#B5B3C1"/>
<path d="M38.6047 113.624H34.8502C33.8918 110.938 31.7784 108.825 29.0922 107.866V104.112H22.7505V107.866C20.0643 108.825 17.9509 110.938 16.9926 113.624H13.238V119.966H16.9926C17.9509 122.652 20.0643 124.766 22.7505 125.724V129.478H29.0922V125.724C31.7784 124.766 33.8918 122.652 34.8502 119.966H38.6047V113.624ZM25.9214 119.966C24.1703 119.966 22.7505 118.546 22.7505 116.795C22.7505 115.044 24.1703 113.624 25.9214 113.624C27.6724 113.624 29.0922 115.044 29.0922 116.795C29.0922 118.546 27.6724 119.966 25.9214 119.966Z" fill="#79787D"/>
<path d="M171.78 97.7695C161.273 97.7695 152.755 106.288 152.755 116.795C152.755 127.301 161.273 135.82 171.78 135.82C182.286 135.82 190.805 127.301 190.805 116.795C190.805 106.288 182.286 97.7695 171.78 97.7695ZM171.78 123.136C168.277 123.136 165.438 120.297 165.438 116.795C165.438 113.292 168.277 110.453 171.78 110.453C175.282 110.453 178.121 113.292 178.121 116.795C178.121 120.297 175.282 123.136 171.78 123.136Z" fill="#535357"/>
<path d="M171.78 97.7695C161.273 97.7695 152.755 106.288 152.755 116.795C152.755 127.301 161.273 135.82 171.78 135.82C182.286 135.82 190.805 127.301 190.805 116.795C190.805 106.288 182.286 97.7695 171.78 97.7695ZM171.78 132.649C163.024 132.649 155.925 125.55 155.925 116.795C155.925 108.039 163.024 100.94 171.78 100.94C180.535 100.94 187.634 108.039 187.634 116.795C187.634 125.55 180.535 132.649 171.78 132.649Z" fill="#3E3D42"/>
<path d="M178.121 116.795C178.121 120.297 175.282 123.137 171.78 123.137C168.277 123.137 165.438 120.297 165.438 116.795C165.438 113.293 168.277 110.454 171.78 110.454C175.282 110.454 178.121 113.293 178.121 116.795Z" fill="#D4D4D5"/>
<path d="M171.78 110.454C168.277 110.454 165.438 113.293 165.438 116.795C165.438 120.297 168.277 123.137 171.78 123.137" fill="#B5B3C1"/>
<path d="M184.463 113.624H180.709C179.75 110.938 177.637 108.825 174.951 107.866V104.112H168.609V107.866C165.923 108.825 163.81 110.938 162.851 113.624H159.097V119.966H162.851C163.81 122.652 165.923 124.766 168.609 125.724V129.478H174.951V125.724C177.637 124.766 179.75 122.652 180.709 119.966H184.463V113.624ZM171.78 119.966C170.029 119.966 168.609 118.546 168.609 116.795C168.609 115.044 170.029 113.624 171.78 113.624C173.531 113.624 174.951 115.044 174.951 116.795C174.951 118.546 173.531 119.966 171.78 119.966Z" fill="#79787D"/>
<path d="M38.6045 97.7695H44.9462V100.94H38.6045V97.7695Z" fill="#97969B"/>
<path d="M51.2881 97.7695H57.6297V100.94H51.2881V97.7695Z" fill="#97969B"/>
<path d="M63.9709 97.7695H70.3126V100.94H63.9709V97.7695Z" fill="#97969B"/>
<path d="M76.6545 97.7695H82.9962V100.94H76.6545V97.7695Z" fill="#97969B"/>
<path d="M89.3381 97.7695H95.6798V100.94H89.3381V97.7695Z" fill="#97969B"/>
<path d="M102.021 97.7695H108.363V100.94H102.021V97.7695Z" fill="#97969B"/>
<path d="M114.705 97.7695H121.047V100.94H114.705V97.7695Z" fill="#97969B"/>
<path d="M127.388 97.7695H133.73V100.94H127.388V97.7695Z" fill="#97969B"/>
<path d="M140.072 97.7695H146.413V100.94H140.072V97.7695Z" fill="#97969B"/>
<path d="M152.755 97.7695H159.096V100.94H152.755V97.7695Z" fill="#97969B"/>
<path d="M98.8507 97.7695C88.3442 97.7695 79.8257 106.288 79.8257 116.795C79.8257 127.301 88.3442 135.82 98.8507 135.82C109.357 135.82 117.876 127.301 117.876 116.795C117.876 106.288 109.357 97.7695 98.8507 97.7695ZM98.8507 123.136C95.3485 123.136 92.509 120.297 92.509 116.795C92.509 113.292 95.3485 110.453 98.8507 110.453C102.353 110.453 105.192 113.292 105.192 116.795C105.192 120.297 102.353 123.136 98.8507 123.136Z" fill="#535357"/>
<path d="M98.8507 97.7695C88.3442 97.7695 79.8257 106.288 79.8257 116.795C79.8257 127.301 88.3442 135.82 98.8507 135.82C109.357 135.82 117.876 127.301 117.876 116.795C117.876 106.288 109.357 97.7695 98.8507 97.7695ZM98.8507 132.649C90.0953 132.649 82.9965 125.55 82.9965 116.795C82.9965 108.039 90.0953 100.94 98.8507 100.94C107.606 100.94 114.705 108.039 114.705 116.795C114.705 125.55 107.606 132.649 98.8507 132.649Z" fill="#3E3D42"/>
<path d="M105.192 116.795C105.192 120.297 102.352 123.137 98.8502 123.137C95.348 123.137 92.5085 120.297 92.5085 116.795C92.5085 113.293 95.348 110.454 98.8502 110.454C102.352 110.454 105.192 113.293 105.192 116.795Z" fill="#D4D4D5"/>
<path d="M98.8502 110.454C95.348 110.454 92.5085 113.293 92.5085 116.795C92.5085 120.297 95.348 123.137 98.8502 123.137" fill="#B5B3C1"/>
<path d="M111.534 113.624H107.78C106.821 110.938 104.708 108.825 102.022 107.866V104.112H95.6802V107.866C92.994 108.825 90.8806 110.938 89.9222 113.624H86.1677V119.966H89.9222C90.8806 122.652 92.994 124.766 95.6802 125.724V129.478H102.022V125.724C104.708 124.766 106.821 122.652 107.78 119.966H111.534V113.624ZM98.8511 119.966C97.1 119.966 95.6802 118.546 95.6802 116.795C95.6802 115.044 97.1 113.624 98.8511 113.624C100.602 113.624 102.022 115.044 102.022 116.795C102.022 118.546 100.602 119.966 98.8511 119.966Z" fill="#79787D"/>
<path d="M59.8123 62.2339H23.6654C23.1009 62.2339 22.6433 62.6915 22.6433 63.2559V92.5951C22.6433 93.1596 23.1009 93.6172 23.6654 93.6172H59.8123C60.3768 93.6172 60.8344 93.1596 60.8344 92.5951V63.2559C60.8344 62.6915 60.3768 62.2339 59.8123 62.2339Z" fill="#DDB087"/>
<path d="M60.8344 66.248V63.2559C60.8344 62.9849 60.7267 62.7249 60.535 62.5332C60.3434 62.3416 60.0834 62.2339 59.8123 62.2339H23.6654C23.3943 62.2339 23.1343 62.3416 22.9427 62.5332C22.751 62.7249 22.6433 62.9849 22.6433 63.2559V66.248H60.8344Z" fill="#BF9A71"/>
<path d="M60.9052 57.4712H22.5721C22.0076 57.4712 21.55 57.9288 21.55 58.4932V64.3118C21.55 64.8763 22.0076 65.3339 22.5721 65.3339H60.9052C61.4696 65.3339 61.9272 64.8763 61.9272 64.3118V58.4932C61.9272 57.9288 61.4696 57.4712 60.9052 57.4712Z" fill="#DDB087"/>
<path d="M35.0289 91.9692C34.9359 91.9692 34.8467 91.9325 34.7807 91.8669C34.7147 91.8014 34.6773 91.7124 34.6767 91.6195L34.6123 81.6227C34.6119 81.5765 34.6207 81.5306 34.6381 81.4877C34.6555 81.4448 34.6812 81.4058 34.7136 81.3729C34.7461 81.3399 34.7848 81.3137 34.8274 81.2957C34.8701 81.2777 34.9158 81.2683 34.9621 81.2681H34.9642C35.0572 81.268 35.1466 81.3047 35.2126 81.3702C35.2787 81.4358 35.3161 81.5248 35.3168 81.6178L35.3811 91.6139C35.3818 91.7073 35.3453 91.7972 35.2797 91.8638C35.2141 91.9303 35.1248 91.9681 35.0314 91.9689L35.0289 91.9692Z" fill="#2F3A5A"/>
<path d="M37.1486 84.5781C37.0971 84.5782 37.0461 84.5669 36.9994 84.5452C36.9527 84.5234 36.9113 84.4917 36.8782 84.4522L34.9821 82.1887L33.3731 84.3423C33.3171 84.4173 33.2337 84.467 33.1411 84.4804C33.0486 84.4938 32.9545 84.47 32.8795 84.414C32.8046 84.3581 32.7549 84.2747 32.7415 84.1821C32.728 84.0896 32.7519 83.9955 32.8078 83.9205L34.6805 81.4101C34.7124 81.3675 34.7535 81.3326 34.8007 81.3081C34.848 81.2835 34.9002 81.27 34.9534 81.2685C35.0066 81.2659 35.0598 81.2759 35.1084 81.2978C35.157 81.3197 35.1998 81.3528 35.2332 81.3944L37.4169 83.9992C37.4599 84.0506 37.4874 84.1132 37.4961 84.1797C37.5048 84.2462 37.4944 84.3138 37.466 84.3746C37.4377 84.4353 37.3926 84.4867 37.3361 84.5228C37.2795 84.5588 37.2139 84.578 37.1468 84.5781H37.1486Z" fill="#2F3A5A"/>
<path d="M28.4577 91.9692C28.3647 91.9692 28.2754 91.9325 28.2094 91.867C28.1434 91.8014 28.1059 91.7125 28.1051 91.6195L28.0408 81.6227C28.0405 81.5765 28.0492 81.5306 28.0667 81.4878C28.0841 81.4449 28.1097 81.4059 28.1422 81.373C28.1747 81.34 28.2133 81.3138 28.256 81.2958C28.2986 81.2778 28.3443 81.2684 28.3906 81.2681H28.393C28.4861 81.268 28.5754 81.3047 28.6414 81.3702C28.7075 81.4358 28.7449 81.5248 28.7456 81.6178L28.8099 91.6139C28.8106 91.7073 28.7741 91.7972 28.7085 91.8638C28.6429 91.9303 28.5536 91.9681 28.4602 91.9689L28.4577 91.9692Z" fill="#2F3A5A"/>
<path d="M30.5752 84.578C30.5237 84.5783 30.4727 84.5671 30.4259 84.5453C30.3792 84.5236 30.3378 84.4917 30.3048 84.4521L28.4073 82.1887L26.8011 84.3423C26.7428 84.4102 26.6609 84.4534 26.572 84.4632C26.4831 84.473 26.3937 84.4486 26.3221 84.3949C26.2505 84.3413 26.202 84.2624 26.1863 84.1743C26.1707 84.0862 26.1892 83.9954 26.238 83.9204L28.1107 81.4101C28.1425 81.3674 28.1835 81.3326 28.2307 81.308C28.2779 81.2835 28.33 81.2699 28.3832 81.2684C28.4364 81.266 28.4895 81.2761 28.5381 81.298C28.5867 81.3199 28.6295 81.3529 28.663 81.3943L30.8467 83.9991C30.8897 84.0506 30.9172 84.1132 30.9259 84.1797C30.9346 84.2462 30.9242 84.3137 30.8958 84.3745C30.8675 84.4353 30.8224 84.4867 30.7659 84.5227C30.7093 84.5588 30.6437 84.578 30.5766 84.578H30.5752Z" fill="#2F3A5A"/>
<path d="M36.3511 57.4712H47.126V69.8251H36.3511V57.4712Z" fill="#E1E6E9"/>
<path d="M118.429 62.2339H82.2821C81.7176 62.2339 81.26 62.6915 81.26 63.2559V92.5951C81.26 93.1596 81.7176 93.6172 82.2821 93.6172H118.429C118.993 93.6172 119.451 93.1596 119.451 92.5951V63.2559C119.451 62.6915 118.993 62.2339 118.429 62.2339Z" fill="#DDB087"/>
<path d="M119.451 66.248V63.2559C119.451 62.9849 119.343 62.7249 119.152 62.5332C118.96 62.3416 118.7 62.2339 118.429 62.2339H82.2821C82.011 62.2339 81.751 62.3416 81.5594 62.5332C81.3677 62.7249 81.26 62.9849 81.26 63.2559V66.248H119.451Z" fill="#BF9A71"/>
<path d="M119.522 57.4712H81.1888C80.6243 57.4712 80.1667 57.9288 80.1667 58.4932V64.3118C80.1667 64.8763 80.6243 65.3339 81.1888 65.3339H119.522C120.086 65.3339 120.544 64.8763 120.544 64.3118V58.4932C120.544 57.9288 120.086 57.4712 119.522 57.4712Z" fill="#DDB087"/>
<path d="M93.6458 91.9692C93.5529 91.9692 93.4636 91.9325 93.3976 91.8669C93.3317 91.8014 93.2943 91.7124 93.2936 91.6195L93.2293 81.6227C93.2289 81.5765 93.2377 81.5306 93.255 81.4877C93.2724 81.4448 93.2981 81.4058 93.3306 81.3729C93.3631 81.3399 93.4017 81.3137 93.4444 81.2957C93.487 81.2777 93.5328 81.2683 93.579 81.2681H93.5811C93.6742 81.268 93.7635 81.3047 93.8296 81.3702C93.8956 81.4358 93.9331 81.5248 93.9337 81.6178L93.9981 91.6139C93.9987 91.7073 93.9623 91.7972 93.8967 91.8638C93.8311 91.9303 93.7417 91.9681 93.6483 91.9689L93.6458 91.9692Z" fill="#2F3A5A"/>
<path d="M95.7648 84.5781C95.7133 84.5782 95.6623 84.5669 95.6156 84.5452C95.5689 84.5234 95.5275 84.4917 95.4944 84.4522L93.5983 82.1887L91.9893 84.3423C91.9333 84.4173 91.8499 84.467 91.7574 84.4804C91.6648 84.4938 91.5707 84.47 91.4957 84.414C91.4208 84.3581 91.3711 84.2747 91.3577 84.1821C91.3442 84.0896 91.3681 83.9955 91.424 83.9205L93.2968 81.4101C93.3286 81.3675 93.3697 81.3326 93.417 81.3081C93.4642 81.2835 93.5164 81.27 93.5696 81.2685C93.6229 81.2659 93.676 81.2759 93.7246 81.2978C93.7732 81.3197 93.816 81.3528 93.8494 81.3944L96.0331 83.9992C96.0761 84.0506 96.1036 84.1132 96.1123 84.1797C96.121 84.2462 96.1106 84.3138 96.0822 84.3746C96.0539 84.4353 96.0088 84.4867 95.9523 84.5228C95.8957 84.5588 95.8301 84.578 95.7631 84.5781H95.7648Z" fill="#2F3A5A"/>
<path d="M87.0734 91.9692C86.9804 91.9692 86.8912 91.9325 86.8251 91.867C86.7591 91.8014 86.7216 91.7125 86.7209 91.6195L86.6565 81.6227C86.6562 81.5765 86.665 81.5306 86.6824 81.4878C86.6998 81.4449 86.7255 81.4059 86.7579 81.373C86.7904 81.34 86.8291 81.3138 86.8717 81.2958C86.9143 81.2778 86.96 81.2684 87.0063 81.2681H87.0087C87.1018 81.268 87.1911 81.3047 87.2572 81.3702C87.3232 81.4358 87.3607 81.5248 87.3613 81.6178L87.4257 91.6139C87.4263 91.7073 87.3898 91.7972 87.3243 91.8638C87.2587 91.9303 87.1693 91.9681 87.0759 91.9689L87.0734 91.9692Z" fill="#2F3A5A"/>
<path d="M89.1914 84.578C89.1399 84.5783 89.0889 84.5671 89.0422 84.5453C88.9954 84.5236 88.9541 84.4917 88.9211 84.4521L87.0235 82.1887L85.4173 84.3423C85.3591 84.4102 85.2772 84.4534 85.1882 84.4632C85.0993 84.473 85.0099 84.4486 84.9383 84.3949C84.8667 84.3413 84.8182 84.2624 84.8025 84.1743C84.7869 84.0862 84.8054 83.9954 84.8542 83.9204L86.7269 81.4101C86.7587 81.3674 86.7997 81.3326 86.8469 81.308C86.8941 81.2835 86.9462 81.2699 86.9994 81.2684C87.0526 81.266 87.1057 81.2761 87.1543 81.298C87.2029 81.3199 87.2457 81.3529 87.2792 81.3943L89.4629 83.9991C89.5059 84.0506 89.5334 84.1132 89.5421 84.1797C89.5508 84.2462 89.5404 84.3137 89.512 84.3745C89.4837 84.4353 89.4386 84.4867 89.3821 84.5227C89.3255 84.5588 89.2599 84.578 89.1928 84.578H89.1914Z" fill="#2F3A5A"/>
<path d="M94.9673 57.4712H105.742V69.8251H94.9673V57.4712Z" fill="#E1E6E9"/>
<path d="M173.381 62.2339H137.234C136.67 62.2339 136.212 62.6915 136.212 63.2559V92.5951C136.212 93.1596 136.67 93.6172 137.234 93.6172H173.381C173.946 93.6172 174.403 93.1596 174.403 92.5951V63.2559C174.403 62.6915 173.946 62.2339 173.381 62.2339Z" fill="#DDB087"/>
<path d="M174.403 66.248V63.2559C174.403 62.9849 174.296 62.7249 174.104 62.5332C173.912 62.3416 173.652 62.2339 173.381 62.2339H137.234C136.963 62.2339 136.703 62.3416 136.512 62.5332C136.32 62.7249 136.212 62.9849 136.212 63.2559V66.248H174.403Z" fill="#BF9A71"/>
<path d="M174.475 57.4712H136.142C135.577 57.4712 135.12 57.9288 135.12 58.4932V64.3118C135.12 64.8763 135.577 65.3339 136.142 65.3339H174.475C175.039 65.3339 175.497 64.8763 175.497 64.3118V58.4932C175.497 57.9288 175.039 57.4712 174.475 57.4712Z" fill="#DDB087"/>
<path d="M148.598 91.9692C148.505 91.9692 148.415 91.9325 148.349 91.8669C148.283 91.8014 148.246 91.7124 148.245 91.6195L148.181 81.6227C148.181 81.5765 148.189 81.5306 148.207 81.4877C148.224 81.4448 148.25 81.4058 148.282 81.3729C148.315 81.3399 148.353 81.3137 148.396 81.2957C148.439 81.2777 148.484 81.2683 148.531 81.2681H148.533C148.626 81.268 148.715 81.3047 148.781 81.3702C148.847 81.4358 148.885 81.5248 148.885 81.6178L148.95 91.6139C148.95 91.7073 148.914 91.7972 148.848 91.8638C148.783 91.9303 148.693 91.9681 148.6 91.9689L148.598 91.9692Z" fill="#2F3A5A"/>
<path d="M150.717 84.5781C150.666 84.5782 150.615 84.5669 150.568 84.5452C150.521 84.5234 150.48 84.4917 150.447 84.4522L148.551 82.1887L146.942 84.3423C146.886 84.4173 146.802 84.467 146.71 84.4804C146.617 84.4938 146.523 84.47 146.448 84.414C146.373 84.3581 146.324 84.2747 146.31 84.1821C146.297 84.0896 146.32 83.9955 146.376 83.9205L148.249 81.4101C148.281 81.3675 148.322 81.3326 148.369 81.3081C148.417 81.2835 148.469 81.27 148.522 81.2685C148.575 81.2659 148.628 81.2759 148.677 81.2978C148.726 81.3197 148.768 81.3528 148.802 81.3944L150.985 83.9992C151.029 84.0506 151.056 84.1132 151.065 84.1797C151.073 84.2462 151.063 84.3138 151.035 84.3746C151.006 84.4353 150.961 84.4867 150.905 84.5228C150.848 84.5588 150.782 84.578 150.715 84.5781H150.717Z" fill="#2F3A5A"/>
<path d="M142.026 91.9692C141.933 91.9692 141.844 91.9325 141.778 91.867C141.712 91.8014 141.674 91.7125 141.674 91.6195L141.609 81.6227C141.609 81.5765 141.618 81.5306 141.635 81.4878C141.653 81.4449 141.678 81.4059 141.711 81.373C141.743 81.34 141.782 81.3138 141.825 81.2958C141.867 81.2778 141.913 81.2684 141.959 81.2681H141.962C142.055 81.268 142.144 81.3047 142.21 81.3702C142.276 81.4358 142.314 81.5248 142.314 81.6178L142.379 91.6139C142.379 91.7073 142.343 91.7972 142.277 91.8638C142.212 91.9303 142.122 91.9681 142.029 91.9689L142.026 91.9692Z" fill="#2F3A5A"/>
<path d="M144.144 84.578C144.093 84.5783 144.042 84.5671 143.995 84.5453C143.948 84.5236 143.907 84.4917 143.874 84.4521L141.976 82.1887L140.37 84.3423C140.312 84.4102 140.23 84.4534 140.141 84.4632C140.052 84.473 139.963 84.4486 139.891 84.3949C139.82 84.3413 139.771 84.2624 139.755 84.1743C139.74 84.0862 139.758 83.9954 139.807 83.9204L141.68 81.4101C141.712 81.3674 141.753 81.3326 141.8 81.308C141.847 81.2835 141.899 81.2699 141.952 81.2684C142.005 81.266 142.059 81.2761 142.107 81.298C142.156 81.3199 142.199 81.3529 142.232 81.3943L144.416 83.9991C144.459 84.0506 144.486 84.1132 144.495 84.1797C144.504 84.2462 144.493 84.3137 144.465 84.3745C144.437 84.4353 144.391 84.4867 144.335 84.5227C144.278 84.5588 144.213 84.578 144.146 84.578H144.144Z" fill="#2F3A5A"/>
<path d="M149.92 57.4712H160.695V69.8251H149.92V57.4712Z" fill="#E1E6E9"/>
<circle cx="102" cy="101" r="100" fill="black" fill-opacity="0.31"/>
</svg>
