<svg width="200" height="204" viewBox="0 0 200 204" fill="none" xmlns="http://www.w3.org/2000/svg">
<path d="M100 200C155.228 200 200 155.228 200 100C200 44.7715 155.228 0 100 0C44.7715 0 0 44.7715 0 100C0 155.228 44.7715 200 100 200Z" fill="#3C58A0"/>
<path d="M33.3678 65.0412L66.6956 81.6061C66.6956 81.6061 91.2856 73.6479 95.1129 74.892C95.4848 75.0127 96.1129 75.262 96.9368 75.608L96.9399 75.61C104.579 78.8272 129.312 90.6401 129.312 90.6401L122.262 90.1901C125.13 93.8737 129.124 98.6953 131.393 100.101C135.214 102.467 126.115 109.2 118.475 104.285C110.833 99.3726 108.831 93.3683 108.831 93.3683L105.052 93.7585L131.555 118.096L135.765 123.143C139.408 127.509 134.885 133.815 128.936 131.893C129.031 131.965 128.694 131.866 128.783 132.108C129.123 133.024 129.811 135.224 129.191 136.297C127.013 140.072 123.733 142.978 116.785 137.686C118.468 138.968 119.5 141.985 118.332 143.74C116.743 146.127 114.991 147.204 113.074 147.788C111.055 148.404 108.009 146.474 106.328 145.193C108.011 146.474 108.812 149.512 107.691 151.301C106.311 153.503 101.926 156.739 99.1465 154.621L90.4129 147.969C90.4129 147.969 69.1535 127.384 62.5847 121.905C56.014 116.424 47.0842 105.273 47.0842 105.273L7.81689 83.4842L33.3697 65.04L33.3678 65.0412Z" fill="#FFC476"/>
<path d="M0.365771 91.4778L29.1124 110.69L59.4945 70.8011L22.926 36.2842C10.3064 51.5358 2.12711 70.5921 0.36499 91.4778H0.365771Z" fill="#0F7986"/>
<path d="M58.6855 71.8608L33.0791 105.478L37.9877 109.218L63.5941 75.5995L58.6855 71.8608Z" fill="white"/>
<path d="M166.633 65.0402L133.305 81.6051C130.641 82.929 121.069 76.6575 113.194 75.7016C107.492 75.0098 100.604 77.2211 101.014 77.434L118.866 85.6864C118.866 85.6864 127.569 97.7361 131.39 100.1C135.211 102.465 126.112 109.198 118.472 104.284C110.83 99.3712 108.828 93.3669 108.828 93.3669L93.0328 94.995L62.5803 121.906C58.3651 125.631 59.6541 127.575 62.4889 131.209C63.785 132.873 68.5487 132.312 70.5456 131.549C65.9338 135.057 72.5835 144.092 79.103 139.123C75.1604 142.127 80.8152 152.719 88.7109 146.703C84.7722 152.012 92.8 155.874 96.1754 154.914L98.6203 154.219L97.9961 153.744C97.7941 153.744 91.3996 147.187 91.0125 146.391C88.825 141.901 94.5894 135.821 99.7574 140.169L104.205 143.584L101.629 140.316C98.3414 136.009 100.871 131.561 104.02 130.213C106.327 129.226 108.716 130.322 110.663 132.242L115.575 136.179L111.39 131.288C111.39 131.288 107.375 126.753 111.06 122.704C114.745 118.655 119.738 123.509 119.738 123.509L125.616 128.368L120.557 122.509C120.557 122.509 116.176 117.903 119.125 114.822C123.221 110.541 128.289 114.757 132.29 118.973C133.44 120.185 134.624 122.047 135.523 122.906C139.939 117.936 142.91 112.549 142.91 112.549L192.186 83.4813L166.634 65.0371L166.633 65.0402Z" fill="#FFDDBE"/>
<path d="M199.635 91.477L170.887 110.691L140.507 70.8015L177.075 36.2842C189.696 51.5346 197.873 70.5913 199.636 91.477H199.635Z" fill="#747474"/>
<path d="M141.313 71.8608L166.921 105.478L162.011 109.218L136.406 75.5995L141.313 71.8608Z" fill="white"/>
<path d="M26.3163 100.074C27.3214 100.074 28.137 100.89 28.137 101.895C28.137 102.9 27.3226 103.716 26.3163 103.716C25.3113 103.716 24.4956 102.901 24.4956 101.895C24.4956 100.89 25.3101 100.074 26.3163 100.074ZM20.9003 96.6807C21.9054 96.6807 22.721 97.4951 22.721 98.5014C22.721 99.5065 21.9054 100.322 20.9003 100.322C19.8952 100.322 19.0796 99.5065 19.0796 98.5014C19.0796 97.4963 19.894 96.6807 20.9003 96.6807Z" fill="#ECF0F1"/>
<path d="M174.785 101.062C173.78 101.062 172.964 101.878 172.964 102.883C172.964 103.888 173.779 104.704 174.785 104.704C175.79 104.704 176.606 103.889 176.606 102.883C176.606 101.878 175.791 101.062 174.785 101.062ZM180.201 97.6689C179.196 97.6689 178.38 98.4834 178.38 99.4897C178.38 100.495 179.196 101.31 180.201 101.31C181.206 101.31 182.022 100.495 182.022 99.4897C182.022 98.4846 181.207 97.6689 180.201 97.6689Z" fill="white"/>
<circle cx="100" cy="104" r="100" fill="black" fill-opacity="0.31"/>
</svg>
