<svg width="35" height="35" viewBox="0 0 35 35" fill="none" xmlns="http://www.w3.org/2000/svg">
<circle cx="17.5" cy="17.5" r="17.5" fill="#054D6C"/>
<path d="M12.1429 20.8785V22.5135H5.57291V12.1185H7.46291V20.8785H12.1429ZM14.8611 22.5135C14.3611 21.4835 13.8461 20.3035 13.3161 18.9735C12.7961 17.6335 12.3211 16.1985 11.8911 14.6685H13.8261C13.9361 15.1085 14.0611 15.5835 14.2011 16.0935C14.3511 16.5935 14.5061 17.0985 14.6661 17.6085C14.8361 18.1085 15.0061 18.5985 15.1761 19.0785C15.3561 19.5485 15.5211 19.9735 15.6711 20.3535C15.8211 19.9735 15.9811 19.5485 16.1511 19.0785C16.3211 18.5985 16.4861 18.1085 16.6461 17.6085C16.8161 17.0985 16.9761 16.5935 17.1261 16.0935C17.2761 15.5835 17.4061 15.1085 17.5161 14.6685H19.3911C18.9611 16.1985 18.4811 17.6335 17.9511 18.9735C17.4311 20.3035 16.9211 21.4835 16.4211 22.5135H14.8611ZM24.4426 14.2785C25.0226 14.0485 25.6026 13.7535 26.1826 13.3935C26.7726 13.0335 27.2926 12.6085 27.7426 12.1185H29.0176V22.5135H27.2026V14.5485C26.9326 14.7585 26.5926 14.9635 26.1826 15.1635C25.7726 15.3635 25.3776 15.5285 24.9976 15.6585L24.4426 14.2785Z" fill="#2AFAA5"/>
</svg>
