<svg width="79" height="31" viewBox="0 0 79 31" fill="none" xmlns="http://www.w3.org/2000/svg">
<path d="M36.2069 9.526H38.4749V22H36.2069V9.526ZM41.3548 12.892C41.7748 12.772 42.3208 12.658 42.9928 12.55C43.6648 12.442 44.4088 12.388 45.2248 12.388C45.9928 12.388 46.6348 12.496 47.1508 12.712C47.6668 12.916 48.0748 13.21 48.3748 13.594C48.6868 13.966 48.9028 14.422 49.0228 14.962C49.1548 15.49 49.2207 16.072 49.2207 16.708V22H47.0428V17.05C47.0428 16.546 47.0068 16.12 46.9348 15.772C46.8748 15.412 46.7668 15.124 46.6108 14.908C46.4668 14.68 46.2628 14.518 45.9988 14.422C45.7468 14.314 45.4348 14.26 45.0628 14.26C44.7868 14.26 44.4988 14.278 44.1988 14.314C43.8988 14.35 43.6768 14.38 43.5328 14.404V22H41.3548V12.892ZM55.718 8.032C56.222 8.032 56.666 8.08 57.05 8.176C57.434 8.26 57.722 8.338 57.914 8.41L57.5 10.21C57.296 10.114 57.056 10.036 56.78 9.976C56.516 9.916 56.228 9.886 55.916 9.886C55.568 9.886 55.274 9.94 55.034 10.048C54.794 10.144 54.602 10.282 54.458 10.462C54.314 10.642 54.212 10.864 54.152 11.128C54.092 11.38 54.062 11.656 54.062 11.956V12.586H57.482V14.404H54.062V22H51.884V11.92C51.884 10.708 52.202 9.76 52.838 9.076C53.474 8.38 54.434 8.032 55.718 8.032ZM67.4293 17.284C67.4293 18.028 67.3213 18.706 67.1053 19.318C66.8893 19.93 66.5833 20.452 66.1873 20.884C65.7913 21.316 65.3113 21.652 64.7473 21.892C64.1953 22.132 63.5833 22.252 62.9113 22.252C62.2393 22.252 61.6273 22.132 61.0753 21.892C60.5233 21.652 60.0493 21.316 59.6533 20.884C59.2573 20.452 58.9453 19.93 58.7173 19.318C58.5013 18.706 58.3933 18.028 58.3933 17.284C58.3933 16.54 58.5013 15.868 58.7173 15.268C58.9453 14.656 59.2573 14.134 59.6533 13.702C60.0613 13.27 60.5413 12.94 61.0933 12.712C61.6453 12.472 62.2513 12.352 62.9113 12.352C63.5713 12.352 64.1773 12.472 64.7293 12.712C65.2933 12.94 65.7733 13.27 66.1693 13.702C66.5653 14.134 66.8713 14.656 67.0873 15.268C67.3153 15.868 67.4293 16.54 67.4293 17.284ZM65.1973 17.284C65.1973 16.348 64.9933 15.61 64.5853 15.07C64.1893 14.518 63.6313 14.242 62.9113 14.242C62.1913 14.242 61.6273 14.518 61.2193 15.07C60.8233 15.61 60.6253 16.348 60.6253 17.284C60.6253 18.232 60.8233 18.982 61.2193 19.534C61.6273 20.086 62.1913 20.362 62.9113 20.362C63.6313 20.362 64.1893 20.086 64.5853 19.534C64.9933 18.982 65.1973 18.232 65.1973 17.284Z" fill="black"/>
<path d="M15.5 0C6.9404 0 0 6.9404 0 15.5C0 24.0596 6.9404 31 15.5 31C24.0596 31 31 24.0596 31 15.5C31 6.9404 24.0596 0 15.5 0ZM16.6071 22.9732C16.6071 23.1254 16.4826 23.25 16.3304 23.25H14.6696C14.5174 23.25 14.3929 23.1254 14.3929 22.9732V13.5625C14.3929 13.4103 14.5174 13.2857 14.6696 13.2857H16.3304C16.4826 13.2857 16.6071 13.4103 16.6071 13.5625V22.9732ZM15.5 11.0714C15.0654 11.0626 14.6516 10.8837 14.3474 10.5732C14.0432 10.2627 13.8728 9.84538 13.8728 9.41071C13.8728 8.97604 14.0432 8.55869 14.3474 8.24821C14.6516 7.93774 15.0654 7.75887 15.5 7.75C15.9346 7.75887 16.3484 7.93774 16.6526 8.24821C16.9568 8.55869 17.1272 8.97604 17.1272 9.41071C17.1272 9.84538 16.9568 10.2627 16.6526 10.5732C16.3484 10.8837 15.9346 11.0626 15.5 11.0714Z" fill="#393232"/>
</svg>
