<svg width="23" height="22" viewBox="0 0 23 22" fill="none" xmlns="http://www.w3.org/2000/svg">
<path d="M11.4854 0C5.26361 0 0.21875 4.92545 0.21875 11C0.21875 17.0746 5.26361 22 11.4854 22C17.7073 22 22.7521 17.0746 22.7521 11C22.7521 4.92545 17.7073 0 11.4854 0ZM12.2902 16.3036C12.2902 16.4116 12.1997 16.5 12.089 16.5H10.8819C10.7712 16.5 10.6807 16.4116 10.6807 16.3036V9.625C10.6807 9.51696 10.7712 9.42857 10.8819 9.42857H12.089C12.1997 9.42857 12.2902 9.51696 12.2902 9.625V16.3036ZM11.4854 7.85714C11.1695 7.85085 10.8688 7.72391 10.6476 7.50357C10.4265 7.28323 10.3027 6.98705 10.3027 6.67857C10.3027 6.3701 10.4265 6.07391 10.6476 5.85357C10.8688 5.63323 11.1695 5.5063 11.4854 5.5C11.8013 5.5063 12.1021 5.63323 12.3232 5.85357C12.5443 6.07391 12.6682 6.3701 12.6682 6.67857C12.6682 6.98705 12.5443 7.28323 12.3232 7.50357C12.1021 7.72391 11.8013 7.85085 11.4854 7.85714Z" fill="white" fill-opacity="0.56"/>
</svg>
