<svg width="59" height="59" viewBox="0 0 59 59" fill="none" xmlns="http://www.w3.org/2000/svg">
<ellipse cx="29.3243" cy="29.4436" rx="29.191" ry="29.4436" fill="#366796"/>
<path d="M26.0829 38C25.7329 37.4333 25.3162 36.825 24.8329 36.175C24.3662 35.5083 23.8495 34.85 23.2829 34.2C22.7329 33.5333 22.1579 32.9 21.5579 32.3C20.9579 31.6833 20.3579 31.1417 19.7579 30.675V38H15.8579V20.675H19.7579V27.225C20.7745 26.1583 21.7912 25.05 22.8079 23.9C23.8412 22.7333 24.7995 21.6583 25.6829 20.675H30.3079C29.1245 22.075 27.9329 23.425 26.7329 24.725C25.5495 26.025 24.2995 27.3333 22.9829 28.65C24.3662 29.8 25.6995 31.1667 26.9829 32.75C28.2829 34.3333 29.5245 36.0833 30.7079 38H26.0829ZM34.8717 31C34.8717 33.0833 35.7134 34.125 37.3967 34.125C37.7801 34.125 38.1384 34.075 38.4717 33.975C38.8051 33.875 39.0884 33.7583 39.3217 33.625V27.675C39.1384 27.6417 38.9217 27.6167 38.6717 27.6C38.4217 27.5667 38.1301 27.55 37.7967 27.55C36.8134 27.55 36.0801 27.875 35.5967 28.525C35.1134 29.175 34.8717 30 34.8717 31ZM43.0467 36.35C43.0467 38.5 42.4967 40.0917 41.3967 41.125C40.3134 42.175 38.6301 42.7 36.3467 42.7C35.5467 42.7 34.7467 42.625 33.9467 42.475C33.1467 42.3417 32.4051 42.1583 31.7217 41.925L32.3717 38.8C32.9551 39.0333 33.5634 39.2167 34.1967 39.35C34.8467 39.4833 35.5801 39.55 36.3967 39.55C37.4634 39.55 38.2134 39.3167 38.6467 38.85C39.0967 38.3833 39.3217 37.7833 39.3217 37.05V36.575C38.9217 36.7583 38.5051 36.9 38.0717 37C37.6551 37.0833 37.1967 37.125 36.6967 37.125C34.8801 37.125 33.4884 36.5917 32.5217 35.525C31.5551 34.4417 31.0717 32.9333 31.0717 31C31.0717 30.0333 31.2217 29.1583 31.5217 28.375C31.8217 27.575 32.2551 26.8917 32.8217 26.325C33.4051 25.7583 34.1134 25.325 34.9467 25.025C35.7801 24.7083 36.7217 24.55 37.7717 24.55C38.2217 24.55 38.6801 24.575 39.1467 24.625C39.6301 24.6583 40.1051 24.7083 40.5717 24.775C41.0384 24.8417 41.4801 24.925 41.8967 25.025C42.3301 25.1083 42.7134 25.2 43.0467 25.3V36.35Z" fill="white"/>
</svg>
