<svg width="301" height="301" viewBox="0 0 301 301" fill="none" xmlns="http://www.w3.org/2000/svg">
<circle cx="150.301" cy="150.301" r="150" fill="#3C58A0"/>
<path d="M45.26 151.843H256.527V206.956H45.26V151.843Z" fill="#B2B1B3"/>
<path d="M68.2229 174.807H233.562V183.993H68.2229V174.807Z" fill="#9894A8"/>
<path d="M63.6309 202.363H72.8164V206.956H63.6309V202.363Z" fill="#97969B"/>
<path d="M82.0017 202.363H91.1872V206.956H82.0017V202.363Z" fill="#97969B"/>
<path d="M100.372 202.363H109.558V206.956H100.372V202.363Z" fill="#97969B"/>
<path d="M118.743 202.363H127.929V206.956H118.743V202.363Z" fill="#97969B"/>
<path d="M137.115 202.363H146.3V206.956H137.115V202.363Z" fill="#97969B"/>
<path d="M155.486 202.363H164.672V206.956H155.486V202.363Z" fill="#97969B"/>
<path d="M173.857 202.363H183.043V206.956H173.857V202.363Z" fill="#97969B"/>
<path d="M192.228 202.363H201.414V206.956H192.228V202.363Z" fill="#97969B"/>
<path d="M210.599 202.363H219.785V206.956H210.599V202.363Z" fill="#97969B"/>
<path d="M228.969 202.363H238.155V206.956H228.969V202.363Z" fill="#97969B"/>
<path d="M45.2599 151.843C30.0419 151.843 17.7034 164.182 17.7034 179.4C17.7034 194.618 30.0419 206.956 45.2599 206.956C60.4779 206.956 72.8164 194.618 72.8164 179.4C72.8164 164.182 60.4779 151.843 45.2599 151.843ZM45.2599 188.585C40.1872 188.585 36.0744 184.472 36.0744 179.4C36.0744 174.327 40.1872 170.214 45.2599 170.214C50.3326 170.214 54.4454 174.327 54.4454 179.4C54.4454 184.472 50.3326 188.585 45.2599 188.585Z" fill="#535357"/>
<path d="M45.2599 151.843C30.0419 151.843 17.7034 164.182 17.7034 179.4C17.7034 194.618 30.0419 206.956 45.2599 206.956C60.4779 206.956 72.8164 194.618 72.8164 179.4C72.8164 164.182 60.4779 151.843 45.2599 151.843ZM45.2599 202.364C32.5782 202.364 22.2961 192.081 22.2961 179.4C22.2961 166.718 32.5782 156.436 45.2599 156.436C57.9415 156.436 68.2237 166.718 68.2237 179.4C68.2237 192.081 57.9415 202.364 45.2599 202.364Z" fill="#3E3D42"/>
<path d="M54.4455 179.4C54.4455 184.473 50.3326 188.586 45.26 188.586C40.1873 188.586 36.0745 184.473 36.0745 179.4C36.0745 174.328 40.1873 170.215 45.26 170.215C50.3326 170.215 54.4455 174.328 54.4455 179.4Z" fill="#D4D4D5"/>
<path d="M45.26 170.215C40.1873 170.215 36.0745 174.328 36.0745 179.4C36.0745 184.473 40.1873 188.586 45.26 188.586" fill="#B5B3C1"/>
<path d="M63.631 174.808H58.1928C56.8046 170.917 53.7435 167.856 49.8527 166.468V161.03H40.6672V166.468C36.7763 167.856 33.7153 170.917 32.3271 174.808H26.8889V183.994H32.3271C33.7153 187.884 36.7763 190.945 40.6672 192.334V197.772H49.8527V192.334C53.7435 190.945 56.8046 187.884 58.1928 183.994H63.631V174.808ZM45.2599 183.994C42.7236 183.994 40.6672 181.937 40.6672 179.401C40.6672 176.864 42.7236 174.808 45.2599 174.808C47.7963 174.808 49.8527 176.864 49.8527 179.401C49.8527 181.937 47.7963 183.994 45.2599 183.994Z" fill="#79787D"/>
<path d="M256.526 151.843C241.308 151.843 228.969 164.182 228.969 179.4C228.969 194.618 241.308 206.956 256.526 206.956C271.744 206.956 284.083 194.618 284.083 179.4C284.083 164.182 271.744 151.843 256.526 151.843ZM256.526 188.585C251.453 188.585 247.34 184.472 247.34 179.4C247.34 174.327 251.453 170.214 256.526 170.214C261.599 170.214 265.712 174.327 265.712 179.4C265.712 184.472 261.599 188.585 256.526 188.585Z" fill="#535357"/>
<path d="M256.526 151.843C241.308 151.843 228.969 164.182 228.969 179.4C228.969 194.618 241.308 206.956 256.526 206.956C271.744 206.956 284.083 194.618 284.083 179.4C284.083 164.182 271.744 151.843 256.526 151.843ZM256.526 202.364C243.844 202.364 233.562 192.081 233.562 179.4C233.562 166.718 243.844 156.436 256.526 156.436C269.208 156.436 279.49 166.718 279.49 179.4C279.49 192.081 269.208 202.364 256.526 202.364Z" fill="#3E3D42"/>
<path d="M265.712 179.4C265.712 184.473 261.599 188.586 256.526 188.586C251.453 188.586 247.341 184.473 247.341 179.4C247.341 174.328 251.453 170.215 256.526 170.215C261.599 170.215 265.712 174.328 265.712 179.4Z" fill="#D4D4D5"/>
<path d="M256.526 170.215C251.453 170.215 247.341 174.328 247.341 179.4C247.341 184.473 251.453 188.586 256.526 188.586" fill="#B5B3C1"/>
<path d="M274.897 174.808H269.459C268.071 170.917 265.01 167.856 261.119 166.468V161.03H251.933V166.468C248.042 167.856 244.981 170.917 243.593 174.808H238.155V183.994H243.593C244.981 187.884 248.042 190.945 251.933 192.334V197.772H261.119V192.334C265.01 190.945 268.071 187.884 269.459 183.994H274.897V174.808ZM256.526 183.994C253.99 183.994 251.933 181.937 251.933 179.401C251.933 176.864 253.99 174.808 256.526 174.808C259.062 174.808 261.119 176.864 261.119 179.401C261.119 181.937 259.062 183.994 256.526 183.994Z" fill="#79787D"/>
<path d="M63.6309 151.843H72.8164V156.436H63.6309V151.843Z" fill="#97969B"/>
<path d="M82.0017 151.843H91.1872V156.436H82.0017V151.843Z" fill="#97969B"/>
<path d="M100.372 151.843H109.558V156.436H100.372V151.843Z" fill="#97969B"/>
<path d="M118.743 151.843H127.929V156.436H118.743V151.843Z" fill="#97969B"/>
<path d="M137.115 151.843H146.3V156.436H137.115V151.843Z" fill="#97969B"/>
<path d="M155.486 151.843H164.672V156.436H155.486V151.843Z" fill="#97969B"/>
<path d="M173.857 151.843H183.043V156.436H173.857V151.843Z" fill="#97969B"/>
<path d="M192.228 151.843H201.414V156.436H192.228V151.843Z" fill="#97969B"/>
<path d="M210.599 151.843H219.785V156.436H210.599V151.843Z" fill="#97969B"/>
<path d="M228.969 151.843H238.155V156.436H228.969V151.843Z" fill="#97969B"/>
<path d="M150.893 151.843C135.675 151.843 123.337 164.182 123.337 179.4C123.337 194.618 135.675 206.956 150.893 206.956C166.111 206.956 178.45 194.618 178.45 179.4C178.45 164.182 166.111 151.843 150.893 151.843ZM150.893 188.585C145.821 188.585 141.708 184.472 141.708 179.4C141.708 174.327 145.821 170.214 150.893 170.214C155.966 170.214 160.079 174.327 160.079 179.4C160.079 184.472 155.966 188.585 150.893 188.585Z" fill="#535357"/>
<path d="M150.893 151.843C135.675 151.843 123.337 164.182 123.337 179.4C123.337 194.618 135.675 206.956 150.893 206.956C166.111 206.956 178.45 194.618 178.45 179.4C178.45 164.182 166.111 151.843 150.893 151.843ZM150.893 202.364C138.212 202.364 127.929 192.081 127.929 179.4C127.929 166.718 138.212 156.436 150.893 156.436C163.575 156.436 173.857 166.718 173.857 179.4C173.857 192.081 163.575 202.364 150.893 202.364Z" fill="#3E3D42"/>
<path d="M160.078 179.4C160.078 184.473 155.965 188.586 150.893 188.586C145.82 188.586 141.707 184.473 141.707 179.4C141.707 174.328 145.82 170.215 150.893 170.215C155.965 170.215 160.078 174.328 160.078 179.4Z" fill="#D4D4D5"/>
<path d="M150.893 170.215C145.82 170.215 141.707 174.328 141.707 179.4C141.707 184.473 145.82 188.586 150.893 188.586" fill="#B5B3C1"/>
<path d="M169.264 174.808H163.826C162.438 170.917 159.377 167.856 155.486 166.468V161.03H146.301V166.468C142.41 167.856 139.349 170.917 137.961 174.808H132.522V183.994H137.961C139.349 187.884 142.41 190.945 146.301 192.334V197.772H155.486V192.334C159.377 190.945 162.438 187.884 163.826 183.994H169.264V174.808ZM150.893 183.994C148.357 183.994 146.301 181.937 146.301 179.401C146.301 176.864 148.357 174.808 150.893 174.808C153.43 174.808 155.486 176.864 155.486 179.401C155.486 181.937 153.43 183.994 150.893 183.994Z" fill="#79787D"/>
<path d="M94.349 100.372H41.9923C41.1748 100.372 40.512 101.034 40.512 101.852V144.348C40.512 145.166 41.1748 145.828 41.9923 145.828H94.349C95.1666 145.828 95.8294 145.166 95.8294 144.348V101.852C95.8294 101.034 95.1666 100.372 94.349 100.372Z" fill="#DDB087"/>
<path d="M95.8294 106.186V101.852C95.8294 101.459 95.6734 101.083 95.3958 100.805C95.1181 100.528 94.7416 100.372 94.349 100.372H41.9923C41.5997 100.372 41.2232 100.528 40.9456 100.805C40.6679 101.083 40.512 101.459 40.512 101.852V106.186H95.8294Z" fill="#BF9A71"/>
<path d="M95.9317 93.4736H40.4086C39.591 93.4736 38.9282 94.1364 38.9282 94.954V103.382C38.9282 104.199 39.591 104.862 40.4086 104.862H95.9317C96.7493 104.862 97.4121 104.199 97.4121 103.382V94.954C97.4121 94.1364 96.7493 93.4736 95.9317 93.4736Z" fill="#DDB087"/>
<path d="M58.4516 143.441C58.3169 143.441 58.1876 143.388 58.0921 143.293C57.9965 143.198 57.9423 143.069 57.9414 142.935L57.8482 128.455C57.8476 128.388 57.8603 128.322 57.8855 128.26C57.9107 128.197 57.9479 128.141 57.9949 128.093C58.042 128.045 58.098 128.008 58.1597 127.981C58.2215 127.955 58.2878 127.942 58.3548 127.941H58.3578C58.4926 127.941 58.622 127.994 58.7177 128.089C58.8134 128.184 58.8676 128.313 58.8685 128.448L58.9617 142.927C58.9627 143.062 58.9099 143.192 58.8149 143.289C58.7199 143.385 58.5905 143.44 58.4551 143.441L58.4516 143.441Z" fill="#2F3A5A"/>
<path d="M61.5213 132.736C61.4467 132.736 61.3729 132.72 61.3052 132.688C61.2376 132.657 61.1776 132.611 61.1297 132.553L58.3832 129.275L56.0527 132.394C55.9717 132.503 55.8509 132.575 55.7168 132.594C55.5827 132.614 55.4464 132.579 55.3379 132.498C55.2293 132.417 55.1574 132.296 55.1379 132.162C55.1184 132.028 55.153 131.892 55.234 131.783L57.9465 128.147C57.9927 128.085 58.0522 128.035 58.1206 127.999C58.189 127.964 58.2646 127.944 58.3417 127.942C58.4189 127.938 58.4958 127.953 58.5662 127.985C58.6367 128.016 58.6986 128.064 58.747 128.124L61.9099 131.897C61.9723 131.972 62.0121 132.062 62.0247 132.159C62.0373 132.255 62.0222 132.353 61.9811 132.441C61.9401 132.529 61.8748 132.603 61.7929 132.656C61.711 132.708 61.6159 132.736 61.5188 132.736H61.5213Z" fill="#2F3A5A"/>
<path d="M48.9335 143.441C48.7988 143.441 48.6695 143.388 48.5738 143.293C48.4782 143.198 48.4239 143.069 48.4228 142.935L48.3296 128.455C48.3291 128.388 48.3419 128.322 48.3671 128.26C48.3923 128.198 48.4295 128.141 48.4765 128.093C48.5236 128.046 48.5795 128.008 48.6413 127.982C48.703 127.956 48.7692 127.942 48.8362 127.941H48.8398C48.9746 127.941 49.1039 127.994 49.1996 128.089C49.2953 128.184 49.3495 128.313 49.3505 128.448L49.4437 142.927C49.4446 143.062 49.3918 143.192 49.2968 143.289C49.2018 143.385 49.0724 143.44 48.9371 143.441L48.9335 143.441Z" fill="#2F3A5A"/>
<path d="M52.0004 132.736C51.9257 132.736 51.8519 132.72 51.7842 132.688C51.7165 132.657 51.6566 132.611 51.6088 132.553L48.8603 129.275L46.5338 132.394C46.4494 132.493 46.3308 132.555 46.202 132.569C46.0731 132.584 45.9437 132.548 45.84 132.47C45.7363 132.393 45.666 132.279 45.6433 132.151C45.6207 132.023 45.6474 131.892 45.7181 131.783L48.4307 128.147C48.4767 128.085 48.5361 128.035 48.6045 127.999C48.6728 127.964 48.7483 127.944 48.8253 127.942C48.9024 127.938 48.9793 127.953 49.0497 127.985C49.1201 128.016 49.1821 128.064 49.2306 128.124L52.3935 131.897C52.4559 131.972 52.4957 132.062 52.5083 132.159C52.5209 132.255 52.5058 132.353 52.4648 132.441C52.4237 132.529 52.3584 132.603 52.2765 132.656C52.1946 132.708 52.0995 132.736 52.0024 132.736H52.0004Z" fill="#2F3A5A"/>
<path d="M60.3665 93.4736H75.9733V111.367H60.3665V93.4736Z" fill="#E1E6E9"/>
<path d="M179.252 100.372H126.895C126.077 100.372 125.415 101.034 125.415 101.852V144.348C125.415 145.166 126.077 145.828 126.895 145.828H179.252C180.069 145.828 180.732 145.166 180.732 144.348V101.852C180.732 101.034 180.069 100.372 179.252 100.372Z" fill="#DDB087"/>
<path d="M180.732 106.186V101.852C180.732 101.459 180.576 101.083 180.298 100.805C180.021 100.528 179.644 100.372 179.252 100.372H126.895C126.502 100.372 126.126 100.528 125.848 100.805C125.571 101.083 125.415 101.459 125.415 101.852V106.186H180.732Z" fill="#BF9A71"/>
<path d="M180.835 93.4736H125.311C124.494 93.4736 123.831 94.1364 123.831 94.954V103.382C123.831 104.199 124.494 104.862 125.311 104.862H180.835C181.652 104.862 182.315 104.199 182.315 103.382V94.954C182.315 94.1364 181.652 93.4736 180.835 93.4736Z" fill="#DDB087"/>
<path d="M143.354 143.441C143.219 143.441 143.09 143.388 142.995 143.293C142.899 143.198 142.845 143.069 142.844 142.935L142.751 128.455C142.75 128.388 142.763 128.322 142.788 128.26C142.813 128.197 142.85 128.141 142.898 128.093C142.945 128.045 143.001 128.008 143.062 127.981C143.124 127.955 143.19 127.942 143.257 127.941H143.26C143.395 127.941 143.525 127.994 143.62 128.089C143.716 128.184 143.77 128.313 143.771 128.448L143.864 142.927C143.865 143.062 143.812 143.192 143.717 143.289C143.622 143.385 143.493 143.44 143.358 143.441L143.354 143.441Z" fill="#2F3A5A"/>
<path d="M146.423 132.736C146.349 132.736 146.275 132.72 146.207 132.688C146.14 132.657 146.08 132.611 146.032 132.553L143.285 129.275L140.955 132.394C140.874 132.503 140.753 132.575 140.619 132.594C140.485 132.614 140.349 132.579 140.24 132.498C140.131 132.417 140.059 132.296 140.04 132.162C140.02 132.028 140.055 131.892 140.136 131.783L142.849 128.147C142.895 128.085 142.954 128.035 143.023 127.999C143.091 127.964 143.167 127.944 143.244 127.942C143.321 127.938 143.398 127.953 143.468 127.985C143.539 128.016 143.601 128.064 143.649 128.124L146.812 131.897C146.874 131.972 146.914 132.062 146.927 132.159C146.939 132.255 146.924 132.353 146.883 132.441C146.842 132.529 146.777 132.603 146.695 132.656C146.613 132.708 146.518 132.736 146.421 132.736H146.423Z" fill="#2F3A5A"/>
<path d="M133.834 143.441C133.699 143.441 133.57 143.388 133.474 143.293C133.379 143.198 133.325 143.069 133.323 142.935L133.23 128.455C133.23 128.388 133.243 128.322 133.268 128.26C133.293 128.198 133.33 128.141 133.377 128.093C133.424 128.046 133.48 128.008 133.542 127.982C133.604 127.956 133.67 127.942 133.737 127.941H133.74C133.875 127.941 134.005 127.994 134.1 128.089C134.196 128.184 134.25 128.313 134.251 128.448L134.344 142.927C134.345 143.062 134.292 143.192 134.197 143.289C134.102 143.385 133.973 143.44 133.838 143.441L133.834 143.441Z" fill="#2F3A5A"/>
<path d="M136.902 132.736C136.827 132.736 136.753 132.72 136.686 132.688C136.618 132.657 136.558 132.611 136.51 132.553L133.762 129.275L131.435 132.394C131.351 132.493 131.232 132.555 131.103 132.569C130.975 132.584 130.845 132.548 130.741 132.47C130.638 132.393 130.567 132.279 130.545 132.151C130.522 132.023 130.549 131.892 130.619 131.783L133.332 128.147C133.378 128.085 133.437 128.035 133.506 127.999C133.574 127.964 133.65 127.944 133.727 127.942C133.804 127.938 133.881 127.953 133.951 127.985C134.021 128.016 134.083 128.064 134.132 128.124L137.295 131.897C137.357 131.972 137.397 132.062 137.41 132.159C137.422 132.255 137.407 132.353 137.366 132.441C137.325 132.529 137.26 132.603 137.178 132.656C137.096 132.708 137.001 132.736 136.904 132.736H136.902Z" fill="#2F3A5A"/>
<path d="M145.269 93.4736H160.875V111.367H145.269V93.4736Z" fill="#E1E6E9"/>
<path d="M258.846 100.372H206.49C205.672 100.372 205.009 101.034 205.009 101.852V144.348C205.009 145.166 205.672 145.828 206.49 145.828H258.846C259.664 145.828 260.327 145.166 260.327 144.348V101.852C260.327 101.034 259.664 100.372 258.846 100.372Z" fill="#DDB087"/>
<path d="M260.327 106.186V101.852C260.327 101.459 260.171 101.083 259.893 100.805C259.615 100.528 259.239 100.372 258.846 100.372H206.49C206.097 100.372 205.72 100.528 205.443 100.805C205.165 101.083 205.009 101.459 205.009 101.852V106.186H260.327Z" fill="#BF9A71"/>
<path d="M260.43 93.4736H204.907C204.09 93.4736 203.427 94.1364 203.427 94.954V103.382C203.427 104.199 204.09 104.862 204.907 104.862H260.43C261.248 104.862 261.911 104.199 261.911 103.382V94.954C261.911 94.1364 261.248 93.4736 260.43 93.4736Z" fill="#DDB087"/>
<path d="M222.948 143.441C222.814 143.441 222.684 143.388 222.589 143.293C222.493 143.198 222.439 143.069 222.438 142.935L222.345 128.455C222.344 128.388 222.357 128.322 222.382 128.26C222.408 128.197 222.445 128.141 222.492 128.093C222.539 128.045 222.595 128.008 222.657 127.981C222.718 127.955 222.785 127.942 222.852 127.941H222.855C222.989 127.941 223.119 127.994 223.214 128.089C223.31 128.184 223.364 128.313 223.365 128.448L223.459 142.927C223.46 143.062 223.407 143.192 223.312 143.289C223.217 143.385 223.087 143.44 222.952 143.441L222.948 143.441Z" fill="#2F3A5A"/>
<path d="M226.018 132.736C225.944 132.736 225.87 132.72 225.802 132.688C225.735 132.657 225.675 132.611 225.627 132.553L222.88 129.275L220.55 132.394C220.469 132.503 220.348 132.575 220.214 132.594C220.08 132.614 219.943 132.579 219.835 132.498C219.726 132.417 219.654 132.296 219.635 132.162C219.615 132.028 219.65 131.892 219.731 131.783L222.444 128.147C222.49 128.085 222.549 128.035 222.618 127.999C222.686 127.964 222.762 127.944 222.839 127.942C222.916 127.938 222.993 127.953 223.063 127.985C223.134 128.016 223.196 128.064 223.244 128.124L226.407 131.897C226.469 131.972 226.509 132.062 226.522 132.159C226.534 132.255 226.519 132.353 226.478 132.441C226.437 132.529 226.372 132.603 226.29 132.656C226.208 132.708 226.113 132.736 226.016 132.736H226.018Z" fill="#2F3A5A"/>
<path d="M213.431 143.441C213.296 143.441 213.167 143.388 213.071 143.293C212.975 143.198 212.921 143.069 212.92 142.935L212.827 128.455C212.826 128.388 212.839 128.322 212.864 128.26C212.889 128.198 212.927 128.141 212.974 128.093C213.021 128.046 213.077 128.008 213.138 127.982C213.2 127.956 213.266 127.942 213.333 127.941H213.337C213.472 127.941 213.601 127.994 213.697 128.089C213.792 128.184 213.847 128.313 213.848 128.448L213.941 142.927C213.942 143.062 213.889 143.192 213.794 143.289C213.699 143.385 213.569 143.44 213.434 143.441L213.431 143.441Z" fill="#2F3A5A"/>
<path d="M216.498 132.736C216.423 132.736 216.349 132.72 216.282 132.688C216.214 132.657 216.154 132.611 216.106 132.553L213.358 129.275L211.031 132.394C210.947 132.493 210.828 132.555 210.7 132.569C210.571 132.584 210.441 132.548 210.338 132.47C210.234 132.393 210.164 132.279 210.141 132.151C210.118 132.023 210.145 131.892 210.216 131.783L212.928 128.147C212.974 128.085 213.034 128.035 213.102 127.999C213.17 127.964 213.246 127.944 213.323 127.942C213.4 127.938 213.477 127.953 213.547 127.985C213.618 128.016 213.68 128.064 213.728 128.124L216.891 131.897C216.953 131.972 216.993 132.062 217.006 132.159C217.018 132.255 217.003 132.353 216.962 132.441C216.921 132.529 216.856 132.603 216.774 132.656C216.692 132.708 216.597 132.736 216.5 132.736H216.498Z" fill="#2F3A5A"/>
<path d="M224.865 93.4736H240.472V111.367H224.865V93.4736Z" fill="#E1E6E9"/>
</svg>
