<svg width="63" height="81" viewBox="0 0 63 81" fill="none" xmlns="http://www.w3.org/2000/svg">
<path d="M31.5 40.5C27.1687 40.5 23.625 36.855 23.625 32.4C23.625 27.945 27.1687 24.3 31.5 24.3C35.8313 24.3 39.375 27.945 39.375 32.4C39.375 36.855 35.8313 40.5 31.5 40.5ZM31.5 0C14.9625 0 0 13.041 0 33.21C0 46.656 10.5131 62.5725 31.5 81C52.4869 62.5725 63 46.656 63 33.21C63 13.041 48.0375 0 31.5 0Z" fill="#EB6D03"/>
<path d="M31 60C46.464 60 59 47.464 59 32C59 16.536 46.464 4 31 4C15.536 4 3 16.536 3 32C3 47.464 15.536 60 31 60Z" fill="#3C58A0"/>
<path d="M12.343 22.2113L21.6748 26.8494C21.6748 26.8494 28.56 24.6211 29.6316 24.9695C29.7357 25.0033 29.9116 25.0731 30.1423 25.17L30.1432 25.1705C32.282 26.0713 39.2072 29.379 39.2072 29.379L37.2333 29.253C38.0364 30.2844 39.1547 31.6344 39.7901 32.028C40.8599 32.6904 38.3122 34.5756 36.1729 33.1997C34.0332 31.8241 33.4727 30.1428 33.4727 30.1428L32.4146 30.2521L39.8354 37.0666L41.0142 38.4797C42.0341 39.7021 40.7677 41.4679 39.102 40.9297C39.1286 40.9498 39.0343 40.9222 39.0592 40.9899C39.1545 41.2464 39.347 41.8623 39.1734 42.1628C38.5635 43.22 37.6451 44.0335 35.6997 42.5518C36.1711 42.9108 36.4599 43.7556 36.1329 44.2468C35.688 44.9153 35.1974 45.2169 34.6608 45.3804C34.0953 45.5527 33.2426 45.0123 32.7719 44.6537C33.243 45.0123 33.4674 45.8632 33.1534 46.3641C32.767 46.9806 31.5393 47.8867 30.761 47.2936L28.3156 45.4311C28.3156 45.4311 22.363 39.6671 20.5237 38.1332C18.6839 36.5985 16.1836 33.4763 16.1836 33.4763L5.18872 27.3753L12.3435 22.2109L12.343 22.2113Z" fill="#FFC476"/>
<path d="M3.10251 29.6136L11.1516 34.9931L19.6586 23.8242L9.41938 14.1594C5.8859 18.4299 3.59569 23.7656 3.10229 29.6136H3.10251Z" fill="#0F7986"/>
<path d="M19.432 24.1213L12.2622 33.5342L13.6366 34.5813L20.8064 25.1682L19.432 24.1213Z" fill="white"/>
<path d="M49.6572 22.2116L40.3254 26.8497C39.5795 27.2204 36.8994 25.4644 34.6944 25.1968C33.0978 25.003 31.169 25.6222 31.2838 25.6818L36.2826 27.9925C36.2826 27.9925 38.7194 31.3664 39.7893 32.0282C40.8591 32.6904 38.3114 34.5758 36.1721 33.1999C34.0324 31.8242 33.4719 30.143 33.4719 30.143L29.0492 30.5989L20.5225 38.1339C19.3422 39.177 19.7031 39.7214 20.4969 40.7388C20.8598 41.2047 22.1936 41.0478 22.7527 40.8341C21.4615 41.8164 23.3234 44.3462 25.1488 42.9547C24.0449 43.7959 25.6282 46.7618 27.839 45.0772C26.7362 46.5638 28.984 47.6451 29.9291 47.3763L30.6137 47.1818L30.4389 47.0487C30.3823 47.0487 28.5919 45.2126 28.4835 44.9899C27.871 43.7327 29.485 42.0303 30.9321 43.2475L32.1775 44.2038L31.456 43.2889C30.5356 42.0828 31.244 40.8374 32.1256 40.4599C32.7716 40.1836 33.4404 40.4905 33.9855 41.0282L35.3611 42.1304L34.1892 40.761C34.1892 40.761 33.0651 39.4912 34.0968 38.3574C35.1286 37.2238 36.5267 38.5829 36.5267 38.5829L38.1724 39.9434L36.756 38.3029C36.756 38.3029 35.5292 37.0132 36.3549 36.1504C37.5018 34.9517 38.9208 36.1322 40.0412 37.3128C40.3631 37.6522 40.6947 38.1735 40.9464 38.4141C42.1829 37.0224 43.0149 35.5139 43.0149 35.5139L56.8121 27.3751L49.6576 22.2107L49.6572 22.2116Z" fill="#FFDDBE"/>
<path d="M58.8977 29.6134L50.8484 34.9933L42.3418 23.8243L52.581 14.1594C56.1147 18.4296 58.4043 23.7654 58.8981 29.6134H58.8977Z" fill="#747474"/>
<path d="M42.5675 24.1213L49.7378 33.5342L48.3631 34.5813L41.1936 25.1682L42.5675 24.1213Z" fill="white"/>
<path d="M10.3686 32.0206C10.65 32.0206 10.8784 32.2489 10.8784 32.5304C10.8784 32.8118 10.6503 33.0402 10.3686 33.0402C10.0872 33.0402 9.85878 32.8121 9.85878 32.5304C9.85878 32.2489 10.0868 32.0206 10.3686 32.0206ZM8.85208 31.0703C9.13351 31.0703 9.36188 31.2984 9.36188 31.5801C9.36188 31.8615 9.13351 32.0899 8.85208 32.0899C8.57066 32.0899 8.34229 31.8615 8.34229 31.5801C8.34229 31.2987 8.57033 31.0703 8.85208 31.0703Z" fill="#ECF0F1"/>
<path d="M51.9397 32.2973C51.6583 32.2973 51.4299 32.5257 51.4299 32.8071C51.4299 33.0885 51.658 33.3169 51.9397 33.3169C52.2212 33.3169 52.4495 33.0889 52.4495 32.8071C52.4495 32.5257 52.2215 32.2973 51.9397 32.2973ZM53.4562 31.3472C53.1748 31.3472 52.9464 31.5752 52.9464 31.857C52.9464 32.1384 53.1748 32.3668 53.4562 32.3668C53.7376 32.3668 53.966 32.1384 53.966 31.857C53.966 31.5755 53.738 31.3472 53.4562 31.3472Z" fill="white"/>
</svg>
