<svg width="63" height="81" viewBox="0 0 63 81" fill="none" xmlns="http://www.w3.org/2000/svg">
<path d="M31.5 40.5C27.1687 40.5 23.625 36.855 23.625 32.4C23.625 27.945 27.1687 24.3 31.5 24.3C35.8313 24.3 39.375 27.945 39.375 32.4C39.375 36.855 35.8313 40.5 31.5 40.5ZM31.5 0C14.9625 0 0 13.041 0 33.21C0 46.656 10.5131 62.5725 31.5 81C52.4869 62.5725 63 46.656 63 33.21C63 13.041 48.0375 0 31.5 0Z" fill="#EB6D03"/>
<circle cx="31" cy="32" r="28" fill="#3C58A0"/>
<path d="M39.7749 12.2126H22.9829C22.7206 12.2126 22.5081 12.4252 22.5081 12.6874V26.3169C22.5081 26.5792 22.7206 26.7917 22.9829 26.7917H39.7749C40.0371 26.7917 40.2497 26.5792 40.2497 26.3169V12.6874C40.2497 12.4252 40.0371 12.2126 39.7749 12.2126Z" fill="#DDB087"/>
<path d="M40.2497 14.0774V12.6874C40.2497 12.5615 40.1997 12.4408 40.1106 12.3517C40.0216 12.2627 39.9008 12.2126 39.7749 12.2126H22.9829C22.8569 12.2126 22.7362 12.2627 22.6471 12.3517C22.5581 12.4408 22.5081 12.5615 22.5081 12.6874V14.0774H40.2497Z" fill="#BF9A71"/>
<path d="M40.2824 10.0002H22.4748C22.2126 10.0002 22 10.2128 22 10.475V13.1781C22 13.4403 22.2126 13.6529 22.4748 13.6529H40.2824C40.5446 13.6529 40.7572 13.4403 40.7572 13.1781V10.475C40.7572 10.2128 40.5446 10.0002 40.2824 10.0002Z" fill="#DDB087"/>
<path d="M28.2612 26.0269C28.218 26.0269 28.1765 26.0098 28.1459 25.9794C28.1152 25.9489 28.0978 25.9076 28.0975 25.8644L28.0676 21.2204C28.0675 21.1989 28.0715 21.1776 28.0796 21.1577C28.0877 21.1378 28.0996 21.1197 28.1147 21.1043C28.1298 21.089 28.1478 21.0769 28.1676 21.0685C28.1874 21.0602 28.2086 21.0558 28.2301 21.0557H28.2311C28.2743 21.0556 28.3158 21.0727 28.3465 21.1031C28.3772 21.1336 28.3946 21.1749 28.3949 21.2182L28.4248 25.8618C28.4251 25.9052 28.4081 25.947 28.3777 25.9779C28.3472 26.0088 28.3057 26.0264 28.2623 26.0267L28.2612 26.0269Z" fill="#2F3A5A"/>
<path d="M29.2458 22.5933C29.2219 22.5934 29.1982 22.5882 29.1765 22.578C29.1548 22.5679 29.1356 22.5532 29.1202 22.5348L28.2393 21.4834L27.4919 22.4838C27.4659 22.5186 27.4272 22.5417 27.3842 22.5479C27.3412 22.5542 27.2974 22.5431 27.2626 22.5171C27.2278 22.4911 27.2047 22.4524 27.1985 22.4094C27.1922 22.3664 27.2033 22.3227 27.2293 22.2878L28.0993 21.1217C28.1141 21.1018 28.1332 21.0856 28.1551 21.0742C28.1771 21.0628 28.2013 21.0566 28.226 21.0558C28.2508 21.0546 28.2754 21.0593 28.298 21.0695C28.3206 21.0797 28.3405 21.095 28.356 21.1143L29.3704 22.3244C29.3904 22.3483 29.4032 22.3774 29.4072 22.4083C29.4113 22.4392 29.4064 22.4705 29.3933 22.4988C29.3801 22.527 29.3592 22.5509 29.3329 22.5676C29.3066 22.5844 29.2761 22.5933 29.245 22.5933H29.2458Z" fill="#2F3A5A"/>
<path d="M25.2088 26.0269C25.1656 26.0269 25.1241 26.0098 25.0935 25.9794C25.0628 25.9489 25.0454 25.9076 25.045 25.8644L25.0151 21.2204C25.015 21.1989 25.0191 21.1776 25.0272 21.1577C25.0352 21.1378 25.0472 21.1197 25.0623 21.1044C25.0773 21.0891 25.0953 21.0769 25.1151 21.0686C25.1349 21.0602 25.1561 21.0558 25.1776 21.0557H25.1788C25.222 21.0556 25.2635 21.0727 25.2942 21.1031C25.3249 21.1336 25.3423 21.1749 25.3426 21.2182L25.3725 25.8618C25.3728 25.9052 25.3558 25.947 25.3253 25.9779C25.2949 26.0088 25.2534 26.0264 25.21 26.0267L25.2088 26.0269Z" fill="#2F3A5A"/>
<path d="M26.1925 22.5928C26.1685 22.5929 26.1449 22.5877 26.1231 22.5776C26.1014 22.5675 26.0822 22.5527 26.0669 22.5343L25.1854 21.4828L24.4392 22.4833C24.4122 22.5148 24.3741 22.5349 24.3328 22.5395C24.2915 22.544 24.25 22.5327 24.2167 22.5078C24.1834 22.4828 24.1609 22.4462 24.1536 22.4053C24.1464 22.3643 24.155 22.3222 24.1776 22.2873L25.0476 21.1211C25.0624 21.1013 25.0814 21.0851 25.1033 21.0737C25.1253 21.0623 25.1495 21.0561 25.1742 21.0553C25.1989 21.0542 25.2236 21.0589 25.2461 21.0691C25.2687 21.0792 25.2886 21.0946 25.3042 21.1138L26.3186 22.3239C26.3386 22.3478 26.3514 22.3769 26.3554 22.4078C26.3594 22.4386 26.3546 22.47 26.3414 22.4983C26.3283 22.5265 26.3073 22.5504 26.2811 22.5671C26.2548 22.5839 26.2243 22.5928 26.1931 22.5928H26.1925Z" fill="#2F3A5A"/>
<path d="M28.8757 10H33.8812V15.739H28.8757V10Z" fill="#E1E6E9"/>
<path d="M52.7749 31.2126H35.9829C35.7206 31.2126 35.5081 31.4252 35.5081 31.6874V45.3169C35.5081 45.5792 35.7206 45.7917 35.9829 45.7917H52.7749C53.0371 45.7917 53.2497 45.5792 53.2497 45.3169V31.6874C53.2497 31.4252 53.0371 31.2126 52.7749 31.2126Z" fill="#DDB087"/>
<path d="M53.2497 33.0774V31.6874C53.2497 31.5615 53.1997 31.4408 53.1106 31.3517C53.0216 31.2627 52.9008 31.2126 52.7749 31.2126H35.9829C35.8569 31.2126 35.7362 31.2627 35.6471 31.3517C35.5581 31.4408 35.5081 31.5615 35.5081 31.6874V33.0774H53.2497Z" fill="#BF9A71"/>
<path d="M53.2824 29.0002H35.4748C35.2126 29.0002 35 29.2128 35 29.475V32.1781C35 32.4403 35.2126 32.6529 35.4748 32.6529H53.2824C53.5446 32.6529 53.7572 32.4403 53.7572 32.1781V29.475C53.7572 29.2128 53.5446 29.0002 53.2824 29.0002Z" fill="#DDB087"/>
<path d="M41.2612 45.0269C41.218 45.0269 41.1765 45.0098 41.1459 44.9794C41.1152 44.9489 41.0978 44.9076 41.0975 44.8644L41.0676 40.2204C41.0675 40.1989 41.0715 40.1776 41.0796 40.1577C41.0877 40.1378 41.0996 40.1197 41.1147 40.1043C41.1298 40.089 41.1478 40.0769 41.1676 40.0685C41.1874 40.0602 41.2086 40.0558 41.2301 40.0557H41.2311C41.2743 40.0556 41.3158 40.0727 41.3465 40.1031C41.3772 40.1336 41.3946 40.1749 41.3949 40.2182L41.4248 44.8618C41.4251 44.9052 41.4081 44.947 41.3777 44.9779C41.3472 45.0088 41.3057 45.0264 41.2623 45.0267L41.2612 45.0269Z" fill="#2F3A5A"/>
<path d="M42.2458 41.5933C42.2219 41.5934 42.1982 41.5882 42.1765 41.578C42.1548 41.5679 42.1356 41.5532 42.1202 41.5348L41.2393 40.4834L40.4919 41.4838C40.4659 41.5186 40.4272 41.5417 40.3842 41.5479C40.3412 41.5542 40.2974 41.5431 40.2626 41.5171C40.2278 41.4911 40.2047 41.4524 40.1985 41.4094C40.1922 41.3664 40.2033 41.3227 40.2293 41.2878L41.0993 40.1217C41.1141 40.1018 41.1332 40.0856 41.1551 40.0742C41.1771 40.0628 41.2013 40.0566 41.226 40.0558C41.2508 40.0546 41.2754 40.0593 41.298 40.0695C41.3206 40.0797 41.3405 40.095 41.356 40.1143L42.3704 41.3244C42.3904 41.3483 42.4032 41.3774 42.4072 41.4083C42.4113 41.4392 42.4064 41.4705 42.3933 41.4988C42.3801 41.527 42.3592 41.5509 42.3329 41.5676C42.3066 41.5844 42.2761 41.5933 42.245 41.5933H42.2458Z" fill="#2F3A5A"/>
<path d="M38.2088 45.0269C38.1656 45.0269 38.1241 45.0098 38.0935 44.9794C38.0628 44.9489 38.0454 44.9076 38.045 44.8644L38.0151 40.2204C38.015 40.1989 38.0191 40.1776 38.0272 40.1577C38.0352 40.1378 38.0472 40.1197 38.0623 40.1044C38.0773 40.0891 38.0953 40.0769 38.1151 40.0686C38.1349 40.0602 38.1561 40.0558 38.1776 40.0557H38.1788C38.222 40.0556 38.2635 40.0727 38.2942 40.1031C38.3249 40.1336 38.3423 40.1749 38.3426 40.2182L38.3725 44.8618C38.3728 44.9052 38.3558 44.947 38.3253 44.9779C38.2949 45.0088 38.2534 45.0264 38.21 45.0267L38.2088 45.0269Z" fill="#2F3A5A"/>
<path d="M39.1925 41.5928C39.1685 41.5929 39.1449 41.5877 39.1231 41.5776C39.1014 41.5675 39.0822 41.5527 39.0669 41.5343L38.1854 40.4828L37.4392 41.4833C37.4122 41.5148 37.3741 41.5349 37.3328 41.5395C37.2915 41.544 37.25 41.5327 37.2167 41.5078C37.1834 41.4828 37.1609 41.4462 37.1536 41.4053C37.1464 41.3643 37.155 41.3222 37.1776 41.2873L38.0476 40.1211C38.0624 40.1013 38.0814 40.0851 38.1033 40.0737C38.1253 40.0623 38.1495 40.0561 38.1742 40.0553C38.1989 40.0542 38.2236 40.0589 38.2461 40.0691C38.2687 40.0792 38.2886 40.0946 38.3042 40.1138L39.3186 41.3239C39.3386 41.3478 39.3514 41.3769 39.3554 41.4078C39.3594 41.4386 39.3546 41.47 39.3414 41.4983C39.3283 41.5265 39.3073 41.5504 39.2811 41.5671C39.2548 41.5839 39.2243 41.5928 39.1931 41.5928H39.1925Z" fill="#2F3A5A"/>
<path d="M41.8757 29H46.8812V34.739H41.8757V29Z" fill="#E1E6E9"/>
<path d="M26.7749 31.2126H9.98285C9.72063 31.2126 9.50806 31.4252 9.50806 31.6874V45.3169C9.50806 45.5792 9.72063 45.7917 9.98285 45.7917H26.7749C27.0371 45.7917 27.2497 45.5792 27.2497 45.3169V31.6874C27.2497 31.4252 27.0371 31.2126 26.7749 31.2126Z" fill="#DDB087"/>
<path d="M27.2497 33.0774V31.6874C27.2497 31.5615 27.1997 31.4408 27.1106 31.3517C27.0216 31.2627 26.9008 31.2126 26.7749 31.2126H9.98285C9.85693 31.2126 9.73616 31.2627 9.64712 31.3517C9.55808 31.4408 9.50806 31.5615 9.50806 31.6874V33.0774H27.2497Z" fill="#BF9A71"/>
<path d="M27.2824 29.0002H9.4748C9.21257 29.0002 9 29.2128 9 29.475V32.1781C9 32.4403 9.21257 32.6529 9.4748 32.6529H27.2824C27.5446 32.6529 27.7572 32.4403 27.7572 32.1781V29.475C27.7572 29.2128 27.5446 29.0002 27.2824 29.0002Z" fill="#DDB087"/>
<path d="M15.2612 45.0269C15.218 45.0269 15.1765 45.0098 15.1459 44.9794C15.1152 44.9489 15.0978 44.9076 15.0975 44.8644L15.0676 40.2204C15.0675 40.1989 15.0715 40.1776 15.0796 40.1577C15.0877 40.1378 15.0996 40.1197 15.1147 40.1043C15.1298 40.089 15.1478 40.0769 15.1676 40.0685C15.1874 40.0602 15.2086 40.0558 15.2301 40.0557H15.2311C15.2743 40.0556 15.3158 40.0727 15.3465 40.1031C15.3772 40.1336 15.3946 40.1749 15.3949 40.2182L15.4248 44.8618C15.4251 44.9052 15.4081 44.947 15.3777 44.9779C15.3472 45.0088 15.3057 45.0264 15.2623 45.0267L15.2612 45.0269Z" fill="#2F3A5A"/>
<path d="M16.2458 41.5933C16.2219 41.5934 16.1982 41.5882 16.1765 41.578C16.1548 41.5679 16.1356 41.5532 16.1202 41.5348L15.2393 40.4834L14.4919 41.4838C14.4659 41.5186 14.4272 41.5417 14.3842 41.5479C14.3412 41.5542 14.2974 41.5431 14.2626 41.5171C14.2278 41.4911 14.2047 41.4524 14.1985 41.4094C14.1922 41.3664 14.2033 41.3227 14.2293 41.2878L15.0993 40.1217C15.1141 40.1018 15.1332 40.0856 15.1551 40.0742C15.1771 40.0628 15.2013 40.0566 15.226 40.0558C15.2508 40.0546 15.2754 40.0593 15.298 40.0695C15.3206 40.0797 15.3405 40.095 15.356 40.1143L16.3704 41.3244C16.3904 41.3483 16.4032 41.3774 16.4072 41.4083C16.4113 41.4392 16.4064 41.4705 16.3933 41.4988C16.3801 41.527 16.3592 41.5509 16.3329 41.5676C16.3066 41.5844 16.2761 41.5933 16.245 41.5933H16.2458Z" fill="#2F3A5A"/>
<path d="M12.2088 45.0269C12.1656 45.0269 12.1241 45.0098 12.0935 44.9794C12.0628 44.9489 12.0454 44.9076 12.045 44.8644L12.0151 40.2204C12.015 40.1989 12.0191 40.1776 12.0272 40.1577C12.0352 40.1378 12.0472 40.1197 12.0623 40.1044C12.0773 40.0891 12.0953 40.0769 12.1151 40.0686C12.1349 40.0602 12.1561 40.0558 12.1776 40.0557H12.1788C12.222 40.0556 12.2635 40.0727 12.2942 40.1031C12.3249 40.1336 12.3423 40.1749 12.3426 40.2182L12.3725 44.8618C12.3728 44.9052 12.3558 44.947 12.3253 44.9779C12.2949 45.0088 12.2534 45.0264 12.21 45.0267L12.2088 45.0269Z" fill="#2F3A5A"/>
<path d="M13.1925 41.5928C13.1685 41.5929 13.1449 41.5877 13.1231 41.5776C13.1014 41.5675 13.0822 41.5527 13.0669 41.5343L12.1854 40.4828L11.4392 41.4833C11.4122 41.5148 11.3741 41.5349 11.3328 41.5395C11.2915 41.544 11.25 41.5327 11.2167 41.5078C11.1834 41.4828 11.1609 41.4462 11.1536 41.4053C11.1464 41.3643 11.155 41.3222 11.1776 41.2873L12.0476 40.1211C12.0624 40.1013 12.0814 40.0851 12.1033 40.0737C12.1253 40.0623 12.1495 40.0561 12.1742 40.0553C12.1989 40.0542 12.2236 40.0589 12.2461 40.0691C12.2687 40.0792 12.2886 40.0946 12.3042 40.1138L13.3186 41.3239C13.3386 41.3478 13.3514 41.3769 13.3554 41.4078C13.3594 41.4386 13.3546 41.47 13.3414 41.4983C13.3283 41.5265 13.3073 41.5504 13.2811 41.5671C13.2548 41.5839 13.2243 41.5928 13.1931 41.5928H13.1925Z" fill="#2F3A5A"/>
<path d="M15.8757 29H20.8812V34.739H15.8757V29Z" fill="#E1E6E9"/>
</svg>
