<svg width="60" height="60" viewBox="0 0 60 60" fill="none" xmlns="http://www.w3.org/2000/svg">
<circle cx="30" cy="30" r="30" fill="#3C58A0"/>
<path d="M24.7749 32.2126H7.98285C7.72063 32.2126 7.50806 32.4252 7.50806 32.6874V46.3169C7.50806 46.5792 7.72063 46.7917 7.98285 46.7917H24.7749C25.0371 46.7917 25.2497 46.5792 25.2497 46.3169V32.6874C25.2497 32.4252 25.0371 32.2126 24.7749 32.2126Z" fill="#DDB087"/>
<path d="M25.2497 34.0774V32.6874C25.2497 32.5615 25.1997 32.4408 25.1106 32.3517C25.0216 32.2627 24.9008 32.2126 24.7749 32.2126H7.98285C7.85693 32.2126 7.73616 32.2627 7.64712 32.3517C7.55808 32.4408 7.50806 32.5615 7.50806 32.6874V34.0774H25.2497Z" fill="#BF9A71"/>
<path d="M25.2824 30.0002H7.4748C7.21257 30.0002 7 30.2128 7 30.475V33.1781C7 33.4403 7.21257 33.6529 7.4748 33.6529H25.2824C25.5446 33.6529 25.7572 33.4403 25.7572 33.1781V30.475C25.7572 30.2128 25.5446 30.0002 25.2824 30.0002Z" fill="#DDB087"/>
<path d="M13.2612 46.0269C13.218 46.0269 13.1765 46.0098 13.1459 45.9794C13.1152 45.9489 13.0978 45.9076 13.0975 45.8644L13.0676 41.2204C13.0675 41.1989 13.0715 41.1776 13.0796 41.1577C13.0877 41.1378 13.0996 41.1197 13.1147 41.1043C13.1298 41.089 13.1478 41.0769 13.1676 41.0685C13.1874 41.0602 13.2086 41.0558 13.2301 41.0557H13.2311C13.2743 41.0556 13.3158 41.0727 13.3465 41.1031C13.3772 41.1336 13.3946 41.1749 13.3949 41.2182L13.4248 45.8618C13.4251 45.9052 13.4081 45.947 13.3777 45.9779C13.3472 46.0088 13.3057 46.0264 13.2623 46.0267L13.2612 46.0269Z" fill="#2F3A5A"/>
<path d="M14.2458 42.5933C14.2219 42.5934 14.1982 42.5882 14.1765 42.578C14.1548 42.5679 14.1356 42.5532 14.1202 42.5348L13.2393 41.4834L12.4919 42.4838C12.4659 42.5186 12.4272 42.5417 12.3842 42.5479C12.3412 42.5542 12.2974 42.5431 12.2626 42.5171C12.2278 42.4911 12.2047 42.4524 12.1985 42.4094C12.1922 42.3664 12.2033 42.3227 12.2293 42.2878L13.0993 41.1217C13.1141 41.1018 13.1332 41.0856 13.1551 41.0742C13.1771 41.0628 13.2013 41.0566 13.226 41.0558C13.2508 41.0546 13.2754 41.0593 13.298 41.0695C13.3206 41.0797 13.3405 41.095 13.356 41.1143L14.3704 42.3244C14.3904 42.3483 14.4032 42.3774 14.4072 42.4083C14.4113 42.4392 14.4064 42.4705 14.3933 42.4988C14.3801 42.527 14.3592 42.5509 14.3329 42.5676C14.3066 42.5844 14.2761 42.5933 14.245 42.5933H14.2458Z" fill="#2F3A5A"/>
<path d="M10.2088 46.0269C10.1656 46.0269 10.1241 46.0098 10.0935 45.9794C10.0628 45.9489 10.0454 45.9076 10.045 45.8644L10.0151 41.2204C10.015 41.1989 10.0191 41.1776 10.0272 41.1577C10.0352 41.1378 10.0472 41.1197 10.0623 41.1044C10.0773 41.0891 10.0953 41.0769 10.1151 41.0686C10.1349 41.0602 10.1561 41.0558 10.1776 41.0557H10.1788C10.222 41.0556 10.2635 41.0727 10.2942 41.1031C10.3249 41.1336 10.3423 41.1749 10.3426 41.2182L10.3725 45.8618C10.3728 45.9052 10.3558 45.947 10.3253 45.9779C10.2949 46.0088 10.2534 46.0264 10.21 46.0267L10.2088 46.0269Z" fill="#2F3A5A"/>
<path d="M11.1925 42.5928C11.1685 42.5929 11.1449 42.5877 11.1231 42.5776C11.1014 42.5675 11.0822 42.5527 11.0669 42.5343L10.1854 41.4828L9.43923 42.4833C9.41217 42.5148 9.37412 42.5349 9.3328 42.5395C9.29149 42.544 9.24999 42.5327 9.21672 42.5078C9.18345 42.4828 9.1609 42.4462 9.15364 42.4053C9.14638 42.3643 9.15496 42.3222 9.17763 42.2873L10.0476 41.1211C10.0624 41.1013 10.0814 41.0851 10.1033 41.0737C10.1253 41.0623 10.1495 41.0561 10.1742 41.0553C10.1989 41.0542 10.2236 41.0589 10.2461 41.0691C10.2687 41.0792 10.2886 41.0946 10.3042 41.1138L11.3186 42.3239C11.3386 42.3478 11.3514 42.3769 11.3554 42.4078C11.3594 42.4386 11.3546 42.47 11.3414 42.4983C11.3283 42.5265 11.3073 42.5504 11.2811 42.5671C11.2548 42.5839 11.2243 42.5928 11.1931 42.5928H11.1925Z" fill="#2F3A5A"/>
<path d="M13.8757 30H18.8812V35.739H13.8757V30Z" fill="#E1E6E9"/>
<path d="M50.7749 32.2126H33.9829C33.7206 32.2126 33.5081 32.4252 33.5081 32.6874V46.3169C33.5081 46.5792 33.7206 46.7917 33.9829 46.7917H50.7749C51.0371 46.7917 51.2497 46.5792 51.2497 46.3169V32.6874C51.2497 32.4252 51.0371 32.2126 50.7749 32.2126Z" fill="#DDB087"/>
<path d="M51.2497 34.0774V32.6874C51.2497 32.5615 51.1997 32.4408 51.1106 32.3517C51.0216 32.2627 50.9008 32.2126 50.7749 32.2126H33.9829C33.8569 32.2126 33.7362 32.2627 33.6471 32.3517C33.5581 32.4408 33.5081 32.5615 33.5081 32.6874V34.0774H51.2497Z" fill="#BF9A71"/>
<path d="M51.2824 30.0002H33.4748C33.2126 30.0002 33 30.2128 33 30.475V33.1781C33 33.4403 33.2126 33.6529 33.4748 33.6529H51.2824C51.5446 33.6529 51.7572 33.4403 51.7572 33.1781V30.475C51.7572 30.2128 51.5446 30.0002 51.2824 30.0002Z" fill="#DDB087"/>
<path d="M39.2612 46.0269C39.218 46.0269 39.1765 46.0098 39.1459 45.9794C39.1152 45.9489 39.0978 45.9076 39.0975 45.8644L39.0676 41.2204C39.0675 41.1989 39.0715 41.1776 39.0796 41.1577C39.0877 41.1378 39.0996 41.1197 39.1147 41.1043C39.1298 41.089 39.1478 41.0769 39.1676 41.0685C39.1874 41.0602 39.2086 41.0558 39.2301 41.0557H39.2311C39.2743 41.0556 39.3158 41.0727 39.3465 41.1031C39.3772 41.1336 39.3946 41.1749 39.3949 41.2182L39.4248 45.8618C39.4251 45.9052 39.4081 45.947 39.3777 45.9779C39.3472 46.0088 39.3057 46.0264 39.2623 46.0267L39.2612 46.0269Z" fill="#2F3A5A"/>
<path d="M40.2458 42.5933C40.2219 42.5934 40.1982 42.5882 40.1765 42.578C40.1548 42.5679 40.1356 42.5532 40.1202 42.5348L39.2393 41.4834L38.4919 42.4838C38.4659 42.5186 38.4272 42.5417 38.3842 42.5479C38.3412 42.5542 38.2974 42.5431 38.2626 42.5171C38.2278 42.4911 38.2047 42.4524 38.1985 42.4094C38.1922 42.3664 38.2033 42.3227 38.2293 42.2878L39.0993 41.1217C39.1141 41.1018 39.1332 41.0856 39.1551 41.0742C39.1771 41.0628 39.2013 41.0566 39.226 41.0558C39.2508 41.0546 39.2754 41.0593 39.298 41.0695C39.3206 41.0797 39.3405 41.095 39.356 41.1143L40.3704 42.3244C40.3904 42.3483 40.4032 42.3774 40.4072 42.4083C40.4113 42.4392 40.4064 42.4705 40.3933 42.4988C40.3801 42.527 40.3592 42.5509 40.3329 42.5676C40.3066 42.5844 40.2761 42.5933 40.245 42.5933H40.2458Z" fill="#2F3A5A"/>
<path d="M36.2088 46.0269C36.1656 46.0269 36.1241 46.0098 36.0935 45.9794C36.0628 45.9489 36.0454 45.9076 36.045 45.8644L36.0151 41.2204C36.015 41.1989 36.0191 41.1776 36.0272 41.1577C36.0352 41.1378 36.0472 41.1197 36.0623 41.1044C36.0773 41.0891 36.0953 41.0769 36.1151 41.0686C36.1349 41.0602 36.1561 41.0558 36.1776 41.0557H36.1788C36.222 41.0556 36.2635 41.0727 36.2942 41.1031C36.3249 41.1336 36.3423 41.1749 36.3426 41.2182L36.3725 45.8618C36.3728 45.9052 36.3558 45.947 36.3253 45.9779C36.2949 46.0088 36.2534 46.0264 36.21 46.0267L36.2088 46.0269Z" fill="#2F3A5A"/>
<path d="M37.1925 42.5928C37.1685 42.5929 37.1449 42.5877 37.1231 42.5776C37.1014 42.5675 37.0822 42.5527 37.0669 42.5343L36.1854 41.4828L35.4392 42.4833C35.4122 42.5148 35.3741 42.5349 35.3328 42.5395C35.2915 42.544 35.25 42.5327 35.2167 42.5078C35.1834 42.4828 35.1609 42.4462 35.1536 42.4053C35.1464 42.3643 35.155 42.3222 35.1776 42.2873L36.0476 41.1211C36.0624 41.1013 36.0814 41.0851 36.1033 41.0737C36.1253 41.0623 36.1495 41.0561 36.1742 41.0553C36.1989 41.0542 36.2236 41.0589 36.2461 41.0691C36.2687 41.0792 36.2886 41.0946 36.3042 41.1138L37.3186 42.3239C37.3386 42.3478 37.3514 42.3769 37.3554 42.4078C37.3594 42.4386 37.3546 42.47 37.3414 42.4983C37.3283 42.5265 37.3073 42.5504 37.2811 42.5671C37.2548 42.5839 37.2243 42.5928 37.1931 42.5928H37.1925Z" fill="#2F3A5A"/>
<path d="M39.8757 30H44.8812V35.739H39.8757V30Z" fill="#E1E6E9"/>
<path d="M38.7749 12.2126H21.9829C21.7206 12.2126 21.5081 12.4252 21.5081 12.6874V26.3169C21.5081 26.5792 21.7206 26.7917 21.9829 26.7917H38.7749C39.0371 26.7917 39.2497 26.5792 39.2497 26.3169V12.6874C39.2497 12.4252 39.0371 12.2126 38.7749 12.2126Z" fill="#DDB087"/>
<path d="M39.2497 14.0774V12.6874C39.2497 12.5615 39.1997 12.4408 39.1106 12.3517C39.0216 12.2627 38.9008 12.2126 38.7749 12.2126H21.9829C21.8569 12.2126 21.7362 12.2627 21.6471 12.3517C21.5581 12.4408 21.5081 12.5615 21.5081 12.6874V14.0774H39.2497Z" fill="#BF9A71"/>
<path d="M39.2824 10.0002H21.4748C21.2126 10.0002 21 10.2128 21 10.475V13.1781C21 13.4403 21.2126 13.6529 21.4748 13.6529H39.2824C39.5446 13.6529 39.7572 13.4403 39.7572 13.1781V10.475C39.7572 10.2128 39.5446 10.0002 39.2824 10.0002Z" fill="#DDB087"/>
<path d="M27.2612 26.0269C27.218 26.0269 27.1765 26.0098 27.1459 25.9794C27.1152 25.9489 27.0978 25.9076 27.0975 25.8644L27.0676 21.2204C27.0675 21.1989 27.0715 21.1776 27.0796 21.1577C27.0877 21.1378 27.0996 21.1197 27.1147 21.1043C27.1298 21.089 27.1478 21.0769 27.1676 21.0685C27.1874 21.0602 27.2086 21.0558 27.2301 21.0557H27.2311C27.2743 21.0556 27.3158 21.0727 27.3465 21.1031C27.3772 21.1336 27.3946 21.1749 27.3949 21.2182L27.4248 25.8618C27.4251 25.9052 27.4081 25.947 27.3777 25.9779C27.3472 26.0088 27.3057 26.0264 27.2623 26.0267L27.2612 26.0269Z" fill="#2F3A5A"/>
<path d="M28.2458 22.5933C28.2219 22.5934 28.1982 22.5882 28.1765 22.578C28.1548 22.5679 28.1356 22.5532 28.1202 22.5348L27.2393 21.4834L26.4919 22.4838C26.4659 22.5186 26.4272 22.5417 26.3842 22.5479C26.3412 22.5542 26.2974 22.5431 26.2626 22.5171C26.2278 22.4911 26.2047 22.4524 26.1985 22.4094C26.1922 22.3664 26.2033 22.3227 26.2293 22.2878L27.0993 21.1217C27.1141 21.1018 27.1332 21.0856 27.1551 21.0742C27.1771 21.0628 27.2013 21.0566 27.226 21.0558C27.2508 21.0546 27.2754 21.0593 27.298 21.0695C27.3206 21.0797 27.3405 21.095 27.356 21.1143L28.3704 22.3244C28.3904 22.3483 28.4032 22.3774 28.4072 22.4083C28.4113 22.4392 28.4064 22.4705 28.3933 22.4988C28.3801 22.527 28.3592 22.5509 28.3329 22.5676C28.3066 22.5844 28.2761 22.5933 28.245 22.5933H28.2458Z" fill="#2F3A5A"/>
<path d="M24.2088 26.0269C24.1656 26.0269 24.1241 26.0098 24.0935 25.9794C24.0628 25.9489 24.0454 25.9076 24.045 25.8644L24.0151 21.2204C24.015 21.1989 24.0191 21.1776 24.0272 21.1577C24.0352 21.1378 24.0472 21.1197 24.0623 21.1044C24.0773 21.0891 24.0953 21.0769 24.1151 21.0686C24.1349 21.0602 24.1561 21.0558 24.1776 21.0557H24.1788C24.222 21.0556 24.2635 21.0727 24.2942 21.1031C24.3249 21.1336 24.3423 21.1749 24.3426 21.2182L24.3725 25.8618C24.3728 25.9052 24.3558 25.947 24.3253 25.9779C24.2949 26.0088 24.2534 26.0264 24.21 26.0267L24.2088 26.0269Z" fill="#2F3A5A"/>
<path d="M25.1925 22.5928C25.1685 22.5929 25.1449 22.5877 25.1231 22.5776C25.1014 22.5675 25.0822 22.5527 25.0669 22.5343L24.1854 21.4828L23.4392 22.4833C23.4122 22.5148 23.3741 22.5349 23.3328 22.5395C23.2915 22.544 23.25 22.5327 23.2167 22.5078C23.1834 22.4828 23.1609 22.4462 23.1536 22.4053C23.1464 22.3643 23.155 22.3222 23.1776 22.2873L24.0476 21.1211C24.0624 21.1013 24.0814 21.0851 24.1033 21.0737C24.1253 21.0623 24.1495 21.0561 24.1742 21.0553C24.1989 21.0542 24.2236 21.0589 24.2461 21.0691C24.2687 21.0792 24.2886 21.0946 24.3042 21.1138L25.3186 22.3239C25.3386 22.3478 25.3514 22.3769 25.3554 22.4078C25.3594 22.4386 25.3546 22.47 25.3414 22.4983C25.3283 22.5265 25.3073 22.5504 25.2811 22.5671C25.2548 22.5839 25.2243 22.5928 25.1931 22.5928H25.1925Z" fill="#2F3A5A"/>
<path d="M27.8757 10H32.8812V15.739H27.8757V10Z" fill="#E1E6E9"/>
</svg>
